<?xml version="1.0" encoding="UTF-8"?> <svg xmlns="http://www.w3.org/2000/svg" width="498" height="341" viewBox="0 0 498 341" fill="none"><g clip-path="url(#clip0_1685_11542)"><rect x="0.582031" y="0.88208" width="497.418" height="340" fill="#0A0A0A"></rect><g filter="url(#filter0_f_1685_11542)"><ellipse cx="90.8385" cy="241.391" rx="158.453" ry="71.7078" fill="#AD6CFF" fill-opacity="0.43"></ellipse></g><g filter="url(#filter1_f_1685_11542)"><ellipse cx="420.435" cy="83.236" rx="119.132" ry="123.266" fill="#3C2FCF" fill-opacity="0.48"></ellipse></g><rect x="83.1729" y="50.1387" width="333" height="242" rx="12" fill="url(#paint0_linear_1685_11542)" fill-opacity="0.09"></rect><rect x="83.6729" y="50.6387" width="332" height="241" rx="11.5" stroke="url(#paint1_linear_1685_11542)" stroke-opacity="0.3"></rect><circle cx="249.291" cy="170.882" r="77" fill="url(#paint2_linear_1685_11542)" fill-opacity="0.08"></circle><circle cx="249.291" cy="170.882" r="76" stroke="url(#paint3_linear_1685_11542)" stroke-opacity="0.14" stroke-width="2"></circle><path d="M253.952 205.182V214.095C253.952 215.486 252.87 216.498 251.476 216.498H245.535C244.141 216.498 243.018 215.486 243.018 214.095V205.966C237.55 205.718 232.034 204.552 227.859 202.963C225.597 202.106 224.337 199.683 224.937 197.337L225.905 193.564C226.244 192.241 227.128 191.135 228.338 190.515C229.548 189.885 230.968 189.821 232.238 190.307C236.216 191.845 240.914 192.964 245.93 192.964C252.317 192.964 256.69 190.498 256.69 186.015C256.69 181.756 253.104 179.065 244.808 176.26C232.815 172.226 224.602 166.623 224.602 155.749C224.602 145.888 231.582 138.154 243.514 135.798V127.669C243.514 126.278 244.704 125.032 246.098 125.032H252.039C253.433 125.032 254.455 126.278 254.455 127.669V135.011C259.672 135.235 263.439 136.009 266.588 137.035C268.971 137.812 270.378 140.309 269.752 142.741L268.901 146.119C268.569 147.406 267.718 148.498 266.552 149.128C265.385 149.758 264.008 149.872 262.748 149.44C259.887 148.458 256.154 147.567 251.422 147.567C244.137 147.567 241.782 150.706 241.782 153.846C241.782 157.546 245.706 159.898 255.232 163.487C268.569 168.195 273.927 174.36 273.927 184.443C273.923 194.419 266.877 202.943 253.952 205.182Z" fill="#AEA9F8"></path></g><defs><filter id="filter0_f_1685_11542" x="-232.384" y="4.91339" width="646.445" height="472.955" filterUnits="userSpaceOnUse" color-interpolation-filters="sRGB"><feGaussianBlur stdDeviation="82.3849"></feGaussianBlur></filter><filter id="filter1_f_1685_11542" x="114.772" y="-226.561" width="611.327" height="619.595" filterUnits="userSpaceOnUse" color-interpolation-filters="sRGB"><feGaussianBlur stdDeviation="93.2659"></feGaussianBlur></filter><linearGradient id="paint0_linear_1685_11542" x1="249.673" y1="-25.4867" x2="249.673" y2="307.264" gradientUnits="userSpaceOnUse"><stop stop-color="white"></stop><stop offset="1" stop-color="white" stop-opacity="0"></stop></linearGradient><linearGradient id="paint1_linear_1685_11542" x1="249.673" y1="50.1387" x2="249.673" y2="292.139" gradientUnits="userSpaceOnUse"><stop stop-color="white" stop-opacity="0.32"></stop><stop offset="1" stop-color="white" stop-opacity="0"></stop></linearGradient><linearGradient id="paint2_linear_1685_11542" x1="249.291" y1="93.8821" x2="249.291" y2="247.882" gradientUnits="userSpaceOnUse"><stop stop-color="white"></stop><stop offset="1" stop-color="white" stop-opacity="0"></stop></linearGradient><linearGradient id="paint3_linear_1685_11542" x1="249.291" y1="93.8821" x2="249.291" y2="247.882" gradientUnits="userSpaceOnUse"><stop stop-color="white"></stop><stop offset="1" stop-color="white" stop-opacity="0"></stop></linearGradient><clipPath id="clip0_1685_11542"><rect x="0.582031" y="0.88208" width="497.418" height="340" rx="16" fill="white"></rect></clipPath></defs></svg> 