<?xml version="1.0" encoding="UTF-8"?> <svg xmlns="http://www.w3.org/2000/svg" width="497" height="340" viewBox="0 0 497 340" fill="none"><g clip-path="url(#clip0_1719_5474)"><rect width="497.418" height="340" fill="#0A0A0A"></rect><g filter="url(#filter0_f_1719_5474)"><ellipse cx="90.2558" cy="240.509" rx="158.453" ry="71.7078" fill="url(#paint0_linear_1719_5474)" fill-opacity="0.39"></ellipse></g><g filter="url(#filter1_f_1719_5474)"><ellipse cx="419.854" cy="82.3541" rx="119.132" ry="123.266" fill="url(#paint1_linear_1719_5474)" fill-opacity="0.37"></ellipse></g><rect x="82.5918" y="49.2566" width="333" height="242" rx="12" fill="url(#paint2_linear_1719_5474)" fill-opacity="0.09"></rect><rect x="83.0918" y="49.7566" width="332" height="241" rx="11.5" stroke="url(#paint3_linear_1719_5474)" stroke-opacity="0.3"></rect><path d="M274.692 189.457C274.692 196.526 263.231 202.257 249.092 202.257C234.954 202.257 223.492 196.526 223.492 189.457V176.573C225.099 178.547 227.38 180.186 229.917 181.454C234.948 183.97 241.731 185.457 249.092 185.457C256.453 185.457 263.236 183.97 268.268 181.454C270.805 180.186 273.085 178.547 274.692 176.573V189.457Z" fill="#A9C4F8"></path><path d="M249.092 166.257C256.453 166.257 263.236 164.77 268.268 162.254C270.805 160.986 273.085 159.346 274.692 157.373V170.257C274.692 171.857 268.978 175.348 266.121 177.161C261.887 179.278 255.87 180.657 249.092 180.657C242.315 180.657 236.298 179.278 232.064 177.161C228.292 175.275 223.492 171.857 223.492 170.257V157.373C225.099 159.346 227.38 160.986 229.917 162.254C234.948 164.77 241.731 166.257 249.092 166.257Z" fill="#A9C4F8"></path><path d="M266.119 157.961C261.885 160.078 255.868 161.457 249.091 161.457C242.313 161.457 236.296 160.078 232.062 157.961C230.415 157.316 226.711 155.264 224.135 151.951C223.697 151.387 223.509 150.668 223.618 149.962C223.692 149.488 223.794 148.999 223.925 148.696C226.141 142.754 236.565 138.257 249.091 138.257C261.616 138.257 272.04 142.754 274.256 148.696C274.387 148.999 274.49 149.488 274.563 149.962C274.672 150.668 274.484 151.387 274.046 151.951C271.47 155.264 267.766 157.316 266.119 157.961Z" fill="#A9C4F8"></path><rect x="172.092" y="93.2566" width="154" height="154" rx="29" fill="url(#paint4_linear_1719_5474)" fill-opacity="0.08"></rect><rect x="173.092" y="94.2566" width="152" height="152" rx="28" stroke="url(#paint5_linear_1719_5474)" stroke-opacity="0.14" stroke-width="2"></rect></g><defs><filter id="filter0_f_1719_5474" x="-232.967" y="4.03131" width="646.446" height="472.955" filterUnits="userSpaceOnUse" color-interpolation-filters="sRGB"><feGaussianBlur stdDeviation="82.3849"></feGaussianBlur></filter><filter id="filter1_f_1719_5474" x="114.191" y="-227.443" width="611.327" height="619.595" filterUnits="userSpaceOnUse" color-interpolation-filters="sRGB"><feGaussianBlur stdDeviation="93.2659"></feGaussianBlur></filter><linearGradient id="paint0_linear_1719_5474" x1="90.2558" y1="168.801" x2="90.2558" y2="312.217" gradientUnits="userSpaceOnUse"><stop stop-color="#1CFFBB"></stop><stop offset="1" stop-color="#00E0FF"></stop></linearGradient><linearGradient id="paint1_linear_1719_5474" x1="419.854" y1="-40.9116" x2="419.854" y2="205.62" gradientUnits="userSpaceOnUse"><stop stop-color="#0056D8"></stop><stop offset="1" stop-color="#2B00D8"></stop></linearGradient><linearGradient id="paint2_linear_1719_5474" x1="249.092" y1="-26.3688" x2="249.092" y2="306.382" gradientUnits="userSpaceOnUse"><stop stop-color="white"></stop><stop offset="1" stop-color="white" stop-opacity="0"></stop></linearGradient><linearGradient id="paint3_linear_1719_5474" x1="249.092" y1="49.2566" x2="249.092" y2="291.257" gradientUnits="userSpaceOnUse"><stop stop-color="white" stop-opacity="0.32"></stop><stop offset="1" stop-color="white" stop-opacity="0"></stop></linearGradient><linearGradient id="paint4_linear_1719_5474" x1="249.092" y1="93.2566" x2="249.092" y2="247.257" gradientUnits="userSpaceOnUse"><stop stop-color="white"></stop><stop offset="1" stop-color="white" stop-opacity="0"></stop></linearGradient><linearGradient id="paint5_linear_1719_5474" x1="249.092" y1="93.2566" x2="249.092" y2="247.257" gradientUnits="userSpaceOnUse"><stop stop-color="white"></stop><stop offset="1" stop-color="white" stop-opacity="0"></stop></linearGradient><clipPath id="clip0_1719_5474"><rect width="497" height="340" rx="16" fill="white"></rect></clipPath></defs></svg> 