<svg xmlns="http://www.w3.org/2000/svg" width="65" height="64" viewBox="0 0 65 64" fill="none"><g clip-path="url(#clip0_15692_6444)"><path d="M57.6463 10.39C56.2863 10.39 55.1763 11.5 55.1763 12.86C55.1763 14.22 56.2863 15.33 57.6463 15.33C59.0163 15.33 60.1163 14.22 60.1163 12.86C60.1163 11.5 59.0163 10.39 57.6463 10.39ZM51.1063 10.39C49.7463 10.39 48.6363 11.5 48.6363 12.86C48.6363 14.22 49.7463 15.33 51.1063 15.33C52.4763 15.33 53.5763 14.22 53.5763 12.86C53.5763 11.5 52.4763 10.39 51.1063 10.39ZM44.5663 10.39C43.2063 10.39 42.0963 11.5 42.0963 12.86C42.0963 14.22 43.2063 15.33 44.5663 15.33C45.9363 15.33 47.0363 14.22 47.0363 12.86C47.0363 11.5 45.9363 10.39 44.5663 10.39ZM26.9963 12.86C26.9963 13.39 26.5663 13.83 26.0263 13.83H6.15628C5.89902 13.83 5.6523 13.7278 5.47039 13.5459C5.28848 13.364 5.18628 13.1173 5.18628 12.86C5.18628 12.6028 5.28848 12.356 5.47039 12.1741C5.6523 11.9922 5.89902 11.89 6.15628 11.89H26.0263C26.5663 11.89 26.9963 12.32 26.9963 12.86Z" fill="#9CA8B1"></path><path d="M60.9062 7.41998H4.38625C2.33625 7.41998 0.65625 9.09998 0.65625 11.16V52.98C0.65625 54.96 2.27625 56.58 4.25625 56.58H61.0563C63.0363 56.58 64.6562 54.96 64.6562 52.98V11.16C64.6536 10.1672 64.2573 9.21589 63.5544 8.51479C62.8514 7.81369 61.8991 7.41998 60.9062 7.41998ZM62.7163 52.98C62.7163 53.89 61.9663 54.64 61.0563 54.64H4.25625C3.34625 54.64 2.59625 53.89 2.59625 52.98V19.21H62.7163V52.98ZM62.7163 17.27H2.59625V11.16C2.59625 10.17 3.40625 9.35998 4.38625 9.35998H60.9062C61.9062 9.35998 62.7163 10.17 62.7163 11.16V17.27Z" fill="#4F5C65"></path><path d="M60.9062 9.35999H4.38619C3.40619 9.35999 2.59619 10.17 2.59619 11.16V17.27H62.7162V11.16C62.7162 10.17 61.9062 9.35999 60.9062 9.35999ZM26.0262 13.83H6.15619C5.89893 13.83 5.65221 13.7278 5.4703 13.5459C5.28839 13.364 5.18619 13.1172 5.18619 12.86C5.18619 12.6027 5.28839 12.356 5.4703 12.1741C5.65221 11.9922 5.89893 11.89 6.15619 11.89H26.0262C26.2835 11.89 26.5302 11.9922 26.7121 12.1741C26.894 12.356 26.9962 12.6027 26.9962 12.86C26.9962 13.1172 26.894 13.364 26.7121 13.5459C26.5302 13.7278 26.2835 13.83 26.0262 13.83ZM44.5662 15.33C43.2062 15.33 42.0962 14.22 42.0962 12.86C42.0962 11.5 43.2062 10.39 44.5662 10.39C45.9362 10.39 47.0362 11.5 47.0362 12.86C47.0362 14.22 45.9362 15.33 44.5662 15.33ZM51.1062 15.33C49.7462 15.33 48.6362 14.22 48.6362 12.86C48.6362 11.5 49.7462 10.39 51.1062 10.39C52.4762 10.39 53.5762 11.5 53.5762 12.86C53.5762 14.22 52.4762 15.33 51.1062 15.33ZM57.6462 15.33C56.2862 15.33 55.1762 14.22 55.1762 12.86C55.1762 11.5 56.2862 10.39 57.6462 10.39C59.0162 10.39 60.1162 11.5 60.1162 12.86C60.1162 14.22 59.0162 15.33 57.6462 15.33Z" fill="#E0E7EC"></path><path d="M40.2313 38.1875L39.1287 31.25C39.073 30.8922 38.9442 30.5497 38.7504 30.2438C38.5567 29.9379 38.302 29.6751 38.0024 29.4718C37.7027 29.2685 37.3644 29.1291 37.0085 29.0621C36.6527 28.9951 36.2868 29.0021 35.9338 29.0825C35.3188 29.225 34.6063 29.36 33.8038 29.48C33.0429 29.5925 32.2696 29.5925 31.5088 29.48C30.7063 29.36 30.0088 29.225 29.3788 29.0825C29.0257 29.0021 28.6598 28.9951 28.304 29.0621C27.9481 29.1291 27.6098 29.2685 27.3101 29.4718C27.0105 29.6751 26.7558 29.9379 26.5621 30.2438C26.3683 30.5497 26.2395 30.8922 26.1837 31.25L25.0813 38.1875H40.2313ZM41.6562 42.875H40.6588C40.5249 42.0425 40.0988 41.2849 39.457 40.738C38.8151 40.1911 37.9995 39.8908 37.1562 39.8908C36.313 39.8908 35.4974 40.1911 34.8555 40.738C34.2137 41.2849 33.7876 42.0425 33.6537 42.875H31.6588C31.5249 42.0425 31.0988 41.2849 30.457 40.738C29.8151 40.1911 28.9995 39.8908 28.1562 39.8908C27.313 39.8908 26.4974 40.1911 25.8555 40.738C25.2137 41.2849 24.7876 42.0425 24.6537 42.875H23.6562C23.5071 42.875 23.364 42.9343 23.2585 43.0398C23.153 43.1453 23.0938 43.2883 23.0938 43.4375C23.0938 43.5867 23.153 43.7298 23.2585 43.8353C23.364 43.9407 23.5071 44 23.6562 44H24.6537C24.7876 44.8325 25.2137 45.5902 25.8555 46.137C26.4974 46.6839 27.313 46.9843 28.1562 46.9843C28.9995 46.9843 29.8151 46.6839 30.457 46.137C31.0988 45.5902 31.5249 44.8325 31.6588 44H33.6537C33.7876 44.8325 34.2137 45.5902 34.8555 46.137C35.4974 46.6839 36.313 46.9843 37.1562 46.9843C37.9995 46.9843 38.8151 46.6839 39.457 46.137C40.0988 45.5902 40.5249 44.8325 40.6588 44H41.6562C41.8054 44 41.9485 43.9407 42.054 43.8353C42.1595 43.7298 42.2188 43.5867 42.2188 43.4375C42.2188 43.2883 42.1595 43.1453 42.054 43.0398C41.9485 42.9343 41.8054 42.875 41.6562 42.875ZM28.1562 45.875C27.6742 45.875 27.2029 45.7321 26.802 45.4642C26.4012 45.1964 26.0888 44.8157 25.9043 44.3703C25.7198 43.9249 25.6715 43.4348 25.7656 42.962C25.8596 42.4892 26.0918 42.0548 26.4327 41.7139C26.7736 41.373 27.2079 41.1409 27.6807 41.0468C28.1535 40.9528 28.6436 41.0011 29.089 41.1856C29.5344 41.37 29.9151 41.6825 30.183 42.0833C30.4508 42.4842 30.5938 42.9554 30.5938 43.4375C30.5918 44.0834 30.3343 44.7022 29.8776 45.1589C29.4209 45.6156 28.8021 45.873 28.1562 45.875ZM37.1562 45.875C36.6742 45.875 36.2029 45.7321 35.802 45.4642C35.4012 45.1964 35.0888 44.8157 34.9043 44.3703C34.7198 43.9249 34.6715 43.4348 34.7656 42.962C34.8596 42.4892 35.0918 42.0548 35.4327 41.7139C35.7736 41.373 36.2079 41.1409 36.6807 41.0468C37.1535 40.9528 37.6436 41.0011 38.089 41.1856C38.5344 41.37 38.9151 41.6825 39.183 42.0833C39.4508 42.4842 39.5938 42.9554 39.5938 43.4375C39.5918 44.0834 39.3343 44.7022 38.8776 45.1589C38.4209 45.6156 37.8021 45.873 37.1562 45.875Z" fill="#4F5C65"></path><path d="M41.8438 38.5625H23.4688C23.3196 38.5625 23.1765 38.5032 23.071 38.3977C22.9655 38.2923 22.9062 38.1492 22.9062 38C22.9062 37.8508 22.9655 37.7077 23.071 37.6023C23.1765 37.4968 23.3196 37.4375 23.4688 37.4375H41.8438C41.9929 37.4375 42.136 37.4968 42.2415 37.6023C42.347 37.7077 42.4062 37.8508 42.4062 38C42.4062 38.1492 42.347 38.2923 42.2415 38.3977C42.136 38.5032 41.9929 38.5625 41.8438 38.5625Z" fill="#4F5C65"></path><path d="M64.2422 59.7147L51.0609 38.0241C50.6435 37.3319 49.9208 36.9248 49.1167 36.9248C48.3126 36.9248 47.5798 37.3319 47.1624 38.0241L33.9913 59.7147C33.4518 60.5901 33.4315 61.6588 33.9404 62.5546C34.4494 63.4605 35.3654 63.9999 36.4036 63.9999H61.8298C62.868 63.9999 63.7841 63.4605 64.293 62.5546C64.7918 61.6588 64.7816 60.5901 64.2422 59.7147ZM62.5729 61.5876C62.4914 61.7199 62.2777 62.0253 61.8298 62.0253H36.4036C36.2517 62.0269 36.1022 61.987 35.9712 61.9098C35.8403 61.8327 35.7329 61.7213 35.6606 61.5876C35.5862 61.4566 35.5489 61.3079 35.5524 61.1573C35.556 61.0067 35.6005 60.8599 35.681 60.7326L48.8521 39.042C48.8807 38.9978 48.9199 38.9616 48.9662 38.9365C49.0124 38.9114 49.0641 38.8983 49.1167 38.8983C49.1693 38.8983 49.2211 38.9114 49.2673 38.9365C49.3135 38.9616 49.3527 38.9978 49.3814 39.042L62.5525 60.7326C62.7866 61.1194 62.6441 61.4654 62.5729 61.5876Z" fill="#4F5C65"></path><path d="M62.5539 60.7325L49.3828 39.0419C49.3541 38.9978 49.3149 38.9615 49.2687 38.9364C49.2225 38.9113 49.1707 38.8982 49.1181 38.8982C49.0655 38.8982 49.0138 38.9113 48.9676 38.9364C48.9213 38.9615 48.8821 38.9978 48.8535 39.0419L35.6824 60.7325C35.4483 61.1193 35.5908 61.4654 35.662 61.5875C35.7333 61.7198 35.9572 62.0252 36.405 62.0252H61.8312C62.2791 62.0252 62.4928 61.7198 62.5743 61.5875C62.6455 61.4654 62.788 61.1193 62.5539 60.7325ZM48.1308 45.1083C48.1308 44.8465 48.2348 44.5953 48.42 44.4102C48.6051 44.225 48.8563 44.121 49.1181 44.121C49.38 44.121 49.6311 44.225 49.8163 44.4102C50.0014 44.5953 50.1055 44.8465 50.1055 45.1083V55.5414C50.1055 56.0809 49.6576 56.5287 49.1181 56.5287C48.8563 56.5287 48.6051 56.4247 48.42 56.2395C48.2348 56.0544 48.1308 55.8033 48.1308 55.5414V45.1083ZM49.1181 59.7452C48.3242 59.7452 47.6829 59.0937 47.6829 58.2998C47.6829 57.5059 48.3242 56.8646 49.1181 56.8646C49.9121 56.8646 50.5533 57.5059 50.5533 58.2998C50.5533 59.0937 49.9121 59.7452 49.1181 59.7452Z" fill="white"></path><path d="M50.1027 45.1079V55.541C50.1027 56.0805 49.6548 56.5283 49.1154 56.5283C48.8535 56.5283 48.6024 56.4243 48.4172 56.2392C48.2321 56.054 48.128 55.8029 48.128 55.541V45.1079C48.128 44.8461 48.2321 44.5949 48.4172 44.4098C48.6024 44.2246 48.8535 44.1206 49.1154 44.1206C49.3772 44.1206 49.6283 44.2246 49.8135 44.4098C49.9987 44.5949 50.1027 44.8461 50.1027 45.1079ZM49.1154 56.8642C48.3214 56.8642 47.6802 57.5055 47.6802 58.2994C47.6802 59.0933 48.3214 59.7448 49.1154 59.7448C49.9093 59.7448 50.5505 59.0933 50.5505 58.2994C50.5505 57.5055 49.9093 56.8642 49.1154 56.8642Z" fill="#4F5C65"></path></g><defs><clipPath id="clip0_15692_6444"><rect width="64" height="64" fill="white" transform="translate(0.65625)"></rect></clipPath></defs></svg>