<?xml version="1.0" encoding="UTF-8"?> <svg xmlns="http://www.w3.org/2000/svg" version="1.1" width="800" height="200"><path d="M0 0 C264 0 528 0 800 0 C800 66 800 132 800 200 C536 200 272 200 0 200 C0 134 0 68 0 0 Z " fill="#060C2C" transform="translate(0,0)"></path><path d="M0 0 C52.81891348 0 52.81891348 0 62 9 C67.68853433 15.63888613 68.60986744 21.55740101 68.41015625 30.1171875 C67.81438715 35.75713496 65.84265085 39.84898828 62 44 C60.03711435 45.38739241 58.04250175 46.73273351 56 48 C56.75925781 48.64066406 57.51851562 49.28132813 58.30078125 49.94140625 C69.48185772 59.67227825 69.48185772 59.67227825 70.33203125 68.4140625 C70.74288094 77.94959707 69.5171064 84.70619657 63.2734375 92.0234375 C46.9713852 107.92296999 19.23375438 101 0 101 C0 67.67 0 34.34 0 0 Z " fill="#F8FAF9" transform="translate(10,48)"></path><path d="M0 0 C0 -0.99 0 -1.98 0 -3 C6.27 -3 12.54 -3 19 -3 C19 22.08 19 47.16 19 73 C12.73 73 6.46 73 0 73 C0 71.68 0 70.36 0 69 C-0.6084375 69.28875 -1.216875 69.5775 -1.84375 69.875 C-12.04253854 74.19448691 -24.15378542 74.90819098 -34.69921875 71.09765625 C-46.16654407 65.62682702 -53.75987856 56.922492 -58 45 C-60.88304015 35.72751952 -59.45540138 25.79287891 -55.6796875 17.046875 C-51.31189593 9.12390425 -45.07036049 3.05171787 -37 -1 C-36.3915625 -1.30550781 -35.783125 -1.61101562 -35.15625 -1.92578125 C-23.78584881 -7.18708531 -11.03964261 -5.5198213 0 0 Z " fill="#FAFBFB" transform="translate(688,79)"></path><path d="M0 0 C6.08725757 4.51390223 9.18871311 10.44868291 11.19140625 17.625 C11.68640625 22.08 11.68640625 22.08 12.19140625 26.625 C5.26140625 26.625 -1.66859375 26.625 -8.80859375 26.625 C-9.30359375 22.665 -9.30359375 22.665 -9.80859375 18.625 C-12.44886895 15.31603891 -16.1504202 13.87385701 -20.28125 13.25390625 C-25.69235202 13.11172892 -30.69835715 13.85964554 -35.80859375 15.625 C-36.78410884 18.55154527 -36.97337463 20.57154996 -36.99609375 23.625 C-37.01736328 24.924375 -37.01736328 24.924375 -37.0390625 26.25 C-36.97115313 28.89221537 -36.97115313 28.89221537 -34.80859375 31.625 C-32.59056334 32.70169325 -32.59056334 32.70169325 -29.87109375 33.5 C-28.80246094 33.8403125 -27.73382812 34.180625 -26.6328125 34.53125 C-22.99672229 35.57119408 -19.35125888 36.48755941 -15.67700195 37.37890625 C-12.41461249 38.19154884 -9.17933908 39.08344262 -5.94921875 40.015625 C-4.11090263 40.53894127 -2.25762436 41.00918508 -0.40234375 41.46875 C2.8204548 42.69119083 4.08158939 43.91842993 6.19140625 46.625 C6.77270508 49.10742188 6.77270508 49.10742188 6.8984375 51.84375 C6.98037354 53.34252686 6.98037354 53.34252686 7.06396484 54.87158203 C7.12739709 57.92729921 7.0858765 60.96786158 7.03125 64.0234375 C7.00016588 67.78778746 7.33103308 70.61495608 8.7578125 74.1015625 C10.23055935 77.72122914 10.38313072 78.20184319 9.19140625 81.625 C7.75390625 84.375 7.75390625 84.375 6.19140625 86.625 C5.53140625 86.625 4.87140625 86.625 4.19140625 86.625 C3.69640625 88.11 3.69640625 88.11 3.19140625 89.625 C-6.92267223 98.23272637 -18.67898962 98.67003463 -31.46484375 97.88818359 C-40.13125911 96.91501737 -47.67677429 92.52447991 -53.23828125 85.9296875 C-58.41410402 79.17480016 -57.90854794 72.92119762 -57.80859375 64.625 C-51.53859375 64.625 -45.26859375 64.625 -38.80859375 64.625 C-38.14859375 67.595 -37.48859375 70.565 -36.80859375 73.625 C-31.78801014 78.099868 -27.19558925 78.05435869 -20.6328125 77.83203125 C-17.64296787 77.61285868 -14.73727374 77.27581778 -11.80859375 76.625 C-11.31359375 75.14 -11.31359375 75.14 -10.80859375 73.625 C-10.14859375 73.625 -9.48859375 73.625 -8.80859375 73.625 C-8.50340613 72.0688453 -8.2408346 70.50429892 -7.99609375 68.9375 C-7.84527344 68.06738281 -7.69445312 67.19726562 -7.5390625 66.30078125 C-7.60724741 63.45274772 -7.60724741 63.45274772 -9.66796875 60.94921875 C-13.87732822 57.83408332 -17.79665249 57.11111172 -22.87109375 56.125 C-46.69484449 50.96417718 -46.69484449 50.96417718 -53.49609375 41.203125 C-58.41731181 32.77326072 -59.08363538 25.09954014 -57.80859375 15.625 C-55.63015821 7.76188507 -50.54775444 2.06997833 -43.80859375 -2.375 C-30.09283616 -9.25230621 -12.80004339 -8.33304859 0 0 Z " fill="#F8F9F9" transform="translate(539.80859375,54.375)"></path><path d="M0 0 C0.69351563 0.3815625 1.38703125 0.763125 2.1015625 1.15625 C3.75043795 2.07594148 5.37799839 3.03370117 7 4 C7 4.66 7 5.32 7 6 C7.99 6.33 8.98 6.66 10 7 C11.53515625 8.85546875 11.53515625 8.85546875 13.0625 11.1875 C13.56910156 11.94417969 14.07570313 12.70085937 14.59765625 13.48046875 C19.4873017 22.26548635 19.27265413 33.33778375 17.41796875 43.046875 C13.796818 53.43081414 5.06154618 60.96922691 -4.5 65.75 C-14.35980322 69.16228372 -24.81964632 67.44409081 -34 63 C-42.93580865 58.11059527 -48.4321087 49.72013473 -51.609375 40.16796875 C-53.60823054 29.07432052 -52.51122399 19.40031013 -46 10 C-35.03299511 -3.85574976 -15.72090362 -9.19641793 0 0 Z " fill="#F5F6F7" transform="translate(185,82)"></path><path d="M0 0 C8.51091026 5.6519822 12.92718993 12.83218327 15.22801208 22.77275085 C15.68310512 25.41201238 15.80793872 27.82771622 15.80102539 30.50317383 C15.80091209 31.97413261 15.80091209 31.97413261 15.80079651 33.47480774 C15.79563522 34.5208165 15.79047394 35.56682526 15.78515625 36.64453125 C15.7837413 37.72506271 15.78232635 38.80559418 15.78086853 39.91886902 C15.7752808 43.36260776 15.7627305 46.80628098 15.75 50.25 C15.74498342 52.58788968 15.74042079 54.92578039 15.73632812 57.26367188 C15.72531538 62.98830642 15.70805912 68.7128921 15.6875 74.4375 C9.0875 74.4375 2.4875 74.4375 -4.3125 74.4375 C-4.3218457 72.95427246 -4.33119141 71.47104492 -4.34082031 69.94287109 C-4.3807495 64.42987242 -4.4465176 58.91743004 -4.52001953 53.40478516 C-4.54821195 51.02074337 -4.56943503 48.63660842 -4.58349609 46.25244141 C-4.60494869 42.82145548 -4.65161364 39.39158776 -4.703125 35.9609375 C-4.70435364 34.89821625 -4.70558228 33.835495 -4.70684814 32.74057007 C-4.83739574 26.11617991 -5.52004402 22.22995598 -10.3125 17.4375 C-17.67528944 16.72909281 -23.45965641 16.68206458 -29.3125 21.4375 C-33.55286733 27.31785493 -33.91284197 32.05161166 -33.921875 39.18359375 C-33.93841125 40.19470718 -33.95494751 41.20582062 -33.97198486 42.24757385 C-34.02032173 45.45677859 -34.04180448 48.66550991 -34.0625 51.875 C-34.09067157 54.05926842 -34.12060066 56.24351493 -34.15234375 58.42773438 C-34.22607721 63.76428393 -34.2757395 69.10057288 -34.3125 74.4375 C-40.5825 74.4375 -46.8525 74.4375 -53.3125 74.4375 C-53.3125 49.3575 -53.3125 24.2775 -53.3125 -1.5625 C-47.0425 -1.5625 -40.7725 -1.5625 -34.3125 -1.5625 C-34.3125 -0.9025 -34.3125 -0.2425 -34.3125 0.4375 C-33.77157715 0.22746338 -33.2306543 0.01742676 -32.67333984 -0.19897461 C-22.5131094 -3.8986593 -9.88549262 -5.0715696 0 0 Z " fill="#FAFBFB" transform="translate(774.3125,77.5625)"></path><path d="M0 0 C4.01243815 2.96147328 7.5327186 6.42351288 11 10 C8.82154847 14.69511014 5.65551011 17.72653069 1.5625 20.875 C-1.10733871 23.08901259 -3.18856599 25.44395438 -5.375 28.12109375 C-9.43087872 32.81070351 -14.0585133 36.94426675 -18.625 41.125 C-19.76356147 42.16868135 -20.90159969 43.21293387 -22.0390625 44.2578125 C-22.53615723 44.7130127 -23.03325195 45.16821289 -23.54541016 45.63720703 C-24.26543213 46.31178955 -24.26543213 46.31178955 -25 47 C-25.834104 47.76546143 -25.834104 47.76546143 -26.68505859 48.54638672 C-28.22361603 49.92051193 -28.22361603 49.92051193 -28 52 C-22.30623568 54.27750573 -17.29997394 55.14426341 -11.4765625 53.125 C-2.56183593 49.0558155 1.6657327 42.79586907 6.80078125 34.72265625 C7.19652344 34.15417969 7.59226562 33.58570313 8 33 C8.33 33 8.66 33 9 33 C9.23413602 36.5196947 9.37497976 40.03737584 9.5 43.5625 C9.60054688 45.0484668 9.60054688 45.0484668 9.703125 46.56445312 C9.89571058 53.81048575 9.89571058 53.81048575 7.34838867 57.19335938 C-0.37491756 64.12599134 -9.25283601 67.33200547 -19.546875 67.14453125 C-28.11648598 66.63963379 -35.15484849 64.35960799 -42 59 C-42 58.34 -42 57.68 -42 57 C-42.99 56.67 -43.98 56.34 -45 56 C-53.13113923 46.70985651 -54.63849226 37.80893579 -54.3203125 25.85546875 C-53.90187931 20.81896188 -52.62371956 17.26239353 -50 13 C-49.484375 11.989375 -48.96875 10.97875 -48.4375 9.9375 C-36.50798353 -4.43909677 -16.74532676 -8.94582557 0 0 Z " fill="#F6F7F7" transform="translate(418,82)"></path><path d="M0 0 C4.29 0 8.58 0 13 0 C14.70396273 5.64242604 16.39821485 11.28765829 18.08398438 16.93554688 C18.70573385 19.01555737 19.32950047 21.09496577 19.95507812 23.17382812 C20.91388258 26.36403202 21.8639714 29.55672762 22.8125 32.75 C23.11422119 33.74837891 23.41594238 34.74675781 23.72680664 35.77539062 C25.33007625 41.20536227 26.48534248 46.35881882 27 52 C27.66 52 28.32 52 29 52 C29.09361816 51.45069824 29.18723633 50.90139648 29.28369141 50.33544922 C30.61537944 43.10146142 32.63227727 36.11447283 34.77636719 29.08740234 C35.37147695 27.13654904 35.95976385 25.18374239 36.546875 23.23046875 C38.8981792 15.44025193 41.39102983 7.70777945 44 0 C47.96 0 51.92 0 56 0 C61.39289452 16.45205611 65.85928868 33.19238362 70 50 C71.85711416 47.21432876 72.61256694 45.3560157 73.515625 42.1953125 C73.7945459 41.22867676 74.0734668 40.26204102 74.36083984 39.26611328 C74.6542627 38.2295459 74.94768555 37.19297852 75.25 36.125 C75.70753662 34.53341064 75.70753662 34.53341064 76.17431641 32.90966797 C77.12204471 29.60807898 78.0621808 26.30441625 79 23 C79.86119162 19.96845522 80.72240744 16.93691931 81.58496094 13.90576172 C82.10368773 12.07995883 82.62004118 10.25347965 83.13378906 8.42626953 C83.36549805 7.60755371 83.59720703 6.78883789 83.8359375 5.9453125 C84.03751465 5.22875488 84.2390918 4.51219727 84.44677734 3.77392578 C85 2 85 2 86 0 C90.29 0 94.58 0 99 0 C98.57074219 1.42054687 98.14148438 2.84109375 97.69921875 4.3046875 C96.59296658 7.99046856 95.51200003 11.68203834 94.45703125 15.3828125 C90.87599736 27.91262266 86.9763003 40.29287283 82.80078125 52.63671875 C80.74408522 58.72338392 78.84625256 64.84582479 77 71 C73.04 71 69.08 71 65 71 C62.88147059 64.75432251 60.92151564 58.48529555 59.08203125 52.15234375 C58.81992355 51.25504044 58.55781586 50.35773712 58.2877655 49.4332428 C57.46107612 46.60179268 56.63674805 43.76966165 55.8125 40.9375 C55.24820366 39.00320946 54.68375199 37.06896423 54.11914062 35.13476562 C52.74429877 30.42369859 51.37157237 25.7120199 50 21 C47.22602991 27.59136012 44.9505079 34.16810381 43.0625 41.0625 C42.55001162 42.89337829 42.03698211 44.72410519 41.5234375 46.5546875 C41.27045898 47.46186523 41.01748047 48.36904297 40.75683594 49.30371094 C39.59577032 53.44010085 38.39650208 57.56490578 37.1875 61.6875 C36.98068604 62.3997876 36.77387207 63.1120752 36.56079102 63.84594727 C35.11821626 68.76356748 35.11821626 68.76356748 34 71 C30.04 71 26.08 71 22 71 C21.71914551 70.09685059 21.43829102 69.19370117 21.14892578 68.26318359 C19.81133859 63.96595763 18.46894783 59.67024052 17.125 55.375 C16.88033997 54.59266998 16.63567993 53.81033997 16.38360596 53.00430298 C12.44344226 40.42171269 8.35478277 27.8965051 4.08642578 15.42138672 C3.69438965 14.26525879 3.30235352 13.10913086 2.8984375 11.91796875 C2.55474121 10.91531982 2.21104492 9.9126709 1.85693359 8.87963867 C1 6 1 6 0 0 Z " fill="#F5F6F7" transform="translate(206,78)"></path><path d="M0 0 C1.32608276 0.00858032 1.32608276 0.00858032 2.67895508 0.01733398 C9.52176883 0.2049035 14.55234161 1.35386006 20.125 5.5 C20.97964844 6.12390625 21.83429687 6.7478125 22.71484375 7.390625 C24.89790459 9.04558021 27.02585243 10.74056955 29.125 12.5 C28.691875 13.7375 28.25875 14.975 27.8125 16.25 C25.91447104 21.91697218 24.51109152 27.69021215 23.125 33.5 C19.86452306 32.41317435 19.42103011 31.86439499 17.4375 29.25 C13.39489615 24.45620325 9.554456 21.0205832 3.19140625 20.0546875 C-3.36082735 19.80928549 -7.71739188 20.39496496 -12.875 24.5 C-17.29738616 29.58054806 -19.36283339 34.16192403 -19.28515625 40.953125 C-18.30101852 47.06415166 -14.5179486 51.89525951 -10.1875 56.125 C-4.48161833 58.49347918 0.93352648 58.54836194 6.8125 56.6171875 C12.06558424 54.19884689 15.921254 51.17201172 19.75 46.85546875 C21.125 45.5 21.125 45.5 23.125 45.5 C23.93891255 48.08289592 24.75117929 50.66628997 25.5625 53.25 C25.79259766 53.97960937 26.02269531 54.70921875 26.25976562 55.4609375 C26.59331055 56.52441406 26.59331055 56.52441406 26.93359375 57.609375 C27.23994751 58.58342285 27.23994751 58.58342285 27.55249023 59.57714844 C28.13669727 61.53928688 28.64310648 63.51049584 29.125 65.5 C18.46519834 75.46459721 8.31477497 77.90658844 -5.9921875 77.734375 C-10.61587929 77.45527892 -13.76505955 76.55497022 -17.875 74.5 C-17.875 73.84 -17.875 73.18 -17.875 72.5 C-18.761875 72.273125 -19.64875 72.04625 -20.5625 71.8125 C-24.41410658 70.28639173 -26.13978941 68.58587862 -28.875 65.5 C-29.720625 64.5925 -30.56625 63.685 -31.4375 62.75 C-39.30029349 53.20055049 -39.85636521 41.31114476 -38.875 29.5 C-38.05928552 25.76635829 -36.82431238 22.77533365 -34.875 19.5 C-34.27365234 18.46359375 -34.27365234 18.46359375 -33.66015625 17.40625 C-25.89294297 5.69914592 -13.6821458 -0.10277546 0 0 Z " fill="#F8F9F9" transform="translate(595.875,74.5)"></path><path d="M0 0 C3.86645374 3.194027 6.18468034 6.31838613 8 11 C8 12.98 8 14.96 8 17 C3.71 17 -0.58 17 -5 17 C-5.33 15.35 -5.66 13.7 -6 12 C-8.18794895 9.72254405 -9.52764314 9.07085353 -12.65625 8.6015625 C-14.06390625 8.61316406 -14.06390625 8.61316406 -15.5 8.625 C-16.4384375 8.61726563 -17.376875 8.60953125 -18.34375 8.6015625 C-21.44064781 9.06609717 -22.81772014 9.7672044 -25 12 C-25.62723208 13.93425486 -25.62723208 13.93425486 -25.5 16 C-25.5103125 16.680625 -25.520625 17.36125 -25.53125 18.0625 C-25.12925756 20.09980922 -25.12925756 20.09980922 -23.546875 21.60546875 C-19.80566269 23.65395463 -15.88867579 24.37732036 -11.75 25.3125 C-4.78100259 27.00173508 0.89999123 28.68164223 6 34 C6.66 34.66 7.32 35.32 8 36 C10.34447631 43.21493678 9.25957326 49.47248015 5.97265625 56.15234375 C5.65167969 56.76207031 5.33070313 57.37179688 5 58 C4.505 58.99 4.505 58.99 4 60 C3.34 60 2.68 60 2 60 C2 60.66 2 61.32 2 62 C0.75264433 62.6509259 -0.49801832 63.29551669 -1.75 63.9375 C-2.44609375 64.29714844 -3.1421875 64.65679687 -3.859375 65.02734375 C-10.91756576 68.23444138 -18.48458492 67.75688217 -25.75 65.4375 C-31.77118418 63.04435608 -34.96442957 59.52924838 -38.14453125 54.015625 C-39.41589093 51.02009259 -39.12342723 48.20910789 -39 45 C-34.71 45 -30.42 45 -26 45 C-25.67 47.64 -25.34 50.28 -25 53 C-19.20375904 54.44906024 -14.07673821 54.86845416 -8.5625 52.5625 C-6.15246512 51.23099846 -6.15246512 51.23099846 -5 50 C-4.92851801 48.64756083 -4.91600546 47.29165633 -4.9375 45.9375 C-4.958125 44.638125 -4.97875 43.33875 -5 42 C-9.82524566 39.25623286 -14.04661051 37.66714467 -19.5 36.5625 C-26.99760126 34.9310775 -32.41159316 32.63430497 -37 26.3125 C-39.61299976 21.60910042 -39.88694325 17.25472042 -39 12 C-37.13270609 5.80497784 -33.39312597 1.48831977 -28 -2 C-18.93567462 -5.91010115 -8.33031246 -5.25134687 0 0 Z " fill="#F4F5F6" transform="translate(348,82)"></path><path d="M0 0 C5.89102146 3.37989918 11.2229538 7.34147728 13.30078125 14.10546875 C14.58447535 20.4123137 14.98752681 27.11320039 11.5625 32.75 C7.58178601 38.12452141 3.48521974 42.75364172 -3.25 44.3125 C-10.56482978 45.17251229 -16.99754792 45.08342207 -23.30859375 41.00390625 C-29.03909429 36.01133736 -31.74594339 30.37785576 -32.48828125 22.91796875 C-32.67458876 16.8482661 -32.04825191 12.19163743 -28.25 7.3125 C-20.28548228 -0.22110165 -10.72095409 -5.08267881 0 0 Z " fill="#070D2C" transform="translate(177.25,91.6875)"></path><path d="M0 0 C4.599375 -0.061875 9.19875 -0.12375 13.9375 -0.1875 C15.36956787 -0.21481201 16.80163574 -0.24212402 18.27709961 -0.27026367 C26.76349084 -0.32531245 33.56326416 0.29937818 40.875 4.75 C44.50795216 8.59665523 46.14094326 12.7489879 46.375 18 C46.15811153 23.08702051 44.34406716 27.13898393 41.375 31.25 C33.39127798 37.13274254 23.92151713 36.36201456 14.4375 36.1875 C9.673125 36.125625 4.90875 36.06375 0 36 C0 24.12 0 12.24 0 0 Z " fill="#0C122F" transform="translate(22,102)"></path><path d="M0 0 C4.929375 -0.103125 9.85875 -0.20625 14.9375 -0.3125 C17.2422229 -0.38078003 17.2422229 -0.38078003 19.59350586 -0.45043945 C27.45278629 -0.52982612 33.63587414 -0.11472098 40 5 C43.12048737 8.21504759 43.21705844 11.11458107 43.375 15.4375 C43.22771289 20.00340033 42.76243334 23.22467444 40 27 C34.51402407 31.22877311 30.75494138 32.12553037 23.92578125 32.09765625 C22.67450439 32.09515869 21.42322754 32.09266113 20.1340332 32.09008789 C17.74737427 32.07643188 17.74737427 32.07643188 15.3125 32.0625 C10.259375 32.041875 5.20625 32.02125 0 32 C0 21.44 0 10.88 0 0 Z " fill="#0B112E" transform="translate(22,59)"></path><path d="M0 0 C5.17509816 3.81971531 9.96148083 8.88620506 11.03125 15.41796875 C11.28854552 22.84737689 9.66956625 27.43537672 4.625 32.9375 C-0.36170758 37.25452982 -5.29051268 38.35104586 -11.73828125 38.28515625 C-17.27535059 37.5550834 -21.00289276 34.38182342 -24.75 30.4375 C-28.43491541 24.76839937 -29.34720723 19.64061304 -28.375 12.9375 C-26.32665806 7.53559359 -22.46126511 3.28208595 -17.75390625 0.00390625 C-12.05509283 -2.55073425 -5.8149697 -1.83063861 0 0 Z " fill="#070D2C" transform="translate(677.375,95.0625)"></path><path d="M0 0 C0 3.96 0 7.92 0 12 C-2.289375 12.1546875 -2.289375 12.1546875 -4.625 12.3125 C-10.37056096 12.90490953 -14.203902 14.15535881 -18.3125 18.375 C-20.83527048 22.29930963 -21.11478821 26.10711637 -21.20532227 30.69848633 C-21.22526749 31.59904251 -21.24521271 32.49959869 -21.26576233 33.42744446 C-21.29083107 34.86521492 -21.29083107 34.86521492 -21.31640625 36.33203125 C-21.33718735 37.32377853 -21.35796844 38.31552582 -21.37937927 39.33732605 C-21.44460052 42.49564899 -21.50363202 45.65405288 -21.5625 48.8125 C-21.60571131 50.95769056 -21.64932643 53.10287302 -21.69335938 55.24804688 C-21.80025377 60.4986156 -21.90159817 65.74926552 -22 71 C-26.29 71 -30.58 71 -35 71 C-35 47.9 -35 24.8 -35 1 C-30.71 1 -26.42 1 -22 1 C-21.67 1.99 -21.34 2.98 -21 4 C-20.32195312 3.71125 -19.64390625 3.4225 -18.9453125 3.125 C-12.28064618 0.46651814 -7.16248643 -0.4152166 0 0 Z " fill="#F1F2F3" transform="translate(128,78)"></path><path d="M0 0 C25.41 0 50.82 0 77 0 C77 4.95 77 9.9 77 15 C51.59 15 26.18 15 0 15 C0 10.05 0 5.1 0 0 Z " fill="#31E2D5" transform="translate(633,48)"></path><path d="M0 0 C0 3.96 0 7.92 0 12 C-0.89203125 12.13277344 -1.7840625 12.26554687 -2.703125 12.40234375 C-3.87359375 12.57894531 -5.0440625 12.75554687 -6.25 12.9375 C-7.41015625 13.11152344 -8.5703125 13.28554687 -9.765625 13.46484375 C-10.83296875 13.64144531 -11.9003125 13.81804687 -13 14 C-13.77859375 14.12503906 -14.5571875 14.25007813 -15.359375 14.37890625 C-15.90078125 14.58386719 -16.4421875 14.78882812 -17 15 C-17.33 15.99 -17.66 16.98 -18 18 C-18.66 18 -19.32 18 -20 18 C-21.81341895 24.23561605 -22.3328487 29.92982108 -22.4140625 36.40625 C-22.43342865 37.3715564 -22.4527948 38.33686279 -22.4727478 39.3314209 C-22.53210018 42.38752657 -22.57875038 45.44367082 -22.625 48.5 C-22.66322064 50.58334895 -22.7022747 52.66668278 -22.7421875 54.75 C-22.83776489 59.8332093 -22.92195813 64.91649247 -23 70 C-26.96 70 -30.92 70 -35 70 C-35 47.56 -35 25.12 -35 2 C-31.04 2 -27.08 2 -23 2 C-23 2.99 -23 3.98 -23 5 C-22.01 5 -21.02 5 -20 5 C-20 4.34 -20 3.68 -20 3 C-13.09240626 -0.18812019 -7.59659062 -0.25897468 0 0 Z " fill="#FBFCFC" transform="translate(473,78)"></path><path d="M0 0 C3.1875 1.6875 3.1875 1.6875 5 4 C5 5.65 5 7.3 5 9 C9.29 9 13.58 9 18 9 C18 8.34 18 7.68 18 7 C18.66 7 19.32 7 20 7 C20 8.65 20 10.3 20 12 C20.99 11.67 21.98 11.34 23 11 C25.1875 11.4375 25.1875 11.4375 27 12 C26.98839844 13.21816406 26.97679687 14.43632813 26.96484375 15.69140625 C26.95545822 17.31510262 26.94635884 18.93880067 26.9375 20.5625 C26.92493164 21.76229492 26.92493164 21.76229492 26.91210938 22.98632812 C26.89690732 26.71083091 26.97173828 30.28324769 27.56640625 33.96484375 C28 37 28 37 27 39 C26.34 39 25.68 39 25 39 C25.33 39.99 25.66 40.98 26 42 C25.34 42 24.68 42 24 42 C23.34 41.34 22.68 40.68 22 40 C21.01 40.495 21.01 40.495 20 41 C19.85304688 40.11957031 19.70609375 39.23914063 19.5546875 38.33203125 C18.40911024 30.83356768 18.40911024 30.83356768 14.1875 24.875 C7.77608784 21.10358108 2.03889854 19.11877843 -5.16601562 17.62695312 C-9.6824523 16.60185496 -12.76475503 15.35896371 -16 12 C-16.9214773 9.22472719 -16.68899872 6.82547375 -16 4 C-12.13580111 -1.3299295 -6.00499885 -0.89129668 0 0 Z M19 12 C20 14 20 14 20 14 Z " fill="#0E1431" transform="translate(338,90)"></path><path d="M0 0 C-1.47238474 3.53529812 -3.41000759 5.47404006 -6.3125 7.9375 C-10.68829274 11.7251862 -14.77916031 15.49742808 -18.4375 20 C-20.34236446 22.23008522 -21.95183772 23.88052054 -24.1875 25.6875 C-27.12754755 27.87671725 -27.12754755 27.87671725 -29 31 C-30.875 30.8125 -30.875 30.8125 -33 30 C-35.97354946 24.01087212 -36.07483368 17.64191217 -34.1953125 11.2734375 C-31.37228455 4.8291461 -27.38230565 0.96165211 -21 -2 C-13.68353544 -3.88401852 -6.5328222 -4.12599297 0 0 Z " fill="#0B102E" transform="translate(411,93)"></path><path d="M0 0 C13.71050731 -0.10958665 27.32013093 0.04360466 41 1 C37.55108349 3.13700808 35.11853689 3.08178429 31.125 2.8125 C25.82011506 2.69259862 25.82011506 2.69259862 21.5 5.4375 C20.675 6.283125 19.85 7.12875 19 8 C16.625 8.8125 16.625 8.8125 15 9 C17.64 9.33 20.28 9.66 23 10 C23 9.34 23 8.68 23 8 C26.58282235 5.61145176 28.31393033 5.73101198 32.5625 5.75 C33.71878906 5.74484375 34.87507812 5.7396875 36.06640625 5.734375 C39.79355859 6.07185351 40.42751278 7.42751278 43 10 C42.01 10.99 41.02 11.98 40 13 C51.88 13.33 63.76 13.66 76 14 C76 9.38 76 4.76 76 0 C76.33 0 76.66 0 77 0 C77 4.95 77 9.9 77 15 C51.59 15 26.18 15 0 15 C0 10.05 0 5.1 0 0 Z " fill="#2AA9C0" transform="translate(633,48)"></path><path d="M0 0 C6.75553345 0.27686612 13.92252051 0.92252051 19 6 C19.28802691 8.92827359 19.50415371 11.15236258 19 14 C15.36164322 17.83502471 12.38252076 18.93310383 7.125 19.1875 C3.68990504 19.15581093 1.10842518 18.55421259 -2 17 C-2.33 14.36 -2.66 11.72 -3 9 C-6.96 9 -10.92 9 -15 9 C-15 8.67 -15 8.34 -15 8 C-10.05 7.67 -5.1 7.34 0 7 C0 6.34 0 5.68 0 5 C-0.99 4.67 -1.98 4.34 -3 4 C-2.01 4 -1.02 4 0 4 C0 2.68 0 1.36 0 0 Z " fill="#111631" transform="translate(325,118)"></path><path d="M0 0 C2 1 2 1 3.125 3.75 C4.62986497 9.35797335 4.15571896 15.24704949 4 21 C3.34 21 2.68 21 2 21 C1.8453125 22.8871875 1.8453125 22.8871875 1.6875 24.8125 C1.35672815 27.44935727 1.18061612 28.74549547 -0.375 30.9375 C-2 32 -2 32 -5 33 C-7.57996518 27.12905562 -7.22552426 21.40390015 -7.125 15.125 C-7.11597656 14.05507812 -7.10695313 12.98515625 -7.09765625 11.8828125 C-7.07419342 9.25497561 -7.04136459 6.62760594 -7 4 C-7.99 3.67 -8.98 3.34 -10 3 C-8.68 2.67 -7.36 2.34 -6 2 C-6 2.99 -6 3.98 -6 5 C-5.01 5 -4.02 5 -3 5 C-3 4.34 -3 3.68 -3 3 C-2.01 3 -1.02 3 0 3 C0 2.01 0 1.02 0 0 Z " fill="#161A37" transform="translate(553,97)"></path><path d="M0 0 C0.33 0.99 0.66 1.98 1 3 C1.99 3.33 2.98 3.66 4 4 C4 5.32 4 6.64 4 8 C4.66 8 5.32 8 6 8 C5.67 10.31 5.34 12.62 5 15 C4.01 15 3.02 15 2 15 C2 15.66 2 16.32 2 17 C-7.64949076 16.66201433 -7.64949076 16.66201433 -12.1875 14.4375 C-14.40889589 11.45010552 -14.73954361 9.57424044 -14.47265625 5.90625 C-14 4 -14 4 -12.0625 1.5 C-7.94895266 -0.5147987 -4.49692378 -0.3526999 0 0 Z " fill="#0B102E" transform="translate(336,90)"></path><path d="M0 0 C2.41157982 2.41157982 2.78700254 4.11143445 3.7265625 7.375 C4.0359375 8.44234375 4.3453125 9.5096875 4.6640625 10.609375 C4.98117187 11.72828125 5.29828125 12.8471875 5.625 14 C5.94984375 15.11890625 6.2746875 16.2378125 6.609375 17.390625 C9 25.70758929 9 25.70758929 9 28 C7.35 27.67 5.7 27.34 4 27 C3.67 28.32 3.34 29.64 3 31 C3 30.34 3 29.68 3 29 C2.34 29 1.68 29 1 29 C0.67 29.66 0.34 30.32 0 31 C-0.66 29.35 -1.32 27.7 -2 26 C-4.33075929 26.95865509 -4.33075929 26.95865509 -6 30 C-6 29.34 -6 28.68 -6 28 C-6.66 28 -7.32 28 -8 28 C-5.73529777 18.50752471 -3.27787201 9.2059384 0 0 Z " fill="#060C2F" transform="translate(255,97)"></path><path d="M0 0 C7.26 0 14.52 0 22 0 C20 4 20 4 13 7 C18.61 7.33 24.22 7.66 30 8 C30 8.99 30 9.98 30 11 C25.93751511 11.02909769 21.87505714 11.04683174 17.8125 11.0625 C16.08676758 11.07506836 16.08676758 11.07506836 14.32617188 11.08789062 C13.21435547 11.09111328 12.10253906 11.09433594 10.95703125 11.09765625 C9.93585205 11.10289307 8.91467285 11.10812988 7.86254883 11.11352539 C5.13098384 11.00519467 2.65830626 10.61706868 0 10 C0 6.7 0 3.4 0 0 Z " fill="#0AC1F5" transform="translate(635,50)"></path><path d="M0 0 C0.33 0.99 0.66 1.98 1 3 C1.66 3 2.32 3 3 3 C3.24234375 3.72445312 3.4846875 4.44890625 3.734375 5.1953125 C5.63197065 10.66914611 7.49800176 15.37235947 11 20 C10.67 20.66 10.34 21.32 10 22 C9.67 22 9.34 22 9 22 C8.67 22.66 8.34 23.32 8 24 C7.01 22.68 6.02 21.36 5 20 C3.35 20.33 1.7 20.66 0 21 C1.32 21 2.64 21 4 21 C4.33 22.32 4.66 23.64 5 25 C4.34 25 3.68 25 3 25 C2.67 25.33 2.34 25.66 2 26 C-1 25 -1 25 -2.60546875 21.83984375 C-3.14390274 20.54361378 -3.67083429 19.24255932 -4.1875 17.9375 C-4.59645508 16.94266602 -4.59645508 16.94266602 -5.01367188 15.92773438 C-5.6856086 14.28915183 -6.34409628 12.64506597 -7 11 C-6.34 10.67 -5.68 10.34 -5 10 C-5.33 8.02 -5.66 6.04 -6 4 C-4.68 4 -3.36 4 -2 4 C-1.34 2.68 -0.68 1.36 0 0 Z " fill="#0D122D" transform="translate(627,117)"></path><path d="M0 0 C2 2 2 2 2 6 C2.66 6.33 3.32 6.66 4 7 C4 7.66 4 8.32 4 9 C4.66 9 5.32 9 6 9 C7.38232443 7.37373596 8.71937515 5.7074998 10 4 C10.5775 4.309375 11.155 4.61875 11.75 4.9375 C13.84904107 5.92871384 15.75074138 6.47548801 18 7 C11.48527759 11.85410689 6.48404582 15.10452672 -2 14 C-4.48866258 13.18766297 -6.64736596 12.17631702 -9 11 C-7.59155282 7.78475695 -5.89655214 5.67816132 -3.375 3.25 C-2.74335938 2.63640625 -2.11171875 2.0228125 -1.4609375 1.390625 C-0.73777344 0.70226562 -0.73777344 0.70226562 0 0 Z " fill="#020623" transform="translate(398,123)"></path><path d="M0 0 C17.49 0 34.98 0 53 0 C53 4.62 53 9.24 53 14 C46.07 14 39.14 14 32 14 C32 13.67 32 13.34 32 13 C39.92 12.505 39.92 12.505 48 12 C48 11.67 48 11.34 48 11 C46.865625 10.87625 45.73125 10.7525 44.5625 10.625 C43.386875 10.41875 42.21125 10.2125 41 10 C40.505 9.01 40.505 9.01 40 8 C42.97 8 45.94 8 49 8 C48.34 6.02 47.68 4.04 47 2 C23.735 1.505 23.735 1.505 0 1 C0 0.67 0 0.34 0 0 Z " fill="#58DACD" transform="translate(656,48)"></path><path d="M0 0 C1.32 0 2.64 0 4 0 C4.03867187 1.16015625 4.03867187 1.16015625 4.078125 2.34375 C4.45879135 9.33416848 5.61653048 13.90975486 9 20 C8.67 20.66 8.34 21.32 8 22 C6.35 21.01 4.7 20.02 3 19 C3 19.66 3 20.32 3 21 C2.01 21 1.02 21 0 21 C-0.33 20.01 -0.66 19.02 -1 18 C-1.33 17.34 -1.66 16.68 -2 16 C-1.34 16 -0.68 16 0 16 C0 15.34 0 14.68 0 14 C-1.65 14.66 -3.3 15.32 -5 16 C-5.08090971 14.37581255 -5.13914995 12.75048255 -5.1875 11.125 C-5.22230469 10.22007813 -5.25710938 9.31515625 -5.29296875 8.3828125 C-5.19628906 7.59648438 -5.09960938 6.81015625 -5 6 C-4.01 5.34 -3.02 4.68 -2 4 C-1.67 3.34 -1.34 2.68 -1 2 C-0.67 2.99 -0.34 3.98 0 5 C0.66 3.68 1.32 2.36 2 1 C1.34 0.67 0.68 0.34 0 0 Z " fill="#0F122D" transform="translate(478,74)"></path><path d="M0 0 C4.43458973 1.3937282 6.87378374 3.60582235 10 7 C9.67 7.99 9.34 8.98 9 10 C8.67 10 8.34 10 8 10 C7.67 12.31 7.34 14.62 7 17 C6.34 15.68 5.68 14.36 5 13 C3.35 14.32 1.7 15.64 0 17 C-0.20625 16.4225 -0.4125 15.845 -0.625 15.25 C-2.49750888 12.18589456 -4.96958519 10.84460032 -8 9 C-6.68 7.35 -5.36 5.7 -4 4 C-3.01 4.33 -2.02 4.66 -1 5 C-0.67 3.35 -0.34 1.7 0 0 Z " fill="#F2F2F3" transform="translate(64,52)"></path><path d="M0 0 C2.49551158 2.49551158 3.07575992 4.66076626 4.1875 8 C4.55230469 9.0725 4.91710937 10.145 5.29296875 11.25 C6 14 6 14 5 16 C4.34 15.67 3.68 15.34 3 15 C3.55839552 16.67518656 4.12998564 18.34662837 4.75 20 C4.87375 20.99 4.87375 20.99 5 22 C3.5625 23.75 3.5625 23.75 2 25 C1.34 24.01 0.68 23.02 0 22 C-1.77401632 26.62974991 -2.39641621 30.96044843 -2.625 35.875 C-2.68300781 36.90753906 -2.68300781 36.90753906 -2.7421875 37.9609375 C-2.83548166 39.64023246 -2.91878238 41.32007767 -3 43 C-3.99 43 -4.98 43 -6 43 C-5.83757812 42.36449219 -5.67515625 41.72898438 -5.5078125 41.07421875 C-4.82974597 36.96930832 -4.85511488 32.96517625 -4.875 28.8125 C-4.87113281 27.99330078 -4.86726562 27.17410156 -4.86328125 26.33007812 C-4.74771003 22.02981227 -4.74771003 22.02981227 -6 18 C-6.039992 16.00039988 -6.04346799 13.99952758 -6 12 C-5.34 12 -4.68 12 -4 12 C-4.33 13.65 -4.66 15.3 -5 17 C-4.01 17 -3.02 17 -2 17 C-2 15.35 -2 13.7 -2 12 C-1.34 12 -0.68 12 0 12 C1.53166168 7.91556885 0.63081652 4.20544343 0 0 Z " fill="#101531" transform="translate(207,84)"></path><path d="M0 0 C0.66 0 1.32 0 2 0 C2.08692074 4.27070558 2.14036515 8.54118458 2.1875 12.8125 C2.21263672 14.02744141 2.23777344 15.24238281 2.26367188 16.49414062 C2.27817383 18.23920898 2.27817383 18.23920898 2.29296875 20.01953125 C2.31653442 21.62985229 2.31653442 21.62985229 2.34057617 23.27270508 C1.95186082 26.38549305 1.35440059 27.05968997 -1 29 C-2.2122949 31.48901793 -2.2122949 31.48901793 -3.1875 34.1875 C-3.53167969 35.08855469 -3.87585938 35.98960938 -4.23046875 36.91796875 C-4.48441406 37.60503906 -4.73835938 38.29210937 -5 39 C-7.64 37.35 -10.28 35.7 -13 34 C-10.83945635 31.83945635 -8.67905514 29.70253891 -6.4375 27.625 C-2.02998416 22.87844448 -0.66364163 18.85715055 -0.78515625 12.52734375 C-0.81480469 11.77582031 -0.84445313 11.02429688 -0.875 10.25 C-1.10472973 2.20945946 -1.10472973 2.20945946 0 0 Z " fill="#141830" transform="translate(78,63)"></path><path d="M0 0 C5.32697239 1.45281065 8.36402802 5.08111378 12 9 C11.67 9.66 11.34 10.32 11 11 C10.34 10.67 9.68 10.34 9 10 C9 10.66 9 11.32 9 12 C8.01 12.33 7.02 12.66 6 13 C5.34 12.34 4.68 11.68 4 11 C3.01 11.99 2.02 12.98 1 14 C-0.98 12.35 -2.96 10.7 -5 9 C-4.34 8.34 -3.68 7.68 -3 7 C-2.34 7 -1.68 7 -1 7 C-0.67 4.69 -0.34 2.38 0 0 Z " fill="#ECEEF1" transform="translate(65,97)"></path><path d="M0 0 C0.33 1.32 0.66 2.64 1 4 C1.66 4 2.32 4 3 4 C3.33 3.34 3.66 2.68 4 2 C5.32 2.33 6.64 2.66 8 3 C9.56393356 6.97376829 8.36145292 9.81377903 7.0625 13.75 C6.68222656 14.92046875 6.30195313 16.0909375 5.91015625 17.296875 C5.60980469 18.18890625 5.30945313 19.0809375 5 20 C4.34 20 3.68 20 3 20 C2.2967347 17.7966366 1.61301598 15.5870286 0.9375 13.375 C0.55464844 12.14523438 0.17179688 10.91546875 -0.22265625 9.6484375 C-1.0060989 5.97137502 -0.88490125 3.61752083 0 0 Z " fill="#111531" transform="translate(230,110)"></path><path d="M0 0 C2.5843218 2.5843218 3.10401163 4.89375577 4.1875 8.375 C4.55230469 9.51710938 4.91710937 10.65921875 5.29296875 11.8359375 C5.95860385 14.81474653 6.07938697 16.20871903 5 19 C4.67 18.01 4.34 17.02 4 16 C3.67 16.66 3.34 17.32 3 18 C2.34 18 1.68 18 1 18 C0.34 17.34 -0.32 16.68 -1 16 C-1.33 16.99 -1.66 17.98 -2 19 C-2.99 19 -3.98 19 -5 19 C-3.83795007 12.45150687 -2.26616615 6.25461856 0 0 Z " fill="#1E2239" transform="translate(255,97)"></path><path d="M0 0 C0.66 0.33 1.32 0.66 2 1 C2.66666667 3 3.33333333 5 4 7 C4.33 6.34 4.66 5.68 5 5 C5.66 5 6.32 5 7 5 C7 4.34 7 3.68 7 3 C7.66 3 8.32 3 9 3 C9.25 10.625 9.25 10.625 7 14 C7 12.35 7 10.7 7 9 C6.34 9 5.68 9 5 9 C5.061875 9.763125 5.12375 10.52625 5.1875 11.3125 C5 14 5 14 3.6875 15.75 C2 17 2 17 -1 18 C-1.02698422 15.56242587 -1.04683099 13.12515085 -1.0625 10.6875 C-1.07087891 9.99720703 -1.07925781 9.30691406 -1.08789062 8.59570312 C-1.10307906 5.4516975 -1.00193327 3.00579981 0 0 Z " fill="#070C25" transform="translate(547,103)"></path><path d="M0 0 C0.7425 0.309375 1.485 0.61875 2.25 0.9375 C6.59425451 2.16837211 10.70251028 2.47382062 15.1953125 2.75390625 C17.58728827 2.96378713 19.70113242 3.33453833 22 4 C22.33 3.34 22.66 2.68 23 2 C23 2.66 23 3.32 23 4 C23.66 4.33 24.32 4.66 25 5 C19.10525092 7.7181343 13.38365262 7.77445962 7 7 C3.69995165 5.70080401 0.86914473 4.07586699 -2 2 C-1.34 1.34 -0.68 0.68 0 0 Z " fill="#0D112C" transform="translate(154,129)"></path><path d="M0 0 C6.875 0.875 6.875 0.875 8 2 C8.66 1.34 9.32 0.68 10 0 C10 0.66 10 1.32 10 2 C10.66 2 11.32 2 12 2 C12.33 1.34 12.66 0.68 13 0 C13.66 0.33 14.32 0.66 15 1 C15 1.66 15 2.32 15 3 C15.66 3 16.32 3 17 3 C16.67 3.66 16.34 4.32 16 5 C15.34 4.67 14.68 4.34 14 4 C14 4.66 14 5.32 14 6 C14.66 6.33 15.32 6.66 16 7 C15.01 8.485 15.01 8.485 14 10 C14 9.34 14 8.68 14 8 C13.34 8 12.68 8 12 8 C10.99983813 10.00032373 10.50603992 11.83125748 10 14 C8.68 14 7.36 14 6 14 C6.66 11.69 7.32 9.38 8 7 C7.13375 6.36771484 7.13375 6.36771484 6.25 5.72265625 C5.5075 5.17480469 4.765 4.62695312 4 4.0625 C3.2575 3.51722656 2.515 2.97195312 1.75 2.41015625 C1.1725 1.94480469 0.595 1.47945313 0 1 C0 0.67 0 0.34 0 0 Z " fill="#171C3B" transform="translate(616,80)"></path><path d="M0 0 C-0.58344454 3.55585792 -1.89700413 5.24563086 -4.375 7.8125 C-7.63252432 11.37771656 -9.39439712 14.46653306 -11 19 C-12.9375 18.3125 -12.9375 18.3125 -15 17 C-15.75 14.375 -15.75 14.375 -16 12 C-15.195625 11.731875 -14.39125 11.46375 -13.5625 11.1875 C-12.716875 10.795625 -11.87125 10.40375 -11 10 C-10.67 9.01 -10.34 8.02 -10 7 C-9.01 7 -8.02 7 -7 7 C-7 6.34 -7 5.68 -7 5 C-7.66 5 -8.32 5 -9 5 C-9 4.34 -9 3.68 -9 3 C-8.34 3 -7.68 3 -7 3 C-7 2.34 -7 1.68 -7 1 C-2.25 0 -2.25 0 0 0 Z " fill="#11152D" transform="translate(643,81)"></path><path d="M0 0 C0.66 0.33 1.32 0.66 2 1 C1.98839844 1.84304687 1.97679687 2.68609375 1.96484375 3.5546875 C1.95582031 4.65039062 1.94679688 5.74609375 1.9375 6.875 C1.92589844 7.96554688 1.91429687 9.05609375 1.90234375 10.1796875 C1.80255697 12.95177546 1.80255697 12.95177546 3 15 C2.72057545 16.67654729 2.39171753 18.34608154 2 20 C2.66 20 3.32 20 4 20 C3.67 20.66 3.34 21.32 3 22 C0 21 0 21 -1.6875 18.5 C-3.83559422 12.77174875 -3.8792421 8.08819999 -1.5 2.4375 C-1.005 1.633125 -0.51 0.82875 0 0 Z " fill="#1A1D35" transform="translate(579,103)"></path><path d="M0 0 C2 1 2 1 3.1875 4.3125 C3.90649268 7.57562063 4.20286847 8.99282882 3 12 C3 11.01 3 10.02 3 9 C2.34 9 1.68 9 1 9 C1 9.66 1 10.32 1 11 C0.34 11 -0.32 11 -1 11 C-1.66 12.32 -2.32 13.64 -3 15 C-4.64826111 12.03312999 -5.44271087 9.34373475 -6 6 C-6.33 6.99 -6.66 7.98 -7 9 C-7 7.35 -7 5.7 -7 4 C-7.99 3.67 -8.98 3.34 -10 3 C-8.68 2.67 -7.36 2.34 -6 2 C-6 2.99 -6 3.98 -6 5 C-5.01 5 -4.02 5 -3 5 C-3 4.34 -3 3.68 -3 3 C-2.01 3 -1.02 3 0 3 C0 2.01 0 1.02 0 0 Z " fill="#0F1532" transform="translate(553,97)"></path><path d="M0 0 C0 0.66 0 1.32 0 2 C0.66 2 1.32 2 2 2 C2 2.66 2 3.32 2 4 C2.99 4 3.98 4 5 4 C7.1875 6.5 7.1875 6.5 9 9 C8.01 9.495 8.01 9.495 7 10 C5.09538796 9.30554915 3.22414553 8.51844514 1.375 7.6875 C-3.40539393 5.61407613 -7.91037038 4.07665242 -13 3 C-8.16353702 -0.22430866 -5.73060016 -0.09242903 0 0 Z " fill="#22253A" transform="translate(535,89)"></path><path d="M0 0 C13.156712 -0.57480781 13.156712 -0.57480781 18 3 C20.14198834 5.23123786 22.10952234 7.55310516 24 10 C23.34 11.32 22.68 12.64 22 14 C21.608125 13.195625 21.21625 12.39125 20.8125 11.5625 C19.23051809 8.76935262 19.23051809 8.76935262 16.3125 8.1875 C15.549375 8.125625 14.78625 8.06375 14 8 C14.66 7.67 15.32 7.34 16 7 C16 6.34 16 5.68 16 5 C15.01 5.33 14.02 5.66 13 6 C12.67 4.68 12.34 3.36 12 2 C10.046875 2.06510417 8.09375 2.13020833 6.140625 2.1953125 C3.69844025 1.97248542 2.11363229 1.20915 0 0 Z " fill="#17182E" transform="translate(662,94)"></path><path d="M0 0 C1.11375 0.4640625 1.11375 0.4640625 2.25 0.9375 C4.5123958 1.81160747 6.64974079 2.44256673 9 3 C2.05851903 8.17208386 -2.27694714 10.29569671 -11 10 C-10.01 9.67 -9.02 9.34 -8 9 C-7.67 8.01 -7.34 7.02 -7 6 C-5.35 6 -3.7 6 -2 6 C-1.855625 5.38125 -1.71125 4.7625 -1.5625 4.125 C-1 2 -1 2 0 0 Z " fill="#10142E" transform="translate(407,127)"></path><path d="M0 0 C0.66 0 1.32 0 2 0 C2 0.99 2 1.98 2 3 C0.37946188 4.38903267 -1.29705213 5.71332828 -3 7 C-5.53939051 9.4155178 -7.84311718 11.79899388 -10 14.5625 C-12.11966634 17.14584335 -14.27925017 19.06683565 -17 21 C-17.66 21 -18.32 21 -19 21 C-17.67626179 17.42590682 -15.51934185 15.67883603 -12.578125 13.3515625 C-10.05318641 11.18911509 -8.0913782 8.57400394 -6 6 C-4.35216394 4.31471312 -2.68997323 2.64302953 -1 1 C-0.67 0.67 -0.34 0.34 0 0 Z " fill="#D3D5DD" transform="translate(402,102)"></path><path d="M0 0 C2.475 0.99 2.475 0.99 5 2 C3.4169423 6.2742558 0.49431596 8.26531794 -3 11 C-3.66 10.67 -4.32 10.34 -5 10 C-4.67 8.02 -4.34 6.04 -4 4 C-4.99 3.34 -5.98 2.68 -7 2 C-4.69 2 -2.38 2 0 2 C0 1.34 0 0.68 0 0 Z " fill="#14172F" transform="translate(406,91)"></path><path d="M0 0 C0.66 1.32 1.32 2.64 2 4 C0.68 4 -0.64 4 -2 4 C-1.67 6.31 -1.34 8.62 -1 11 C-5.10157543 13.05078772 -10.63700461 10.92548387 -15 10 C-13.66666667 9.33333333 -12.33333333 8.66666667 -11 8 C-9.96875 7.46375 -8.9375 6.9275 -7.875 6.375 C-5 5 -5 5 -3 5 C-3 4.34 -3 3.68 -3 3 C-2.34 3 -1.68 3 -1 3 C-0.67 2.01 -0.34 1.02 0 0 Z " fill="#1E203A" transform="translate(353,139)"></path><path d="M0 0 C0.33 0 0.66 0 1 0 C1.36237306 12.44147515 1.36237306 12.44147515 -1 18 C-1.34976758 19.32911682 -1.69096017 20.66082739 -2 22 C-3.32 21.67 -4.64 21.34 -6 21 C-5.81824219 20.40574219 -5.63648438 19.81148437 -5.44921875 19.19921875 C-3.51738847 12.82913223 -1.72347474 6.42941642 0 0 Z " fill="#21253C" transform="translate(302,85)"></path><path d="M0 0 C0.99 0.33 1.98 0.66 3 1 C2.34 3.64 1.68 6.28 1 9 C-0.98 9 -2.96 9 -5 9 C-5 8.34 -5 7.68 -5 7 C-6.32 6.34 -7.64 5.68 -9 5 C-8.43410156 4.72285156 -7.86820312 4.44570312 -7.28515625 4.16015625 C-6.55167969 3.79792969 -5.81820313 3.43570313 -5.0625 3.0625 C-3.96615234 2.52302734 -3.96615234 2.52302734 -2.84765625 1.97265625 C-1.03750973 1.13628173 -1.03750973 1.13628173 0 0 Z " fill="#0E122F" transform="translate(421,141)"></path><path d="M0 0 C4.00695297 1.36649195 6.6767174 3.17103527 9.8125 6 C10.60269531 6.70125 11.39289062 7.4025 12.20703125 8.125 C14 10 14 10 14 12 C13.01 12.33 12.02 12.66 11 13 C10.67 11.35 10.34 9.7 10 8 C8.865625 7.855625 7.73125 7.71125 6.5625 7.5625 C3 7 3 7 2 6 C1.01 6 0.02 6 -1 6 C-0.67 4.02 -0.34 2.04 0 0 Z " fill="#11172B" transform="translate(602,95)"></path><path d="M0 0 C2 3 2 3 1.625 6.1875 C1.41875 7.115625 1.2125 8.04375 1 9 C0.34 9 -0.32 9 -1 9 C-0.67 9.99 -0.34 10.98 0 12 C-0.66 12 -1.32 12 -2 12 C-2.66 11.34 -3.32 10.68 -4 10 C-4.99 10.495 -4.99 10.495 -6 11 C-6.66 7.7 -7.32 4.4 -8 1 C-7.34 1 -6.68 1 -6 1 C-6 1.99 -6 2.98 -6 4 C-4.68 4.33 -3.36 4.66 -2 5 C-1.34 3.35 -0.68 1.7 0 0 Z " fill="#0C102D" transform="translate(364,120)"></path><path d="M0 0 C0.99 0.66 1.98 1.32 3 2 C2.4375 3.875 2.4375 3.875 1 6 C-3.57180875 7.70322287 -8.17019236 8.40859498 -13 9 C-12 6 -12 6 -10.0390625 4.90234375 C-9.24242187 4.58394531 -8.44578125 4.26554688 -7.625 3.9375 C-4.78250709 2.78476265 -2.57934445 1.71956297 0 0 Z " fill="#14152B" transform="translate(190,141)"></path><path d="M0 0 C2 3 2 3 2 5 C2.66 5 3.32 5 4 5 C4.33 4.01 4.66 3.02 5 2 C6.85776765 5.13498292 7.20140476 7.37471432 7 11 C6.01 11 5.02 11 4 11 C3.34 11.66 2.68 12.32 2 13 C-0.44038726 8.11922548 -1.46845421 5.47332932 0 0 Z " fill="#080C2E" transform="translate(254,110)"></path><path d="M0 0 C1.670625 0.99 1.670625 0.99 3.375 2 C3.045 2.66 2.715 3.32 2.375 4 C-0.925 3.01 -4.225 2.02 -7.625 1 C-7.625 0.34 -7.625 -0.32 -7.625 -1 C-10.97933109 -0.05066101 -14.31746505 0.89748835 -17.625 2 C-18.285 1.34 -18.945 0.68 -19.625 0 C-13.37158862 -3.33515273 -6.24854783 -3.12982325 0 0 Z M-10.625 1 C-9.635 1 -8.645 1 -7.625 1 C-7.625 1.66 -7.625 2.32 -7.625 3 C-8.615 2.67 -9.605 2.34 -10.625 2 C-10.625 1.67 -10.625 1.34 -10.625 1 Z " fill="#12172C" transform="translate(177.625,92)"></path><path d="M0 0 C0.66 0 1.32 0 2 0 C1.83701416 0.62543701 1.67402832 1.25087402 1.50610352 1.89526367 C0.8094275 6.16908372 0.87735656 10.35304529 0.90234375 14.67578125 C0.9037587 15.6009404 0.90517365 16.52609955 0.90663147 17.47929382 C0.91221285 20.42372927 0.92476195 23.36808767 0.9375 26.3125 C0.94251741 28.31314994 0.94707989 30.31380108 0.95117188 32.31445312 C0.96217619 37.20966494 0.97942802 42.10481942 1 47 C0.67 47 0.34 47 0 47 C-0.16783252 40.46736699 -0.32779476 33.93457595 -0.48217773 27.40161133 C-0.53568392 25.17728264 -0.59101963 22.9529972 -0.64819336 20.72875977 C-0.7298646 17.53932018 -0.80504388 14.34978501 -0.87890625 11.16015625 C-0.91945885 9.65860741 -0.91945885 9.65860741 -0.96083069 8.12672424 C-0.98092697 7.20584518 -1.00102325 6.28496613 -1.02172852 5.33618164 C-1.04171402 4.52121719 -1.06169952 3.70625275 -1.08229065 2.86659241 C-1 1 -1 1 0 0 Z " fill="#03081E" transform="translate(742,105)"></path><path d="M0 0 C0.25 2.3125 0.25 2.3125 0 5 C-2 6.8125 -2 6.8125 -4 8 C-6 7 -6 7 -7 6 C-7.103125 6.639375 -7.20625 7.27875 -7.3125 7.9375 C-7.539375 8.618125 -7.76625 9.29875 -8 10 C-8.99 10.33 -9.98 10.66 -11 11 C-9.65108796 5.19967822 -6.55130049 0 0 0 Z " fill="#0F132A" transform="translate(752,95)"></path><path d="M0 0 C1.17829199 2.35658397 1.04414372 3.52573236 0.87890625 6.1328125 C0.83056641 6.93847656 0.78222656 7.74414062 0.73242188 8.57421875 C0.64831055 9.83685547 0.64831055 9.83685547 0.5625 11.125 C0.51029297 11.97449219 0.45808594 12.82398438 0.40429688 13.69921875 C0.27448622 15.79979124 0.1378826 17.89994191 0 20 C-0.99 20 -1.98 20 -3 20 C-3 15.05 -3 10.1 -3 5 C-2.34 5 -1.68 5 -1 5 C-0.67 3.35 -0.34 1.7 0 0 Z " fill="#040A26" transform="translate(431,117)"></path><path d="M0 0 C0 2.31 0 4.62 0 7 C-2 7 -4 7 -6 7 C-7.4606285 4.35261084 -8 3.10551666 -8 0 C-4.94736336 -0.98120464 -3.05263664 -0.98120464 0 0 Z " fill="#080E2C" transform="translate(344,124)"></path><path d="M0 0 C0 0.66 0 1.32 0 2 C-1.64453125 3.4375 -1.64453125 3.4375 -3.8125 5 C-4.87404297 5.7734375 -4.87404297 5.7734375 -5.95703125 6.5625 C-7.62080729 7.73318754 -9.30730211 8.87153474 -11 10 C-11.6875 8.25 -11.6875 8.25 -12 6 C-10.54564643 3.2528877 -9.33253672 2.17053165 -6.5625 0.75 C-4 0 -4 0 0 0 Z " fill="#181B32" transform="translate(151,81)"></path><path d="M0 0 C2 2 2 2 2 6 C2.66 6.33 3.32 6.66 4 7 C2.68 7 1.36 7 0 7 C0 7.99 0 8.98 0 10 C-2.31 9.34 -4.62 8.68 -7 8 C-6.02133662 6.85373678 -5.04205413 5.70800212 -4.0625 4.5625 C-3.51722656 3.92441406 -2.97195313 3.28632812 -2.41015625 2.62890625 C-1.63204305 1.73008851 -0.84063472 0.84063472 0 0 Z " fill="#161B35" transform="translate(398,123)"></path><path d="M0 0 C0.98120464 3.05263664 0.98120464 4.94736336 0 8 C0.66 8 1.32 8 2 8 C3 12 4 16 5 20 C4.01 20.33 3.02 20.66 2 21 C-1.66088825 15.50866763 -1.37052117 9.42963205 -1 3 C-0.67 2.01 -0.34 1.02 0 0 Z " fill="#262A3B" transform="translate(146,104)"></path><path d="M0 0 C1.40783184 2.62795276 2.50772334 5.04634002 3 8 C2.67 8.66 2.34 9.32 2 10 C2.60760482 12.3494053 3.27129528 14.68529088 4 17 C3.34 17.66 2.68 18.32 2 19 C-0.99005592 13.26905949 -1.61258141 8.44388517 -1 2 C-0.67 1.34 -0.34 0.68 0 0 Z " fill="#161B2F" transform="translate(650,106)"></path><path d="M0 0 C0.33 0 0.66 0 1 0 C1.55353075 11.70615034 1.55353075 11.70615034 -2 16 C-2.66 15.67 -3.32 15.34 -4 15 C-4 11.37 -4 7.74 -4 4 C-3.01 4.495 -3.01 4.495 -2 5 C-1.34 3.35 -0.68 1.7 0 0 Z " fill="#0F142D" transform="translate(687,108)"></path><path d="M0 0 C2 1 2 1 4 4 C4.99 4.66 5.98 5.32 7 6 C5 9 5 9 2.875 9.6875 C2.25625 9.790625 1.6375 9.89375 1 10 C0.67 9.01 0.34 8.02 0 7 C-0.99 7.33 -1.98 7.66 -3 8 C-2.37240135 5.07120629 -1.41377341 2.63904371 0 0 Z " fill="#040927" transform="translate(413,109)"></path><path d="M0 0 C1.65 0 3.3 0 5 0 C5.33 2.31 5.66 4.62 6 7 C6.66 5.35 7.32 3.7 8 2 C10 5 10 5 9.625 7.6875 C9.41875 8.450625 9.2125 9.21375 9 10 C6 10 6 10 4 9 C4 8.01 4 7.02 4 6 C3.34 6 2.68 6 2 6 C1.34 4.02 0.68 2.04 0 0 Z " fill="#050927" transform="translate(354,115)"></path><path d="M0 0 C0 0.66 0 1.32 0 2 C-6.6 2 -13.2 2 -20 2 C-20 2.99 -20 3.98 -20 5 C-23.63 4.01 -27.26 3.02 -31 2 C-27.68713352 1.17178338 -25.08448346 0.81811665 -21.71875 0.68359375 C-20.71199219 0.64169922 -19.70523438 0.59980469 -18.66796875 0.55664062 C-17.62253906 0.51732422 -16.57710937 0.47800781 -15.5 0.4375 C-14.45457031 0.39431641 -13.40914062 0.35113281 -12.33203125 0.30664062 C-8.21619707 0.14063707 -4.11985963 0 0 0 Z " fill="#222536" transform="translate(708,74)"></path><path d="M0 0 C1.65 0 3.3 0 5 0 C4.67 1.65 4.34 3.3 4 5 C-0.455 6.485 -0.455 6.485 -5 8 C-4 4 -4 4 -3 2 C-2.01 2 -1.02 2 0 2 C0 1.34 0 0.68 0 0 Z " fill="#090E2F" transform="translate(115,73)"></path><path d="M0 0 C0.33 0.99 0.66 1.98 1 3 C0.01 4.485 0.01 4.485 -1 6 C-1.99 6 -2.98 6 -4 6 C-3.67 6.99 -3.34 7.98 -3 9 C-6.73437848 9.87867729 -10.16774573 10.08912219 -14 10 C-11.1738433 7.83996262 -8.28391676 5.8297502 -5.3125 3.875 C-2.51504182 2.11346037 -2.51504182 2.11346037 0 0 Z " fill="#1A1E32" transform="translate(624,140)"></path><path d="M0 0 C0.33 0 0.66 0 1 0 C1.66 5.61 2.32 11.22 3 17 C-1 18 -1 18 -3 17 C-2.67 14.03 -2.34 11.06 -2 8 C-1.67 8 -1.34 8 -1 8 C-0.67 5.36 -0.34 2.72 0 0 Z " fill="#1F233C" transform="translate(132,109)"></path><path d="M0 0 C0.33 0.66 0.66 1.32 1 2 C3.01669827 3.13350534 3.01669827 3.13350534 5 4 C5 4.66 5 5.32 5 6 C5.66 6.33 6.32 6.66 7 7 C6.34 8.98 5.68 10.96 5 13 C3.02 11.35 1.04 9.7 -1 8 C-0.67 7.01 -0.34 6.02 0 5 C0.66 4.67 1.32 4.34 2 4 C1.34 3.67 0.68 3.34 0 3 C0 2.01 0 1.02 0 0 Z " fill="#121531" transform="translate(193,80)"></path><path d="M0 0 C-3.18762365 2.12508244 -5.26512223 2.5020163 -9 3 C-9 2.34 -9 1.68 -9 1 C-15.27 1 -21.54 1 -28 1 C-28 0.67 -28 0.34 -28 0 C-24.8339704 -0.19945986 -21.66718204 -0.38234428 -18.5 -0.5625 C-17.613125 -0.61857422 -16.72625 -0.67464844 -15.8125 -0.73242188 C-10.37734765 -1.03215454 -5.37905137 -0.8483317 0 0 Z " fill="#282B3A" transform="translate(749,75)"></path><path d="M0 0 C0.66 0 1.32 0 2 0 C3.3540932 1.98600337 4.68457624 3.98817543 6 6 C7.29682374 7.36886951 8.61823134 8.7169291 10 10 C8.02 10.33 6.04 10.66 4 11 C-0.25 4.625 -0.25 4.625 0 0 Z " fill="#161B30" transform="translate(309,136)"></path><path d="M0 0 C0.33 0 0.66 0 1 0 C0.57029435 5.3713206 -0.4033106 8.90377041 -4 13 C-6.640625 13.16015625 -6.640625 13.16015625 -9 13 C-8.60167969 12.48050781 -8.20335937 11.96101562 -7.79296875 11.42578125 C-4.97131746 7.71163685 -2.38349708 4.01431087 0 0 Z " fill="#161B31" transform="translate(200,128)"></path><path d="M0 0 C1.32 0 2.64 0 4 0 C4.36630156 3.93774177 4.30233203 5.56539771 2 8.875 C1.34 9.57625 0.68 10.2775 0 11 C0 10.34 0 9.68 0 9 C-0.66 9 -1.32 9 -2 9 C-1.34 6.03 -0.68 3.06 0 0 Z " fill="#161C32" transform="translate(249,116)"></path><path d="M0 0 C0.99 0.33 1.98 0.66 3 1 C3.99 0.67 4.98 0.34 6 0 C6 3.4398759 5.53558242 5.43271292 3.15234375 7.95703125 C1.14191738 9.69798248 -0.89293753 11.37770589 -3 13 C-3.66 12.67 -4.32 12.34 -5 12 C-4.566875 11.59007813 -4.13375 11.18015625 -3.6875 10.7578125 C-3.130625 10.21898438 -2.57375 9.68015625 -2 9.125 C-1.443125 8.59132813 -0.88625 8.05765625 -0.3125 7.5078125 C1.21885522 6.08175012 1.21885522 6.08175012 1 4 C0.34 3.34 -0.32 2.68 -1 2 C-0.67 1.34 -0.34 0.68 0 0 Z " fill="#E5E5E9" transform="translate(409,89)"></path><path d="M0 0 C2.97 0 5.94 0 9 0 C9 0.33 9 0.66 9 1 C7.7934375 1.185625 7.7934375 1.185625 6.5625 1.375 C5.716875 1.58125 4.87125 1.7875 4 2 C3.67 2.66 3.34 3.32 3 4 C3.66 4 4.32 4 5 4 C5 5.32 5 6.64 5 8 C3.35 8 1.7 8 0 8 C0 5.36 0 2.72 0 0 Z " fill="#09B6F6" transform="translate(635,50)"></path><path d="M0 0 C2.08554278 3.42624885 2.26953755 6.14910816 2.25 10.125 C2.25515625 11.17945312 2.2603125 12.23390625 2.265625 13.3203125 C2 16 2 16 0 18 C-0.144375 17.401875 -0.28875 16.80375 -0.4375 16.1875 C-0.8872439 14.43849596 -1.42892341 12.71322977 -2 11 C-1.67 10.34 -1.34 9.68 -1 9 C-1.185625 8.401875 -1.37125 7.80375 -1.5625 7.1875 C-2.14549374 4.27253131 -1.24538633 2.6372887 0 0 Z " fill="#181C32" transform="translate(189,104)"></path><path d="M0 0 C1.32 0.66 2.64 1.32 4 2 C3.34 2 2.68 2 2 2 C2 2.66 2 3.32 2 4 C2.99 4.33 3.98 4.66 5 5 C4.67 6.32 4.34 7.64 4 9 C1.36 7.35 -1.28 5.7 -4 4 C-2.68 2.68 -1.36 1.36 0 0 Z " fill="#1F1F33" transform="translate(69,93)"></path><path d="M0 0 C4.25014075 1.51790741 5.95899274 4.06377171 8 8 C8.31827037 10.76497381 8.19294027 13.20236613 8 16 C6.84569042 13.69138083 5.69706233 11.38095345 4.5625 9.0625 C3.54539166 7.06896766 2.4639457 5.10657617 1.3125 3.1875 C0 1 0 1 0 0 Z " fill="#272D3D" transform="translate(762,94)"></path><path d="M0 0 C1.20366211 0.00966797 1.20366211 0.00966797 2.43164062 0.01953125 C3.26501953 0.03628906 4.09839844 0.05304688 4.95703125 0.0703125 C6.22450195 0.08384766 6.22450195 0.08384766 7.51757812 0.09765625 C9.60168368 0.12120547 11.68564342 0.15707603 13.76953125 0.1953125 C13.10953125 1.5153125 12.44953125 2.8353125 11.76953125 4.1953125 C5.49953125 3.5353125 -0.77046875 2.8753125 -7.23046875 2.1953125 C-4.12961304 0.12807536 -3.50115194 -0.04966173 0 0 Z " fill="#13182E" transform="translate(170.23046875,75.8046875)"></path><path d="M0 0 C3.63 0 7.26 0 11 0 C11 0.99 11 1.98 11 3 C6.38 3 1.76 3 -3 3 C-2.01 2.67 -1.02 2.34 0 2 C0 1.34 0 0.68 0 0 Z " fill="#16CBEE" transform="translate(654,58)"></path><path d="M0 0 C3.2682346 3.14718888 6.1310659 6.49352499 9 10 C8.34 10.66 7.68 11.32 7 12 C0.16798846 6.80173035 0.16798846 6.80173035 -1 2 C-0.67 1.34 -0.34 0.68 0 0 Z " fill="#181A33" transform="translate(484,136)"></path><path d="M0 0 C0.598125 0.763125 1.19625 1.52625 1.8125 2.3125 C3.46959332 4.3483575 5.10297674 6.1978279 7 8 C6.67 8.66 6.34 9.32 6 10 C3.71844707 9.60662881 2.13299993 9.08713789 0.1875 7.8125 C-1 6 -1 6 -0.6875 2.8125 C-0.460625 1.884375 -0.23375 0.95625 0 0 Z " fill="#23243C" transform="translate(561,132)"></path><path d="M0 0 C2.33944736 0.28730055 4.6739143 0.61936779 7 1 C6.67 2.32 6.34 3.64 6 5 C5.42024414 4.84152588 4.84048828 4.68305176 4.24316406 4.51977539 C0.78779602 3.71911382 -2.71910303 3.62776918 -6.25 3.4375 C-6.99507812 3.39431641 -7.74015625 3.35113281 -8.5078125 3.30664062 C-10.338349 3.20103275 -12.16915176 3.10005799 -14 3 C-14 2.67 -14 2.34 -14 2 C-13.07316406 1.93941406 -12.14632812 1.87882812 -11.19140625 1.81640625 C-9.39509766 1.69072266 -9.39509766 1.69072266 -7.5625 1.5625 C-5.77005859 1.44068359 -5.77005859 1.44068359 -3.94140625 1.31640625 C-1.11429756 1.32343886 -1.11429756 1.32343886 0 0 Z " fill="#3B3E52" transform="translate(604,72)"></path><path d="M0 0 C-0.99 3.3 -1.98 6.6 -3 10 C-5.76223278 7.23776722 -5.57856291 4.79293383 -6 1 C-3 0 -3 0 0 0 Z " fill="#1C1B2E" transform="translate(280,120)"></path><path d="M0 0 C-0.66 1.65 -1.32 3.3 -2 5 C-2.66 5 -3.32 5 -4 5 C-4 5.66 -4 6.32 -4 7 C-6.64 6.34 -9.28 5.68 -12 5 C-10.66666667 4.33333333 -9.33333333 3.66666667 -8 3 C-6.96875 2.46375 -5.9375 1.9275 -4.875 1.375 C-2 0 -2 0 0 0 Z " fill="#1F2437" transform="translate(70,143)"></path><path d="M0 0 C0.66 0.66 1.32 1.32 2 2 C1.67889311 5.53217579 1.12183498 8.63449506 0 12 C-0.66 12 -1.32 12 -2 12 C-2 8.37 -2 4.74 -2 1 C-1.34 0.67 -0.68 0.34 0 0 Z " fill="#1E1E38" transform="translate(531,116)"></path><path d="M0 0 C0.99 0.33 1.98 0.66 3 1 C3 2.65 3 4.3 3 6 C1.1858073 5.71905418 -0.62635001 5.42493567 -2.4375 5.125 C-3.95150391 4.88136719 -3.95150391 4.88136719 -5.49609375 4.6328125 C-6.32238281 4.42398438 -7.14867187 4.21515625 -8 4 C-8.33 3.34 -8.66 2.68 -9 2 C-6.03 2 -3.06 2 0 2 C0 1.34 0 0.68 0 0 Z " fill="#41F7C1" transform="translate(705,54)"></path><path d="M0 0 C-0.33 1.32 -0.66 2.64 -1 4 C-3.97 4 -6.94 4 -10 4 C-10 3.34 -10 2.68 -10 2 C-6.3558226 -0.4294516 -4.28758728 -0.16179575 0 0 Z " fill="#1DCDE2" transform="translate(666,54)"></path><path d="M0 0 C2.3828125 0.0234375 2.3828125 0.0234375 5.125 0.375 C6.03507813 0.48585937 6.94515625 0.59671875 7.8828125 0.7109375 C8.93082031 0.85402344 8.93082031 0.85402344 10 1 C9.67 1.99 9.34 2.98 9 4 C7.02 4.33 5.04 4.66 3 5 C3 4.01 3 3.02 3 2 C2.01 3.485 2.01 3.485 1 5 C0.01 4.01 -0.98 3.02 -2 2 C-1.34 1.34 -0.68 0.68 0 0 Z " fill="#030722" transform="translate(148,147)"></path><path d="M0 0 C1.21386936 3.64160808 0.6674695 4.33165469 -0.9375 7.6875 C-1.31777344 8.49574219 -1.69804687 9.30398437 -2.08984375 10.13671875 C-2.39019531 10.75160156 -2.69054687 11.36648437 -3 12 C-3.33 12 -3.66 12 -4 12 C-4 8.37 -4 4.74 -4 1 C-2.68 0.67 -1.36 0.34 0 0 Z " fill="#1C2233" transform="translate(380,106)"></path><path d="M0 0 C0.33 1.32 0.66 2.64 1 4 C-0.98 4.99 -0.98 4.99 -3 6 C-3 4.68 -3 3.36 -3 2 C-6.3 2 -9.6 2 -13 2 C-13 1.67 -13 1.34 -13 1 C-8.62426048 0.40667939 -4.42471556 -0.13827236 0 0 Z " fill="#0C1124" transform="translate(109,77)"></path><path d="M0 0 C0.99 0 1.98 0 3 0 C2.37240135 2.92879371 1.41377341 5.36095629 0 8 C-1.32 8 -2.64 8 -4 8 C-2.87548273 5.0280615 -1.77706209 2.66559313 0 0 Z " fill="#EAEAF1" transform="translate(140,91)"></path><path d="M0 0 C-3.00617269 3.00617269 -5.82381598 2.59585316 -10 3 C-10 2.34 -10 1.68 -10 1 C-11.32 0.67 -12.64 0.34 -14 0 C-9.02936879 -0.91297308 -4.97063121 -0.91297308 0 0 Z " fill="#1D2238" transform="translate(528,130)"></path><path d="M0 0 C2.49388574 4.98777148 1.88836125 6.66983248 1 12 C-0.32 11.67 -1.64 11.34 -3 11 C-2.01 7.37 -1.02 3.74 0 0 Z " fill="#202436" transform="translate(293,114)"></path><path d="M0 0 C0.33 0.99 0.66 1.98 1 3 C1.99 3 2.98 3 4 3 C4.33 2.34 4.66 1.68 5 1 C5 2.32 5 3.64 5 5 C3.02 5.99 3.02 5.99 1 7 C1 6.34 1 5.68 1 5 C-0.32 4.67 -1.64 4.34 -3 4 C-3 3.34 -3 2.68 -3 2 C-2.01 1.34 -1.02 0.68 0 0 Z " fill="#141633" transform="translate(371,82)"></path><path d="M0 0 C0 0.66 0 1.32 0 2 C-0.66 2.66 -1.32 3.32 -2 4 C-2.6425235 6.06874034 -2.6425235 6.06874034 -3 8 C-4.32 8 -5.64 8 -7 8 C-7.33 7.01 -7.66 6.02 -8 5 C-2.25 0 -2.25 0 0 0 Z " fill="#DFE1E4" transform="translate(322,80)"></path><path d="M0 0 C-1.50223584 4.20626034 -4.28550034 5.73900021 -8 8 C-8.33 7.01 -8.66 6.02 -9 5 C-6.64410407 0.99497692 -4.69117837 0 0 0 Z " fill="#0F1527" transform="translate(497,50)"></path><path d="M0 0 C1.0625 1.8125 1.0625 1.8125 2 4 C1.67 4.99 1.34 5.98 1 7 C0.01 7.33 -0.98 7.66 -2 8 C-2.73323796 10.01508358 -2.73323796 10.01508358 -3 12 C-3.66 12 -4.32 12 -5 12 C-4.55149342 10.18504338 -4.09090429 8.37306866 -3.625 6.5625 C-3.36976563 5.55316406 -3.11453125 4.54382813 -2.8515625 3.50390625 C-2 1 -2 1 0 0 Z " fill="#202637" transform="translate(245,137)"></path><path d="M0 0 C1.7074998 1.28062485 3.37373596 2.61767557 5 4 C5 4.66 5 5.32 5 6 C5.99 6.33 6.98 6.66 8 7 C8 7.33 8 7.66 8 8 C5.75 8.3125 5.75 8.3125 3 8 C0.625 5.6875 0.625 5.6875 -1 3 C-0.67 2.01 -0.34 1.02 0 0 Z " fill="#181C30" transform="translate(371,135)"></path><path d="M0 0 C0.33 2.31 0.66 4.62 1 7 C0.34 7 -0.32 7 -1 7 C-1.66 6.34 -2.32 5.68 -3 5 C-3.66 5.66 -4.32 6.32 -5 7 C-5.66 6.34 -6.32 5.68 -7 5 C-2.25 0 -2.25 0 0 0 Z " fill="#D2D8DD" transform="translate(619,120)"></path><path d="M0 0 C1.65 0.33 3.3 0.66 5 1 C5 1.99 5 2.98 5 4 C3 5.6875 3 5.6875 1 7 C0.34 6.67 -0.32 6.34 -1 6 C-0.67 4.02 -0.34 2.04 0 0 Z " fill="#1A1F37" transform="translate(402,95)"></path><path d="M0 0 C0.66 0 1.32 0 2 0 C1.67 2.31 1.34 4.62 1 7 C0.67 6.01 0.34 5.02 0 4 C-3.96 3.67 -7.92 3.34 -12 3 C-12 2.67 -12 2.34 -12 2 C-8.04 2 -4.08 2 0 2 C0 1.34 0 0.68 0 0 Z " fill="#45495E" transform="translate(356,97)"></path><path d="M0 0 C1.9078584 3.1749094 2.1609041 5.10585211 1.625 8.75 C1.51414062 9.54921875 1.40328125 10.3484375 1.2890625 11.171875 C1.19367187 11.77515625 1.09828125 12.3784375 1 13 C0.67 13 0.34 13 0 13 C-0.66 9.37 -1.32 5.74 -2 2 C-1.34 2 -0.68 2 0 2 C0 1.34 0 0.68 0 0 Z " fill="#1A1C33" transform="translate(789,90)"></path><path d="M0 0 C2.75 -0.3125 2.75 -0.3125 6 0 C8.375 2.5 8.375 2.5 10 5 C9.01 5.495 9.01 5.495 8 6 C6.0546875 5.22265625 6.0546875 5.22265625 3.875 4.0625 C3.15054688 3.68222656 2.42609375 3.30195312 1.6796875 2.91015625 C1.12539063 2.60980469 0.57109375 2.30945313 0 2 C0 1.34 0 0.68 0 0 Z " fill="#191E31" transform="translate(534,93)"></path><path d="M0 0 C2.49361571 1.20381448 4.68143083 2.45428722 7 4 C7.1875 7.125 7.1875 7.125 7 10 C6.67 9.34 6.34 8.68 6 8 C5.34 8 4.68 8 4 8 C4 6.68 4 5.36 4 4 C2.68 3.67 1.36 3.34 0 3 C0 2.01 0 1.02 0 0 Z " fill="#181B2E" transform="translate(336,90)"></path><path d="M0 0 C0 0.99 0 1.98 0 3 C-3.21451269 4.60725635 -6.43612536 4.05748185 -10 4 C-7.18342017 0.590456 -4.32639749 0 0 0 Z " fill="#13172A" transform="translate(412,147)"></path><path d="M0 0 C0.33 0 0.66 0 1 0 C1 6.27 1 12.54 1 19 C0.01 19 -0.98 19 -2 19 C-1.84660156 18.32582031 -1.69320312 17.65164062 -1.53515625 16.95703125 C-0.91516143 13.53122048 -0.6647426 10.16106553 -0.4375 6.6875 C-0.35371094 5.43324219 -0.26992187 4.17898437 -0.18359375 2.88671875 C-0.12300781 1.93410156 -0.06242188 0.98148437 0 0 Z " fill="#474B5C" transform="translate(203,108)"></path><path d="M0 0 C0.66 0 1.32 0 2 0 C3.125 6.75 3.125 6.75 2 9 C1.34 9 0.68 9 0 9 C-0.87890625 2.84765625 -0.87890625 2.84765625 -1 1 C-0.67 0.67 -0.34 0.34 0 0 Z " fill="#1A1B2F" transform="translate(233,121)"></path><path d="M0 0 C2.1519437 3.22791555 2.20086443 4.28400809 2 8 C1.01 8 0.02 8 -1 8 C-1.66 8.66 -2.32 9.32 -3 10 C-4.0625 8.1875 -4.0625 8.1875 -5 6 C-4.67 5.01 -4.34 4.02 -4 3 C-3.01 3.99 -2.02 4.98 -1 6 C-0.67 4.02 -0.34 2.04 0 0 Z " fill="#020624" transform="translate(259,113)"></path><path d="M0 0 C1.32 0 2.64 0 4 0 C4.33 3.63 4.66 7.26 5 11 C4.67 11 4.34 11 4 11 C3.896875 10.21625 3.79375 9.4325 3.6875 8.625 C3.22404978 5.66954819 3.22404978 5.66954819 0 4 C0 2.68 0 1.36 0 0 Z " fill="#56F3C5" transform="translate(704,49)"></path><path d="M0 0 C2.97 0.33 5.94 0.66 9 1 C7.09598862 2.90401138 5.66574314 3.93520439 2.953125 4.19921875 C0.96766727 4.1886578 -1.0169914 4.09915043 -3 4 C-2.01 3.67 -1.02 3.34 0 3 C0 2.01 0 1.02 0 0 Z " fill="#2A2E42" transform="translate(399,133)"></path><path d="M0 0 C0.99 1.32 1.98 2.64 3 4 C2.375 6.6875 2.375 6.6875 1 9 C0.01 9.33 -0.98 9.66 -2 10 C-1.34 6.7 -0.68 3.4 0 0 Z " fill="#181D38" transform="translate(289,126)"></path><path d="M0 0 C2.43189168 0.85116209 4.69691285 1.84845643 7 3 C6.67 3.99 6.34 4.98 6 6 C2.62496331 4.8141763 0.35277269 3.72426311 -2 1 C-1.34 0.67 -0.68 0.34 0 0 Z " fill="#22253C" transform="translate(154,129)"></path><path d="M0 0 C-1.49097658 3.7952131 -3.75700849 5.61042731 -7 8 C-7.33 7.01 -7.66 6.02 -8 5 C-6.45487538 1.90975077 -3.48715062 0 0 0 Z " fill="#17192D" transform="translate(616,120)"></path><path d="M0 0 C0.33 0 0.66 0 1 0 C0.67 2.97 0.34 5.94 0 9 C-1.32 8.67 -2.64 8.34 -4 8 C-3.34 6.02 -2.68 4.04 -2 2 C-1.34 2 -0.68 2 0 2 C0 1.34 0 0.68 0 0 Z " fill="#171D32" transform="translate(300,98)"></path><path d="M0 0 C0.99 0.66 1.98 1.32 3 2 C1.50902342 5.7952131 -0.75700849 7.61042731 -4 10 C-3.29445932 6.33118845 -1.72264494 3.29549466 0 0 Z " fill="#DADDE5" transform="translate(426,90)"></path><path d="M0 0 C0.33 1.32 0.66 2.64 1 4 C-0.75 5.5625 -0.75 5.5625 -3 7 C-4.32 6.67 -5.64 6.34 -7 6 C-4.69 4.02 -2.38 2.04 0 0 Z " fill="#DADFE4" transform="translate(647,80)"></path><path d="M0 0 C0.33 0.99 0.66 1.98 1 3 C0.01 3.33 -0.98 3.66 -2 4 C-2 4.66 -2 5.32 -2 6 C-1.34 6.33 -0.68 6.66 0 7 C-0.99 7 -1.98 7 -3 7 C-3 6.34 -3 5.68 -3 5 C-4.32 4.34 -5.64 3.68 -7 3 C-4.69 2.01 -2.38 1.02 0 0 Z " fill="#21253D" transform="translate(419,143)"></path><path d="M0 0 C2.0625 2.1875 2.0625 2.1875 4 5 C3.75 7.8125 3.75 7.8125 3 10 C2.34 8.68 1.68 7.36 1 6 C0.67 6.99 0.34 7.98 0 9 C-1.125 3.375 -1.125 3.375 0 0 Z " fill="#20233E" transform="translate(284,142)"></path><path d="M0 0 C0.99 0.66 1.98 1.32 3 2 C1.68 4.64 0.36 7.28 -1 10 C-1.66 9.67 -2.32 9.34 -3 9 C-2.5020163 5.26512223 -2.12508244 3.18762365 0 0 Z " fill="#14192C" transform="translate(311,84)"></path><path d="M0 0 C0.66 0 1.32 0 2 0 C0.98823563 3.40320742 0.35156418 4.75725331 -2.625 6.8125 C-3.40875 7.204375 -4.1925 7.59625 -5 8 C-4.38722388 5.03824877 -3.74627478 3.61941217 -2 1 C-1.67 1.33 -1.34 1.66 -1 2 C-0.67 1.34 -0.34 0.68 0 0 Z " fill="#1D2035" transform="translate(62,81)"></path><path d="M0 0 C2.1385485 2.1385485 2.42655063 3.13275314 3 6 C2.34 6 1.68 6 1 6 C1 6.66 1 7.32 1 8 C0.34 8 -0.32 8 -1 8 C-1 7.34 -1 6.68 -1 6 C-1.66 5.67 -2.32 5.34 -3 5 C-3 4.01 -3 3.02 -3 2 C-2.01 2 -1.02 2 0 2 C0 1.34 0 0.68 0 0 Z " fill="#0F1231" transform="translate(291,72)"></path><path d="M0 0 C2 1.5625 2 1.5625 4 4 C4.25 7.75 4.25 7.75 4 11 C0.85041169 7.57653445 0.43820891 4.55737263 0 0 Z " fill="#18182C" transform="translate(546,57)"></path><path d="M0 0 C4.95 1.98 4.95 1.98 10 4 C10 4.33 10 4.66 10 5 C3.9453125 5.1953125 3.9453125 5.1953125 2 5 C1.34 4.34 0.68 3.68 0 3 C0 2.01 0 1.02 0 0 Z " fill="#151A2D" transform="translate(148,143)"></path><path d="M0 0 C0.93423645 3.01031744 1.04449911 3.86650268 0 7 C-1.875 8.25 -1.875 8.25 -4 9 C-4.99 8.67 -5.98 8.34 -7 8 C-5.625 6.5 -5.625 6.5 -4 5 C-3.34 5 -2.68 5 -2 5 C-1.34 3.35 -0.68 1.7 0 0 Z " fill="#24263C" transform="translate(548,136)"></path><path d="M0 0 C0.66 0 1.32 0 2 0 C2 0.99 2 1.98 2 3 C-0.375 5.0625 -0.375 5.0625 -3 7 C-3.66 7.66 -4.32 8.32 -5 9 C-5.66 8.34 -6.32 7.68 -7 7 C-4.66666667 4.66666667 -2.33333333 2.33333333 0 0 Z " fill="#C9CCD2" transform="translate(402,102)"></path><path d="M0 0 C0.99 0.33 1.98 0.66 3 1 C1.66667905 4.99996286 -0.4957827 5.83782337 -4 8 C-3.67 6.35 -3.34 4.7 -3 3 C-2.01 2.67 -1.02 2.34 0 2 C0 1.34 0 0.68 0 0 Z " fill="#181B31" transform="translate(569,80)"></path><path d="M0 0 C2.04119788 1.61594832 4.04072937 3.2856382 6 5 C6 5.66 6 6.32 6 7 C5.01 7 4.02 7 3 7 C2.67 6.34 2.34 5.68 2 5 C1.01 5.66 0.02 6.32 -1 7 C-0.67 4.69 -0.34 2.38 0 0 Z " fill="#D7D9E0" transform="translate(540,55)"></path><path d="M0 0 C1.94268841 2.91403262 3.46395304 5.85808576 5 9 C3.68 9.33 2.36 9.66 1 10 C0.22157062 6.59437148 -0.09978121 3.49234244 0 0 Z " fill="#E0E5EB" transform="translate(649,118)"></path><path d="M0 0 C9.17286652 -0.63019694 9.17286652 -0.63019694 12.625 2 C13.07875 2.66 13.5325 3.32 14 4 C12.35 4 10.7 4 9 4 C9 3.34 9 2.68 9 2 C6.03 1.67 3.06 1.34 0 1 C0 0.67 0 0.34 0 0 Z " fill="#1D2237" transform="translate(463,90)"></path><path d="M0 0 C0.99 0.495 0.99 0.495 2 1 C1.67 1.66 1.34 2.32 1 3 C1.66 3 2.32 3 3 3 C3 4.32 3 5.64 3 7 C3.99 7.33 4.98 7.66 6 8 C5.34 8 4.68 8 4 8 C3.67 8.66 3.34 9.32 3 10 C0.64551835 7.44931155 0.01672076 6.28982642 -0.1875 2.75 C-0.125625 1.8425 -0.06375 0.935 0 0 Z " fill="#16182C" transform="translate(502,77)"></path><path d="M0 0 C1.65 1.32 3.3 2.64 5 4 C4.67 4.99 4.34 5.98 4 7 C3.67 6.34 3.34 5.68 3 5 C2.01 5 1.02 5 0 5 C-0.66 3.68 -1.32 2.36 -2 1 C-1.34 0.67 -0.68 0.34 0 0 Z " fill="#12172E" transform="translate(142,138)"></path><path d="M0 0 C3.465 1.485 3.465 1.485 7 3 C6.34 3.66 5.68 4.32 5 5 C2.375 4.625 2.375 4.625 0 4 C0 2.68 0 1.36 0 0 Z " fill="#1D2034" transform="translate(390,131)"></path><path d="M0 0 C0 3 0 3 -1.375 4.6875 C-3 6 -3 6 -5 6 C-5 6.66 -5 7.32 -5 8 C-6.65 7.67 -8.3 7.34 -10 7 C-7.96153279 5.64102186 -5.91973686 4.28702633 -3.875 2.9375 C-1.21312042 1.27685736 -1.21312042 1.27685736 0 0 Z " fill="#D8DCE5" transform="translate(683,126)"></path><path d="M0 0 C0.103125 0.639375 0.20625 1.27875 0.3125 1.9375 C0.539375 2.618125 0.76625 3.29875 1 4 C1.99 4.33 2.98 4.66 4 5 C3.67 5.66 3.34 6.32 3 7 C1.68 6.67 0.36 6.34 -1 6 C-1.625 4.125 -1.625 4.125 -2 2 C-1.34 1.34 -0.68 0.68 0 0 Z " fill="#1D1F32" transform="translate(379,117)"></path><path d="M0 0 C0.66 0.99 1.32 1.98 2 3 C0.02 5.97 0.02 5.97 -2 9 C-2.66 7.68 -3.32 6.36 -4 5 C-2.68 4.34 -1.36 3.68 0 3 C0 2.01 0 1.02 0 0 Z " fill="#14162C" transform="translate(424,113)"></path><path d="M0 0 C3.72433382 1.2125738 7.37802806 2.50859979 11 4 C11 4.33 11 4.66 11 5 C6.428721 4.45144652 2.32564205 3.58255197 -2 2 C-1.34 1.34 -0.68 0.68 0 0 Z " fill="#D8DDE6" transform="translate(500,103)"></path><path d="M0 0 C0.66 0.66 1.32 1.32 2 2 C1.01 4.31 0.02 6.62 -1 9 C-1.66 8.34 -2.32 7.68 -3 7 C-2.67028521 3.70285207 -2.3773161 2.3773161 0 0 Z " fill="#121529" transform="translate(135,95)"></path><path d="M0 0 C0.90105469 0.00902344 1.80210937 0.01804687 2.73046875 0.02734375 C3.41753906 0.03894531 4.10460937 0.05054687 4.8125 0.0625 C4.8125 0.3925 4.8125 0.7225 4.8125 1.0625 C3.85537109 1.13597656 3.85537109 1.13597656 2.87890625 1.2109375 C2.05261719 1.28570312 1.22632813 1.36046875 0.375 1.4375 C-0.86056641 1.54191406 -0.86056641 1.54191406 -2.12109375 1.6484375 C-2.80300781 1.78507812 -3.48492187 1.92171875 -4.1875 2.0625 C-4.5175 2.7225 -4.8475 3.3825 -5.1875 4.0625 C-6.8375 3.7325 -8.4875 3.4025 -10.1875 3.0625 C-7.02470604 -0.10029396 -4.26614261 -0.05540445 0 0 Z " fill="#515665" transform="translate(168.1875,89.9375)"></path><path d="M0 0 C2.31 0 4.62 0 7 0 C7 0.99 7 1.98 7 3 C4.69 3 2.38 3 0 3 C0 2.01 0 1.02 0 0 Z " fill="#21D5E8" transform="translate(665,58)"></path><path d="M0 0 C0.99 0 1.98 0 3 0 C3 1.32 3 2.64 3 4 C0.36 3.67 -2.28 3.34 -5 3 C-4.360625 2.690625 -3.72125 2.38125 -3.0625 2.0625 C-1.06389179 1.1654837 -1.06389179 1.1654837 0 0 Z " fill="#24273C" transform="translate(685,148)"></path><path d="M0 0 C2 3 2 3 1.625 6.1875 C1.41875 7.115625 1.2125 8.04375 1 9 C0.01 8.34 -0.98 7.68 -2 7 C-1.34 4.69 -0.68 2.38 0 0 Z " fill="#2D3247" transform="translate(364,120)"></path><path d="M0 0 C2.52259061 1.97420135 2.9929808 2.96745642 3.6875 6.1875 C3.790625 7.115625 3.89375 8.04375 4 9 C3.01 9 2.02 9 1 9 C-0.4783226 6.04335481 -0.06032783 3.25770263 0 0 Z " fill="#171A2E" transform="translate(226,99)"></path><path d="M0 0 C3.63 0 7.26 0 11 0 C11 1.32 11 2.64 11 4 C7.37 3.01 3.74 2.02 0 1 C0 0.67 0 0.34 0 0 Z " fill="#333644" transform="translate(677,75)"></path><path d="M0 0 C1.32 0.33 2.64 0.66 4 1 C4 1.99 4 2.98 4 4 C1.69 4 -0.62 4 -3 4 C-3.33 3.01 -3.66 2.02 -4 1 C-2.68 1.33 -1.36 1.66 0 2 C0 1.34 0 0.68 0 0 Z " fill="#101130" transform="translate(388,75)"></path><path d="M0 0 C0.33 0.99 0.66 1.98 1 3 C-1.31 3.33 -3.62 3.66 -6 4 C-5.67 3.01 -5.34 2.02 -5 1 C-3 0 -3 0 0 0 Z " fill="#171C35" transform="translate(183,146)"></path><path d="M0 0 C0.99 0.99 1.98 1.98 3 3 C2.67 3.66 2.34 4.32 2 5 C-0.5625 5.625 -0.5625 5.625 -3 6 C-2.625 3.5625 -2.625 3.5625 -2 1 C-1.34 0.67 -0.68 0.34 0 0 Z " fill="#020721" transform="translate(245,142)"></path><path d="M0 0 C1.0625 1.875 1.0625 1.875 2 4 C1.67 4.66 1.34 5.32 1 6 C-2.0625 6.625 -2.0625 6.625 -5 7 C-3.35 4.69 -1.7 2.38 0 0 Z " fill="#22253C" transform="translate(75,136)"></path><path d="M0 0 C0 0.66 0 1.32 0 2 C0.99 2.33 1.98 2.66 3 3 C-0.57644848 4.2380014 -3.33694766 3.74926071 -7 3 C-4.49955934 -0.00052879 -4.2621484 0 0 0 Z " fill="#DCDFE0" transform="translate(66,133)"></path><path d="M0 0 C1.64826111 2.96687001 2.44271087 5.65626525 3 9 C1.68 8.67 0.36 8.34 -1 8 C-0.67 5.36 -0.34 2.72 0 0 Z " fill="#1F2438" transform="translate(261,116)"></path><path d="M0 0 C-0.99 0.66 -1.98 1.32 -3 2 C-2.01 2.99 -1.02 3.98 0 5 C-3.24208567 4.64950425 -4.61527704 4.43778819 -6.8125 1.9375 C-7.4003125 0.9784375 -7.4003125 0.9784375 -8 0 C-4.71023192 -1.09658936 -3.28696233 -0.79953138 0 0 Z " fill="#131934" transform="translate(504,106)"></path><path d="M0 0 C2.31 0.33 4.62 0.66 7 1 C6.67 1.99 6.34 2.98 6 4 C3.03 3.505 3.03 3.505 0 3 C0 2.01 0 1.02 0 0 Z " fill="#050922" transform="translate(349,100)"></path><path d="M0 0 C2.475 0.495 2.475 0.495 5 1 C4.34 3.31 3.68 5.62 3 8 C0.4345406 5.4345406 0.45953913 3.52313332 0 0 Z " fill="#1E2035" transform="translate(282,96)"></path><path d="M0 0 C2.125 0.9375 2.125 0.9375 4 2 C4 2.66 4 3.32 4 4 C3.01 4.33 2.02 4.66 1 5 C0.01 4.34 -0.98 3.68 -2 3 C-2 2.34 -2 1.68 -2 1 C-1.34 0.67 -0.68 0.34 0 0 Z " fill="#050829" transform="translate(625,83)"></path><path d="M0 0 C2.31 0.33 4.62 0.66 7 1 C7 2.65 7 4.3 7 6 C5.83054208 5.19152271 4.66449539 4.37810888 3.5 3.5625 C2.8503125 3.11003906 2.200625 2.65757813 1.53125 2.19140625 C1.0259375 1.79824219 0.520625 1.40507813 0 1 C0 0.67 0 0.34 0 0 Z " fill="#2C2D41" transform="translate(616,80)"></path><path d="M0 0 C2.1875 1.4375 2.1875 1.4375 4 3 C1.36 3.66 -1.28 4.32 -4 5 C-3.67 3.68 -3.34 2.36 -3 1 C-2.01 0.67 -1.02 0.34 0 0 Z " fill="#1F2334" transform="translate(114,76)"></path><path d="M0 0 C0.33 0.99 0.66 1.98 1 3 C3.01508358 3.73323796 3.01508358 3.73323796 5 4 C4.34 4 3.68 4 3 4 C3 4.66 3 5.32 3 6 C2.34 6 1.68 6 1 6 C0.67 6.66 0.34 7.32 0 8 C-1.125 2.25 -1.125 2.25 0 0 Z " fill="#131434" transform="translate(249,72)"></path><path d="M0 0 C0.433125 0.9590625 0.433125 0.9590625 0.875 1.9375 C1.82823451 4.15206079 1.82823451 4.15206079 4 5 C3.01 5.33 2.02 5.66 1 6 C-2 4 -2 4 -3 3 C-2.01 2.01 -1.02 1.02 0 0 Z " fill="#1D213B" transform="translate(540,145)"></path><path d="M0 0 C1.98 0.66 3.96 1.32 6 2 C6 2.66 6 3.32 6 4 C5.01 4.33 4.02 4.66 3 5 C2.01 4.34 1.02 3.68 0 3 C0 2.01 0 1.02 0 0 Z " fill="#111125" transform="translate(492,146)"></path><path d="M0 0 C0.99 0.33 1.98 0.66 3 1 C3 1.66 3 2.32 3 3 C4.32 3.33 5.64 3.66 7 4 C6.01 4 5.02 4 4 4 C4 4.66 4 5.32 4 6 C2.68 5.34 1.36 4.68 0 4 C0 2.68 0 1.36 0 0 Z " fill="#04071F" transform="translate(570,145)"></path><path d="M0 0 C2.64 0.66 5.28 1.32 8 2 C8 2.66 8 3.32 8 4 C5.69 3.67 3.38 3.34 1 3 C0.67 2.01 0.34 1.02 0 0 Z " fill="#272A3D" transform="translate(320,146)"></path><path d="M0 0 C0.33 0 0.66 0 1 0 C0.25 6.75 0.25 6.75 -2 9 C-2 8.34 -2 7.68 -2 7 C-2.66 6.67 -3.32 6.34 -4 6 C-2.69593116 3.98079663 -1.36176581 1.98075027 0 0 Z " fill="#22253A" transform="translate(200,128)"></path><path d="M0 0 C0.33 0 0.66 0 1 0 C1 3.63 1 7.26 1 11 C0.01 10.34 -0.98 9.68 -2 9 C-1.34 6.03 -0.68 3.06 0 0 Z " fill="#2A2E4A" transform="translate(687,108)"></path><path d="M0 0 C2.04119788 1.61594832 4.04072937 3.2856382 6 5 C6 5.66 6 6.32 6 7 C5.01 7.33 4.02 7.66 3 8 C2.67 6.35 2.34 4.7 2 3 C1.34 3 0.68 3 0 3 C0 2.01 0 1.02 0 0 Z " fill="#202234" transform="translate(610,100)"></path><path d="M0 0 C0.66 0.66 1.32 1.32 2 2 C2.99 2 3.98 2 5 2 C3.8125 3.5 3.8125 3.5 2 5 C-0.6875 5.1875 -0.6875 5.1875 -3 5 C-2.01 3.35 -1.02 1.7 0 0 Z " fill="#1A1F36" transform="translate(417,104)"></path><path d="M0 0 C1 3 1 3 0.25 5.125 C-1 7 -1 7 -4 8 C-2.25 2.25 -2.25 2.25 0 0 Z " fill="#202233" transform="translate(745,98)"></path><path d="M0 0 C3.6 5.4 3.6 5.4 5 8 C4.67 8.66 4.34 9.32 4 10 C2 8.9375 2 8.9375 0 7 C-0.25 3.3125 -0.25 3.3125 0 0 Z " fill="#3F4055" transform="translate(482,86)"></path><path d="M0 0 C1.875 0.3125 1.875 0.3125 4 1 C4.66 1.99 5.32 2.98 6 4 C4.35 4.33 2.7 4.66 1 5 C0.67 3.35 0.34 1.7 0 0 Z " fill="#E0E5EA" transform="translate(776,81)"></path><path d="M0 0 C0.66 0 1.32 0 2 0 C2 2.31 2 4.62 2 7 C1.34 7 0.68 7 0 7 C-1.125 2.25 -1.125 2.25 0 0 Z " fill="#0C1021" transform="translate(768,144)"></path><path d="M0 0 C1.32 0.33 2.64 0.66 4 1 C4 1.99 4 2.98 4 4 C3.67 4 3.34 4 3 4 C2.67 4.66 2.34 5.32 2 6 C1.34 5.34 0.68 4.68 0 4 C0 2.68 0 1.36 0 0 Z " fill="#1C223D" transform="translate(633,135)"></path><path d="M0 0 C1.9451 2.91765 2.45276317 4.62537285 3 8 C1.68 7.67 0.36 7.34 -1 7 C-0.67 4.69 -0.34 2.38 0 0 Z " fill="#262A3B" transform="translate(557,122)"></path><path d="M0 0 C0.99 1.32 1.98 2.64 3 4 C2 6 2 6 0 7 C-0.66 5.35 -1.32 3.7 -2 2 C-1.34 2 -0.68 2 0 2 C0 1.34 0 0.68 0 0 Z " fill="#1C1E35" transform="translate(148,118)"></path><path d="M0 0 C0.99 0.33 1.98 0.66 3 1 C3.6875 3.0625 3.6875 3.0625 4 5 C4.66 5 5.32 5 6 5 C5.67 5.66 5.34 6.32 5 7 C4.01 6.67 3.02 6.34 2 6 C0.8125 2.9375 0.8125 2.9375 0 0 Z " fill="#151728" transform="translate(577,118)"></path><path d="M0 0 C2.1875 0.3125 2.1875 0.3125 4 1 C3.01 1.66 2.02 2.32 1 3 C-0.19232613 5.05003955 -0.19232613 5.05003955 -1 7 C-1.66 5.68 -2.32 4.36 -3 3 C-1.75 1.4375 -1.75 1.4375 0 0 Z " fill="#22263D" transform="translate(409,112)"></path><path d="M0 0 C3 1 3 1 4.1875 3.0625 C4.455625 3.701875 4.72375 4.34125 5 5 C2.97954558 4.39816251 0.97888961 3.72693904 -1 3 C-1.33 2.34 -1.66 1.68 -2 1 C-1.34 0.67 -0.68 0.34 0 0 Z " fill="#D8D5DF" transform="translate(317,111)"></path><path d="M0 0 C0.99 0.66 1.98 1.32 3 2 C1.35 3.32 -0.3 4.64 -2 6 C-2 2 -2 2 0 0 Z " fill="#D8D6E0" transform="translate(412,106)"></path><path d="M0 0 C2.34058637 2.12780579 3.70700306 4.11562221 5 7 C4.34 7.66 3.68 8.32 3 9 C0.70620251 5.55930376 0 4.27709699 0 0 Z " fill="#1A1E35" transform="translate(307,102)"></path><path d="M0 0 C1.65 0 3.3 0 5 0 C5 0.66 5 1.32 5 2 C0.61538462 5 0.61538462 5 -2 5 C-2 4.34 -2 3.68 -2 3 C-1.34 3 -0.68 3 0 3 C0 2.01 0 1.02 0 0 Z " fill="#111532" transform="translate(483,96)"></path><path d="M0 0 C2.31 0 4.62 0 7 0 C6.34 1.32 5.68 2.64 5 4 C3.31503702 3.03114628 1.64821244 2.03013277 0 1 C0 0.67 0 0.34 0 0 Z " fill="#1D2139" transform="translate(184,81)"></path><path d="M0 0 C0.99 0.66 1.98 1.32 3 2 C2.67 3.32 2.34 4.64 2 6 C0.35 4.68 -1.3 3.36 -3 2 C-2.01 2 -1.02 2 0 2 C0 1.34 0 0.68 0 0 Z " fill="#DCE0E4" transform="translate(529,67)"></path></svg> 