<svg xmlns="http://www.w3.org/2000/svg" width="116" height="48" viewBox="0 0 116 48" fill="none"><g clip-path="url(#clip0_15692_6418)"><path d="M21.6955 4.03036C21.7868 4.12423 21.8282 4.25597 21.8069 4.38528L21.5882 5.72977C21.5629 5.88563 21.6287 6.04234 21.7578 6.13331C21.887 6.22428 22.0566 6.23363 22.1948 6.15734L23.2918 5.55073C23.416 5.48201 23.5669 5.48201 23.6913 5.55073L24.7882 6.15734C24.9265 6.23363 25.0962 6.22428 25.2252 6.13331C25.3542 6.04234 25.4201 5.88573 25.3948 5.72977L25.1761 4.38528C25.1548 4.25597 25.1961 4.12423 25.2876 4.03036L26.2318 3.06219C26.3396 2.95149 26.3765 2.78983 26.3275 2.64332C26.2785 2.49681 26.1518 2.38994 25.9991 2.36638L24.7297 2.17247C24.5936 2.15162 24.4769 2.06429 24.4185 1.93975L23.8654 0.761117C23.7975 0.615915 23.6517 0.523071 23.4915 0.523071C23.3312 0.523071 23.1855 0.615821 23.1176 0.761117L22.5646 1.93975C22.5062 2.06438 22.3895 2.15162 22.2535 2.17247L20.984 2.36638C20.8314 2.38994 20.7046 2.49681 20.6556 2.64332C20.6066 2.78983 20.6435 2.95149 20.7513 3.06219L21.6955 4.03036Z" fill="#4F5C65"></path><path d="M25.999 43.6345L24.7296 43.4405C24.5935 43.4196 24.4768 43.3323 24.4184 43.2078L23.8654 42.0291C23.7975 41.8839 23.6517 41.7911 23.4915 41.7911C23.3312 41.7911 23.1855 41.8838 23.1176 42.0291L22.5646 43.2078C22.5062 43.3324 22.3895 43.4196 22.2535 43.4405L20.984 43.6345C20.8314 43.658 20.7046 43.7649 20.6556 43.9114C20.6066 44.0579 20.6435 44.2196 20.7513 44.3303L21.6956 45.2985C21.7869 45.3923 21.8283 45.5241 21.807 45.6534L21.5883 46.9979C21.563 47.1537 21.6288 47.3104 21.7579 47.4014C21.887 47.4924 22.0567 47.5017 22.1949 47.4254L23.2919 46.8188C23.4161 46.7501 23.567 46.7501 23.6914 46.8188L24.7883 47.4254C24.9266 47.5017 25.0963 47.4924 25.2253 47.4014C25.3543 47.3104 25.4202 47.1538 25.3949 46.9979L25.1762 45.6534C25.1549 45.5241 25.1962 45.3924 25.2877 45.2985L26.2319 44.3303C26.3397 44.2196 26.3766 44.0579 26.3276 43.9114C26.2786 43.7649 26.1517 43.658 25.999 43.6345Z" fill="#4F5C65"></path><path d="M11.6439 6.82108C11.7356 6.91486 11.7772 7.0466 11.7562 7.176L11.5366 8.5205C11.5111 8.67664 11.577 8.83362 11.7063 8.92469C11.8357 9.01576 12.0057 9.02483 12.1441 8.94806L13.241 8.34145C13.3653 8.27273 13.5162 8.27273 13.6405 8.34145L14.7374 8.94806C14.8757 9.02436 15.0454 9.01501 15.1744 8.92404C15.3035 8.83306 15.3694 8.67645 15.3441 8.5205L15.1245 7.176C15.1037 7.04641 15.1456 6.91467 15.2376 6.82108L16.1818 5.85291C16.2896 5.74221 16.3265 5.58055 16.2775 5.43404C16.2285 5.28753 16.1018 5.18067 15.9491 5.1571L14.6797 4.96319C14.5433 4.94262 14.4263 4.85529 14.3677 4.73047L13.8147 3.55184C13.7458 3.40944 13.6014 3.31903 13.4433 3.31903C13.2852 3.31903 13.1409 3.40944 13.072 3.55184L12.5141 4.73047C12.4556 4.85511 12.3389 4.94234 12.2029 4.96319L10.9335 5.1571C10.7806 5.18038 10.6536 5.28716 10.6045 5.43376C10.5553 5.58037 10.5921 5.74212 10.6999 5.85291L11.6439 6.82108Z" fill="#4F5C65"></path><path d="M36.5827 40.8959L35.3133 40.702C35.177 40.6815 35.0599 40.5941 35.0013 40.4693L34.4483 39.2915C34.3803 39.1468 34.2348 39.0544 34.0748 39.0544C33.9149 39.0544 33.7694 39.1468 33.7013 39.2915L33.1483 40.4693C33.0899 40.5939 32.9732 40.6812 32.8372 40.702L31.5678 40.8959C31.4149 40.9192 31.2879 41.026 31.2387 41.1726C31.1896 41.3192 31.2264 41.481 31.3342 41.5918L32.2784 42.5599C32.3702 42.6537 32.4118 42.7854 32.3907 42.9148L32.1712 44.2593C32.1457 44.4155 32.2116 44.5725 32.3409 44.6635C32.4703 44.7546 32.6403 44.7637 32.7786 44.6869L33.8756 44.0803C33.9998 44.0116 34.1507 44.0116 34.2751 44.0803L35.372 44.6869C35.5103 44.7632 35.68 44.7538 35.809 44.6629C35.938 44.5719 36.0039 44.4153 35.9786 44.2593L35.7591 42.9148C35.7379 42.7854 35.7796 42.6537 35.8714 42.5599L36.8156 41.5918C36.9234 41.4811 36.9603 41.3195 36.9113 41.1729C36.8624 41.0263 36.7355 40.9195 36.5827 40.8959Z" fill="#4F5C65"></path><path d="M4.15403 13.948C4.24537 14.0419 4.28679 14.1736 4.26548 14.3029L4.04678 15.6474C4.02145 15.8033 4.08727 15.96 4.21639 16.051C4.34551 16.1419 4.51512 16.1513 4.6534 16.075L5.75031 15.4684C5.87457 15.3997 6.02548 15.3997 6.14983 15.4684L7.24675 16.075C7.38503 16.1513 7.55473 16.1419 7.68375 16.051C7.81287 15.96 7.8787 15.8034 7.85336 15.6474L7.63467 14.3029C7.61335 14.1736 7.65468 14.0419 7.74612 13.948L8.69119 12.9799C8.799 12.8691 8.83583 12.7073 8.78665 12.5607C8.73747 12.4141 8.61041 12.3073 8.45763 12.284L7.18822 12.0901C7.05218 12.0693 6.93549 11.982 6.87706 11.8574L6.32411 10.6788C6.25623 10.5336 6.11047 10.4407 5.95021 10.4407C5.78996 10.4407 5.64419 10.5335 5.57631 10.6788L5.02337 11.8574C4.96493 11.982 4.84825 12.0693 4.71221 12.0901L3.44279 12.284C3.29011 12.3076 3.16332 12.4145 3.11433 12.561C3.06534 12.7075 3.10227 12.8692 3.21007 12.9799L4.15403 13.948Z" fill="#4F5C65"></path><path d="M44.1968 32.9179L42.9273 32.724C42.7913 32.7032 42.6746 32.6158 42.6162 32.4913L42.0624 31.3127C41.9943 31.1679 41.8488 31.0756 41.689 31.0756C41.5291 31.0756 41.3835 31.1679 41.3154 31.3127L40.7625 32.4913C40.7039 32.6161 40.5869 32.7035 40.4505 32.724L39.1811 32.9179C39.0284 32.9415 38.9016 33.0484 38.8526 33.1949C38.8036 33.3414 38.8406 33.503 38.9484 33.6137L39.8934 34.5819C39.9851 34.6757 40.0268 34.8074 40.0057 34.9368L39.7862 36.2813C39.7608 36.4372 39.8267 36.5939 39.9558 36.6849C40.0849 36.7758 40.2545 36.7852 40.3928 36.7089L41.4897 36.1023C41.614 36.0336 41.7649 36.0336 41.8892 36.1023L42.9861 36.7089C43.1244 36.7857 43.2945 36.7766 43.4239 36.6855C43.5533 36.5945 43.6192 36.4375 43.5936 36.2813L43.3741 34.9368C43.3528 34.8075 43.3941 34.6758 43.4855 34.5819L44.4306 33.6137C44.5384 33.503 44.5752 33.3412 44.5261 33.1946C44.4766 33.048 44.3496 32.9412 44.1968 32.9179Z" fill="#4F5C65"></path><path d="M4.59092 26.7676C4.72004 26.6766 4.78587 26.52 4.76053 26.3641L4.54184 25.0196C4.52052 24.8902 4.56185 24.7585 4.65329 24.6646L5.59752 23.6965C5.70532 23.5858 5.74226 23.4241 5.69326 23.2776C5.64427 23.1311 5.51749 23.0242 5.36481 23.0007L4.09539 22.8067C3.95935 22.7859 3.84266 22.6986 3.78423 22.574L3.23128 21.3954C3.1634 21.2502 3.01764 21.1573 2.85738 21.1573C2.69713 21.1573 2.55136 21.2501 2.48348 21.3954L1.93054 22.574C1.8721 22.6987 1.75542 22.7859 1.61938 22.8067L0.349771 23.0008C0.19709 23.0243 0.0703066 23.1312 0.0213138 23.2777C-0.027679 23.4242 0.00925259 23.5859 0.117056 23.6966L1.06129 24.6647C1.15264 24.7586 1.19406 24.8903 1.17274 25.0196L0.954048 26.3641C0.92871 26.52 0.994532 26.6767 1.12365 26.7677C1.25277 26.8587 1.42238 26.868 1.56066 26.7917L2.65758 26.1851C2.78184 26.1164 2.93274 26.1164 3.05709 26.1851L4.15401 26.7917C4.29211 26.8678 4.4618 26.8586 4.59092 26.7676Z" fill="#4F5C65"></path><path d="M46.8659 23.6965C46.9737 23.5858 47.0106 23.4241 46.9616 23.2776C46.9126 23.1311 46.7859 23.0242 46.6332 23.0007L45.3638 22.8067C45.2277 22.7859 45.111 22.6986 45.0526 22.574L44.4996 21.3954C44.4318 21.2502 44.286 21.1573 44.1257 21.1573C43.9655 21.1573 43.8197 21.2501 43.7519 21.3954L43.1989 22.574C43.1405 22.6987 43.0238 22.7859 42.8877 22.8067L41.6183 23.0007C41.4656 23.0242 41.3389 23.1311 41.2899 23.2776C41.2409 23.4241 41.2778 23.5858 41.3856 23.6965L42.3298 24.6646C42.4212 24.7585 42.4626 24.8902 42.4413 25.0196L42.2226 26.3641C42.1973 26.5199 42.2631 26.6766 42.3922 26.7676C42.5213 26.8586 42.6909 26.8679 42.8292 26.7916L43.9261 26.185C44.0504 26.1163 44.2013 26.1163 44.3256 26.185L45.4226 26.7916C45.5608 26.8679 45.7305 26.8586 45.8596 26.7676C45.9886 26.6766 46.0545 26.52 46.0292 26.3641L45.8105 25.0196C45.7892 24.8902 45.8305 24.7585 45.9219 24.6646L46.8659 23.6965Z" fill="#4F5C65"></path><path d="M8.82088 32.7487L7.55147 32.5548C7.41515 32.5342 7.29809 32.4469 7.23946 32.322L6.68652 31.1442C6.61845 30.9995 6.47297 30.9071 6.31309 30.9071C6.15321 30.9071 6.00763 30.9995 5.93956 31.1442L5.38662 32.3195C5.32818 32.4441 5.2115 32.5314 5.07546 32.5522L3.80604 32.7487C3.65317 32.7719 3.5262 32.8787 3.47702 33.0253C3.42784 33.1719 3.46468 33.3337 3.57248 33.4445L4.51756 34.4126C4.6089 34.5065 4.65032 34.6383 4.62901 34.7676L4.40947 36.1162C4.38395 36.2723 4.44986 36.4293 4.57917 36.5204C4.70857 36.6114 4.87855 36.6205 5.01693 36.5437L6.11384 35.9371C6.23745 35.8671 6.38835 35.8655 6.51336 35.933L7.61028 36.5396C7.74856 36.6159 7.91826 36.6066 8.04728 36.5156C8.1764 36.4246 8.24223 36.268 8.21689 36.1121L7.99736 34.7676C7.97623 34.6382 8.01793 34.5064 8.10965 34.4126L9.05388 33.4445C9.16168 33.3338 9.19862 33.1721 9.14962 33.0256C9.10026 32.8791 8.97357 32.7722 8.82088 32.7487Z" fill="#4F5C65"></path><path d="M40.2564 13.7786C40.3477 13.8724 40.3891 14.0042 40.3678 14.1335L40.1491 15.4821C40.1238 15.638 40.1896 15.7947 40.3187 15.8856C40.4478 15.9766 40.6174 15.986 40.7557 15.9097L41.8526 15.3031C41.9769 15.2343 42.1278 15.2343 42.2522 15.3031L43.3491 15.9097C43.4876 15.9884 43.659 15.9803 43.7895 15.8889C43.9201 15.7976 43.9864 15.6392 43.9598 15.4821L43.7411 14.1376C43.7198 14.0083 43.7611 13.8766 43.8526 13.7827L44.7976 12.8145C44.9054 12.7037 44.9423 12.542 44.8931 12.3954C44.8439 12.2488 44.7169 12.142 44.5641 12.1187L43.2947 11.9248C43.1586 11.9039 43.0419 11.8166 42.9835 11.6921L42.4306 10.5143C42.3627 10.3691 42.2169 10.2762 42.0567 10.2762C41.8964 10.2762 41.7506 10.369 41.6828 10.5143L41.1298 11.6921C41.0714 11.8167 40.9547 11.9039 40.8187 11.9248L39.5492 12.1187C39.3966 12.1423 39.2698 12.2491 39.2208 12.3957C39.1718 12.5422 39.2087 12.7038 39.3165 12.8145L40.2564 13.7786Z" fill="#4F5C65"></path><path d="M15.5839 39.8755L14.3144 39.6816C14.1784 39.6607 14.0617 39.5734 14.0033 39.4488L13.4503 38.2702C13.3825 38.125 13.2367 38.0322 13.0764 38.0322C12.9162 38.0322 12.7704 38.1249 12.7025 38.2702L12.1496 39.4488C12.0912 39.5735 11.9745 39.6607 11.8384 39.6816L10.569 39.8755C10.4163 39.899 10.2895 40.0059 10.2406 40.1524C10.1916 40.2989 10.2285 40.4606 10.3363 40.5713L11.2805 41.5395C11.3719 41.6333 11.4133 41.7651 11.392 41.8944L11.1733 43.2389C11.1479 43.3947 11.2138 43.5514 11.3429 43.6424C11.472 43.7334 11.6416 43.7427 11.7799 43.6664L12.8768 43.0598C13.0011 42.9911 13.152 42.9911 13.2763 43.0598L14.3732 43.6664C14.5115 43.7427 14.6812 43.7334 14.8103 43.6424C14.9394 43.5514 15.0052 43.3948 14.9799 43.2389L14.7612 41.8935C14.7399 41.7642 14.7812 41.6326 14.8726 41.5386L15.8152 40.573C15.9239 40.4626 15.9616 40.3006 15.9129 40.1536C15.8639 40.0066 15.7369 39.8991 15.5839 39.8755Z" fill="#4F5C65"></path><path d="M32.0264 6.15534L31.8077 7.49983C31.7824 7.65569 31.8482 7.8124 31.9774 7.90337C32.1065 7.99434 32.2761 8.00369 32.4144 7.9274L33.5113 7.32079C33.6355 7.25206 33.7864 7.25206 33.9108 7.32079L35.0077 7.9274C35.146 8.00369 35.3157 7.99434 35.4447 7.90337C35.5737 7.8124 35.6397 7.65579 35.6143 7.49983L35.3956 6.15534C35.3743 6.02603 35.4156 5.89429 35.5071 5.80042L36.4496 4.83477C36.5574 4.72407 36.5944 4.56241 36.5454 4.4159C36.4964 4.26939 36.3696 4.16252 36.2169 4.13896L34.9475 3.94505C34.8115 3.9242 34.6948 3.83687 34.6363 3.71233L34.0834 2.5337C34.0155 2.3885 33.8697 2.29565 33.7095 2.29565C33.5492 2.29565 33.4035 2.3884 33.3356 2.5337L32.7826 3.71233C32.7242 3.83697 32.6075 3.9242 32.4715 3.94505L31.2021 4.13896C31.0494 4.16252 30.9226 4.26939 30.8736 4.4159C30.8246 4.56241 30.8615 4.72407 30.9694 4.83477L31.9152 5.80042C32.0064 5.89438 32.0478 6.02612 32.0264 6.15534Z" fill="#4F5C65"></path><g clip-path="url(#clip1_15692_6418)"><path d="M22.0147 28.7088C21.8944 28.8298 21.7302 28.8973 21.5597 28.8973C21.3892 28.8973 21.225 28.8298 21.1047 28.7088L17.4708 25.0743C17.0937 24.6972 17.0937 24.0857 17.4708 23.7093L17.9258 23.2542C18.3031 22.877 18.9139 22.877 19.291 23.2542L21.5597 25.523L27.69 19.3925C28.0672 19.0154 28.6786 19.0154 29.0552 19.3925L29.5102 19.8476C29.8873 20.2248 29.8873 20.8362 29.5102 21.2127L22.0147 28.7088Z" fill="#4F5C65"></path></g></g><path d="M62.8697 13.9174C62.7992 13.6301 62.6881 13.3781 62.5363 13.1613C62.3846 12.939 62.1948 12.752 61.9672 12.6002C61.7449 12.443 61.4847 12.3265 61.1866 12.2506C60.8939 12.1693 60.5714 12.1287 60.219 12.1287C59.4602 12.1287 58.8124 12.3102 58.2758 12.6734C57.7446 13.0366 57.338 13.5597 57.0562 14.2427C56.7797 14.9257 56.6415 15.7496 56.6415 16.7144C56.6415 17.6901 56.7743 18.5249 57.0399 19.2187C57.3055 19.9126 57.7012 20.4438 58.227 20.8124C58.7528 21.181 59.406 21.3653 60.1865 21.3653C60.8749 21.3653 61.4468 21.265 61.9021 21.0644C62.3629 20.8639 62.7071 20.5793 62.9347 20.2107C63.1624 19.8421 63.2762 19.4085 63.2762 18.9098L64.0568 18.9911H60.2516V15.7713H67.6344V18.0804C67.6344 19.5982 67.3118 20.8964 66.6668 21.9751C66.0272 23.0484 65.1436 23.8723 64.0161 24.4469C62.8941 25.016 61.6067 25.3006 60.154 25.3006C58.5333 25.3006 57.1104 24.9564 55.8853 24.268C54.6603 23.5796 53.7035 22.5985 53.0151 21.3246C52.3321 20.0508 51.9906 18.5357 51.9906 16.7795C51.9906 15.4027 52.1993 14.183 52.6167 13.1206C53.0395 12.0582 53.6249 11.1611 54.373 10.4293C55.121 9.69212 55.9856 9.13651 56.9667 8.76249C57.9478 8.38305 58.9994 8.19333 60.1215 8.19333C61.108 8.19333 62.0241 8.33427 62.8697 8.61614C63.7207 8.89258 64.4715 9.28828 65.1219 9.80324C65.7778 10.3128 66.3063 10.9172 66.7074 11.6164C67.1086 12.3157 67.3525 13.0827 67.4392 13.9174H62.8697ZM76.1494 25.0729H69.7423V8.421H76.0843C77.7972 8.421 79.277 8.75436 80.5238 9.42109C81.7759 10.0824 82.7408 11.0364 83.4183 12.2831C84.1013 13.5244 84.4428 15.0124 84.4428 16.747C84.4428 18.4815 84.104 19.9722 83.4265 21.2189C82.7489 22.4602 81.7895 23.4142 80.5482 24.081C79.3068 24.7423 77.8406 25.0729 76.1494 25.0729ZM74.263 21.2352H75.9868C76.8107 21.2352 77.5126 21.1024 78.0926 20.8368C78.6781 20.5712 79.1226 20.1131 79.4261 19.4627C79.7351 18.8122 79.8896 17.907 79.8896 16.747C79.8896 15.587 79.7324 14.6817 79.418 14.0313C79.109 13.3808 78.6537 12.9228 78.052 12.6572C77.4557 12.3916 76.724 12.2587 75.8567 12.2587H74.263V21.2352ZM86.5345 25.0729V8.421H93.7221C94.958 8.421 96.0394 8.66492 96.9663 9.15277C97.8933 9.64062 98.6142 10.3263 99.1291 11.2099C99.6441 12.0934 99.9016 13.126 99.9016 14.3077C99.9016 15.5002 99.636 16.5329 99.1047 17.4056C98.579 18.2783 97.839 18.9504 96.885 19.422C95.9364 19.8936 94.8279 20.1294 93.5595 20.1294H89.2664V16.6169H92.6489C93.1801 16.6169 93.6327 16.5247 94.0067 16.3404C94.3862 16.1507 94.6762 15.8824 94.8767 15.5355C95.0827 15.1886 95.1857 14.7793 95.1857 14.3077C95.1857 13.8307 95.0827 13.4242 94.8767 13.0881C94.6762 12.7466 94.3862 12.4864 94.0067 12.3075C93.6327 12.1232 93.1801 12.0311 92.6489 12.0311H91.0552V25.0729H86.5345ZM101.56 25.0729V8.421H108.748C109.984 8.421 111.065 8.64595 111.992 9.09585C112.919 9.54576 113.64 10.1935 114.155 11.0391C114.67 11.8847 114.927 12.8984 114.927 14.0801C114.927 15.2726 114.662 16.2781 114.131 17.0966C113.605 17.9151 112.865 18.533 111.911 18.9504C110.962 19.3678 109.854 19.5765 108.585 19.5765H104.292V16.064H107.675C108.206 16.064 108.658 15.9989 109.032 15.8688C109.412 15.7333 109.702 15.5192 109.902 15.2265C110.108 14.9338 110.211 14.5516 110.211 14.0801C110.211 13.603 110.108 13.2155 109.902 12.9173C109.702 12.6138 109.412 12.3916 109.032 12.2506C108.658 12.1043 108.206 12.0311 107.675 12.0311H106.081V25.0729H101.56ZM111.317 17.43L115.48 25.0729H110.569L106.504 17.43H111.317Z" fill="#4F5C65"></path><path d="M51.8866 41.927V32.7597H55.3244C56.0286 32.7597 56.6195 32.8821 57.0969 33.1268C57.5774 33.3715 57.94 33.7147 58.1847 34.1563C58.4324 34.595 58.5562 35.1068 58.5562 35.6917C58.5562 36.2795 58.4309 36.7898 58.1802 37.2225C57.9325 37.6522 57.5669 37.985 57.0835 38.2207C56.6001 38.4535 56.0062 38.5699 55.302 38.5699H52.8535V37.1912H55.0782C55.49 37.1912 55.8272 37.1345 56.0898 37.0211C56.3524 36.9047 56.5464 36.7361 56.6717 36.5153C56.8 36.2915 56.8642 36.0169 56.8642 35.6917C56.8642 35.3664 56.8 35.0889 56.6717 34.8591C56.5434 34.6263 56.3479 34.4502 56.0853 34.3309C55.8227 34.2085 55.484 34.1474 55.0692 34.1474H53.5473V41.927H51.8866ZM56.6225 37.7731L58.8919 41.927H57.0388L54.8096 37.7731H56.6225ZM60.0848 41.927V32.7597H66.0472V34.1518H61.7455V36.6406H65.7383V38.0327H61.7455V40.5349H66.083V41.927H60.0848ZM68.9186 41.927H67.1461L70.3734 32.7597H72.4235L75.6554 41.927H73.8828L71.4343 34.6397H71.3627L68.9186 41.927ZM68.9768 38.3326H73.8112V39.6665H68.9768V38.3326ZM79.9693 41.927H76.8628V32.7597H80.032C80.9422 32.7597 81.724 32.9433 82.3775 33.3103C83.034 33.6744 83.5384 34.1981 83.8905 34.8815C84.2426 35.5648 84.4187 36.3825 84.4187 37.3344C84.4187 38.2894 84.2411 39.11 83.886 39.7964C83.5339 40.4827 83.0251 41.0094 82.3596 41.3765C81.6971 41.7435 80.9004 41.927 79.9693 41.927ZM78.5235 40.4902H79.8888C80.5274 40.4902 81.06 40.3738 81.4868 40.141C81.9135 39.9053 82.2343 39.5546 82.4492 39.0891C82.664 38.6206 82.7714 38.0357 82.7714 37.3344C82.7714 36.6332 82.664 36.0512 82.4492 35.5887C82.2343 35.1232 81.9165 34.7755 81.4957 34.5457C81.0779 34.313 80.5587 34.1966 79.938 34.1966H78.5235V40.4902ZM84.8529 32.7597H86.7284L88.971 36.8152H89.0605L91.3031 32.7597H93.1787L89.8439 38.5072V41.927H88.1877V38.5072L84.8529 32.7597Z" fill="#4F5C65"></path><defs><clipPath id="clip0_15692_6418"><rect width="46.9824" height="46.9824" fill="white" transform="translate(0 0.508789)"></rect></clipPath><clipPath id="clip1_15692_6418"><rect width="12.605" height="12.605" fill="white" transform="translate(17.1887 17.6972)"></rect></clipPath></defs></svg>