<?xml version="1.0" encoding="UTF-8"?> <svg xmlns="http://www.w3.org/2000/svg" version="1.1" width="500" height="101"><path d="M0 0 C165 0 330 0 500 0 C500 33.33 500 66.66 500 101 C335 101 170 101 0 101 C0 67.67 0 34.34 0 0 Z " fill="#FDFDFD" transform="translate(0,0)"></path><path d="M0 0 C5.61 0 11.22 0 17 0 C17 8.58 17 17.16 17 26 C26.24 26 35.48 26 45 26 C45 17.42 45 8.84 45 0 C50.61 0 56.22 0 62 0 C62 22.11 62 44.22 62 67 C56.39 67 50.78 67 45 67 C45 58.42 45 49.84 45 41 C35.76 41 26.52 41 17 41 C17 49.58 17 58.16 17 67 C11.39 67 5.78 67 0 67 C0 44.89 0 22.78 0 0 Z " fill="#03AFED" transform="translate(149,33)"></path><path d="M0 0 C1.37720215 0.00978882 1.37720215 0.00978882 2.78222656 0.01977539 C18.58179304 0.33179304 18.58179304 0.33179304 22.625 4.375 C22.69819621 7.07154854 22.71742537 9.74191458 22.6875 12.4375 C22.68298828 13.19611328 22.67847656 13.95472656 22.67382812 14.73632812 C22.6620068 16.61591871 22.64407078 18.49546899 22.625 20.375 C22.068125 20.18164062 21.51125 19.98828125 20.9375 19.7890625 C10.10678119 16.09344561 -0.09718604 13.09208667 -11.328125 17.25390625 C-15.83718879 19.72356524 -18.76873298 23.55619893 -20.375 28.375 C-21.06158026 35.34210135 -20.94048636 41.74777262 -16.375 47.375 C-12.15643402 50.67315158 -7.53444751 52.51143651 -2.1875 52.625 C-1.11435547 52.66367188 -1.11435547 52.66367188 -0.01953125 52.703125 C3.62230776 52.35560528 3.62230776 52.35560528 10.625 49.375 C10.955 43.435 11.285 37.495 11.625 31.375 C17.235 31.375 22.845 31.375 28.625 31.375 C29.97853095 51.69467451 29.97853095 51.69467451 27.04296875 57.5078125 C24.67279786 59.68580737 22.53909197 61.01017211 19.625 62.375 C18.61566406 62.87644531 17.60632813 63.37789062 16.56640625 63.89453125 C4.71168569 69.26689525 -6.00907736 69.77162618 -18.32421875 65.6328125 C-26.57594676 62.2306916 -32.6205669 56.24765925 -36.41015625 48.16796875 C-39.45917349 39.616539 -40.2512066 28.84966813 -36.6875 20.375 C-35.95339526 19.02109748 -35.18380923 17.68564466 -34.375 16.375 C-33.86646484 15.44107422 -33.86646484 15.44107422 -33.34765625 14.48828125 C-28.85690546 7.12089294 -20.8024706 3.52271439 -12.84179688 0.97265625 C-8.56790745 -0.0628229 -4.37780183 -0.06757842 0 0 Z " fill="#02AFED" transform="translate(99.375,32.625)"></path><path d="M0 0 C3.08369186 2.47730641 4.71118318 4.89686228 6 8.6875 C6.64292349 14.68811927 5.343419 18.70496673 1.625 23.4375 C-2.37573811 26.51499085 -6.46812996 26.96147526 -11.39453125 27.1015625 C-12.59658203 27.14023438 -13.79863281 27.17890625 -15.03710938 27.21875 C-16.28298828 27.2496875 -17.52886719 27.280625 -18.8125 27.3125 C-20.07771484 27.35117188 -21.34292969 27.38984375 -22.64648438 27.4296875 C-25.76417851 27.52380657 -28.88186914 27.60944361 -32 27.6875 C-19.70543044 34.45954019 -8.86820512 31.34546694 4 27.6875 C4 32.3075 4 36.9275 4 41.6875 C-7.92005106 46.33429957 -23.44020057 48.66280261 -35.8125 44.125 C-43.30618841 40.31100805 -48.20567264 35.6962418 -51 27.6875 C-51.92400211 20.59632102 -52.42236908 12.88786266 -48.625 6.5625 C-37.31666309 -7.3862269 -14.79848721 -9.61746548 0 0 Z " fill="#1C1C1A" transform="translate(441,54.3125)"></path><path d="M0 0 C5.28 0 10.56 0 16 0 C16.04898438 2.35898437 16.09796875 4.71796875 16.1484375 7.1484375 C16.20242103 9.42877645 16.25973872 11.70900882 16.31738281 13.98925781 C16.35570585 15.57609138 16.39055288 17.16301281 16.421875 18.75 C16.46745431 21.02896566 16.52545838 23.30732468 16.5859375 25.5859375 C16.59748871 26.29744965 16.60903992 27.00896179 16.62094116 27.74203491 C16.63408239 31.82103657 16.63408239 31.82103657 19 35 C26.01154108 36.12010096 32.0023501 34.2040436 38.07592773 30.85546875 C40.28645208 29.08522795 40.28645208 29.08522795 40.54589844 25.99731445 C40.5668457 24.7980835 40.58779297 23.59885254 40.609375 22.36328125 C40.64160156 21.06455078 40.67382812 19.76582031 40.70703125 18.42773438 C40.72177586 17.05599405 40.73609331 15.68424907 40.75 14.3125 C40.77815875 12.92899889 40.80808608 11.54553256 40.83984375 10.16210938 C40.91065317 6.77505902 40.9575764 3.38752481 41 0 C46.28 0 51.56 0 57 0 C57.12357848 6.47779366 57.21433069 12.95490166 57.2746582 19.43359375 C57.29980574 21.63749136 57.33392827 23.84130555 57.37719727 26.04492188 C57.43783686 29.21244886 57.46620749 32.3788736 57.48828125 35.546875 C57.51408768 36.53242371 57.5398941 37.51797241 57.56648254 38.53338623 C57.56928858 45.37396861 57.56928858 45.37396861 54.609375 48.62890625 C50.73877727 50.66270835 48.30870715 50.29211574 44 50 C43.01 48.02 42.02 46.04 41 44 C40.35417969 44.433125 39.70835937 44.86625 39.04296875 45.3125 C32.31558857 49.28818843 26.94024934 50.62126935 19.1875 50.6875 C17.98806763 50.71553711 17.98806763 50.71553711 16.7644043 50.74414062 C11.7991142 50.64908149 8.54986548 49.61966093 4.5012207 46.75317383 C-0.10127077 41.37823623 -0.42434383 35.74983492 -0.29296875 29.00390625 C-0.28872391 28.17036118 -0.28447906 27.3368161 -0.28010559 26.47801208 C-0.26343314 23.83916689 -0.22580358 21.20111084 -0.1875 18.5625 C-0.17243833 16.76368297 -0.15875253 14.96485387 -0.14648438 13.16601562 C-0.11356728 8.77704385 -0.06186567 4.38865531 0 0 Z " fill="#04AFED" transform="translate(217,50)"></path><path d="M0 0 C20.79 0 41.58 0 63 0 C63 4.95 63 9.9 63 15 C62.67 15.33 62.34 15.66 62 16 C54.74 16 47.48 16 40 16 C40 32.83 40 49.66 40 67 C34.39 67 28.78 67 23 67 C23 49.84 23 32.68 23 15 C15.41 15 7.82 15 0 15 C0 10.05 0 5.1 0 0 Z " fill="#0AB1ED" transform="translate(0,33)"></path><path d="M0 0 C0 5.28 0 10.56 0 16 C7.26 16 14.52 16 22 16 C22 20.62 22 25.24 22 30 C14.74 30 7.48 30 0 30 C0.144375 32.5575 0.28875 35.115 0.4375 37.75 C0.48060303 38.54889648 0.52370605 39.34779297 0.56811523 40.17089844 C0.77051551 43.56848441 1.10379549 46.7213586 2 50 C10.05364285 50.33608711 16.49783264 50.0517291 24 47 C24 51.62 24 56.24 24 61 C15.03669848 66.34350668 6.36445045 67.19214304 -4 66 C-8.58630418 64.50977231 -10.94872491 62.50251846 -13.68359375 58.59375 C-15.63001428 53.28007972 -15.31629083 48.23235472 -15.1875 42.625 C-15.17396484 41.50738281 -15.16042969 40.38976562 -15.14648438 39.23828125 C-15.11127164 36.49168789 -15.06202096 33.74609711 -15 31 C-17.31 31 -19.62 31 -22 31 C-23.01206223 25.91860423 -23.76890871 20.95784506 -22 16 C-18.22955894 11.14757439 -12.9927872 7.68004902 -7.92285156 4.29589844 C-5.93176254 2.98781506 -5.93176254 2.98781506 -3.88183594 1.33691406 C-2 0 -2 0 0 0 Z " fill="#1D1D1B" transform="translate(362,34)"></path><path d="M0 0 C7.59 0 15.18 0 23 0 C23 17.16 23 34.32 23 52 C28.28 52 33.56 52 39 52 C39 52.33 39 52.66 39 53 C26.13 53 13.26 53 0 53 C0 35.51 0 18.02 0 0 Z " fill="#FBFDFE" transform="translate(0,48)"></path><path d="M0 0 C0 4.62 0 9.24 0 14 C-0.9075 13.67 -1.815 13.34 -2.75 13 C-11.44779575 10.59273128 -19.05187688 11.29930214 -26.94140625 15.61328125 C-29.01686096 17.01135795 -30.46101131 18.02512517 -32 20 C-32.50664617 22.90087655 -32.50664617 22.90087655 -32.51171875 26.19921875 C-32.54716797 27.40771484 -32.58261719 28.61621094 -32.61914062 29.86132812 C-32.65297852 31.7552832 -32.65297852 31.7552832 -32.6875 33.6875 C-32.72166016 34.96173828 -32.75582031 36.23597656 -32.79101562 37.54882812 C-32.87360195 40.69890643 -32.93847391 43.84943999 -33 47 C-37.95 47 -42.9 47 -48 47 C-48 30.83 -48 14.66 -48 -2 C-43.05 -2 -38.1 -2 -33 -2 C-32.67 -0.35 -32.34 1.3 -32 3 C-31.13375 2.38125 -30.2675 1.7625 -29.375 1.125 C-20.49222098 -4.46786086 -9.23940219 -5.15687564 0 0 Z " fill="#1A1A18" transform="translate(500,52)"></path><path d="M0 0 C0 11.55 0 23.1 0 35 C-15.84 35 -31.68 35 -48 35 C-48 34.67 -48 34.34 -48 34 C-43.05 34 -38.1 34 -33 34 C-33.08121094 32.04835937 -33.16242188 30.09671875 -33.24609375 28.0859375 C-33.31175747 25.51567189 -33.37545693 22.94535556 -33.4375 20.375 C-33.52547852 18.44720703 -33.52547852 18.44720703 -33.61523438 16.48046875 C-33.78438676 7.1529228 -33.78438676 7.1529228 -31.52270508 3.82861328 C-29.74598232 2.283209 -28.06637696 1.11988575 -26 0 C-24.948125 -0.61875 -23.89625 -1.2375 -22.8125 -1.875 C-14.293783 -4.38871977 -8.13388166 -3.48594928 0 0 Z " fill="#FEFEFE" transform="translate(500,66)"></path><path d="M0 0 C0 0.99 0 1.98 0 3 C-1.90736654 4.72845616 -3.71066898 6.1687125 -5.8125 7.625 C-6.4005542 8.03451904 -6.9886084 8.44403809 -7.59448242 8.8659668 C-12.23225198 11.89885936 -15.90927357 12.7870331 -21.484375 12.8359375 C-26.39838612 13.15641649 -30.56547827 15.56547827 -34 19 C-33.96836499 20.33442244 -33.9005001 21.66810661 -33.8125 23 C-34.09011164 26.7115469 -35.17522674 28.41856566 -37.8828125 30.81640625 C-46.85851587 38 -46.85851587 38 -50 38 C-50 24.8 -50 11.6 -50 -2 C-45.05 -2 -40.1 -2 -35 -2 C-35 -0.35 -35 1.3 -35 3 C-34.24074219 2.65066406 -33.48148437 2.30132812 -32.69921875 1.94140625 C-31.70535156 1.48636719 -30.71148437 1.03132813 -29.6875 0.5625 C-28.70136719 0.11003906 -27.71523438 -0.34242187 -26.69921875 -0.80859375 C-17.97013093 -4.66151963 -8.53810748 -4.01793293 0 0 Z " fill="#02AEEC" transform="translate(331,52)"></path><path d="M0 0 C9.24 0 18.48 0 28 0 C28 8.58 28 17.16 28 26 C33.28 26 38.56 26 44 26 C44 26.33 44 26.66 44 27 C24.2 27 4.4 27 -16 27 C-16 26.67 -16 26.34 -16 26 C-10.72 26 -5.44 26 0 26 C0 17.42 0 8.84 0 0 Z " fill="#FDFEFE" transform="translate(166,74)"></path><path d="M0 0 C1.60907648 2.84356685 2.24769226 4.8646229 2.22705078 8.12597656 C2.22689972 8.92650452 2.22674866 9.72703247 2.22659302 10.55181885 C2.21627045 11.40612488 2.20594788 12.26043091 2.1953125 13.140625 C2.1924826 14.02280701 2.18965271 14.90498901 2.18673706 15.81390381 C2.17555961 18.62607499 2.15045951 21.4379254 2.125 24.25 C2.11496705 26.15884956 2.10584175 28.06770412 2.09765625 29.9765625 C2.07562824 34.65116489 2.04111511 39.32552809 2 44 C-3.28 44 -8.56 44 -14 44 C-14.20783663 39.29929982 -14.38639455 34.61474006 -14.49438477 29.91308594 C-14.53940618 28.31813362 -14.60065077 26.72354785 -14.67895508 25.12988281 C-15.31221873 11.90170878 -15.31221873 11.90170878 -12.06201172 7.19140625 C-9.80015731 5.16375804 -7.60804199 3.54727353 -5 2 C-2 0 -2 0 0 0 Z " fill="#21211F" transform="translate(335,56)"></path><path d="M0 0 C-1.32 8.91 -2.64 17.82 -4 27 C-9 28 -9 28 -11.89453125 26.34765625 C-12.85746094 25.59355469 -13.82039063 24.83945312 -14.8125 24.0625 C-16.27623047 22.93521484 -16.27623047 22.93521484 -17.76953125 21.78515625 C-18.50558594 21.19605469 -19.24164063 20.60695313 -20 20 C-18.52278578 16.54798361 -16.56205999 14.35038064 -13.875 11.75 C-13.15054687 11.04359375 -12.42609375 10.3371875 -11.6796875 9.609375 C-11.12539063 9.07828125 -10.57109375 8.5471875 -10 8 C-14.52781398 9.50927133 -17.98152754 12.5555422 -21.796875 15.3828125 C-25.75941319 17.38341105 -27.75103803 17.03706892 -32 16 C-32.99 15.67 -33.98 15.34 -35 15 C-35 14.01 -35 13.02 -35 12 C-34.13197754 11.64172119 -33.26395508 11.28344238 -32.36962891 10.91430664 C-29.15275038 9.58612084 -25.93614615 8.2572751 -22.71972656 6.92797852 C-21.32693262 6.35251762 -19.93402951 5.77732087 -18.54101562 5.20239258 C-16.54007749 4.37650679 -14.53953242 3.54967538 -12.5390625 2.72265625 C-11.33459473 2.22515869 -10.13012695 1.72766113 -8.88916016 1.21508789 C-3.76308991 -0.94077248 -3.76308991 -0.94077248 0 0 Z " fill="#1B1B1A" transform="translate(400,1)"></path><path d="M0 0 C2.39453125 1.52734375 2.39453125 1.52734375 4 3 C3.125 7.875 3.125 7.875 2 9 C0.29227642 9.08713831 -1.41898649 9.10700007 -3.12890625 9.09765625 C-4.68061523 9.09282227 -4.68061523 9.09282227 -6.26367188 9.08789062 C-7.35228516 9.07951172 -8.44089844 9.07113281 -9.5625 9.0625 C-11.2012207 9.05573242 -11.2012207 9.05573242 -12.87304688 9.04882812 C-15.58208495 9.03699826 -18.29101599 9.02051543 -21 9 C-20.46701783 5.17394939 -20.34179928 4.28742212 -17.25 1.6875 C-11.97830403 -1.00862725 -5.74532669 -0.83363564 0 0 Z " fill="#EEEEEE" transform="translate(427,63)"></path><path d="M0 0 C0 3.96 0 7.92 0 12 C-4.62 12 -9.24 12 -14 12 C-2.36363636 0 -2.36363636 0 0 0 Z " fill="#151513" transform="translate(296,87)"></path><path d="M0 0 C1.4731994 2.74997221 2.22404875 4.89619499 3 8 C-7.23 8 -17.46 8 -28 8 C-28 7.67 -28 7.34 -28 7 C-26.47632813 6.99613281 -26.47632813 6.99613281 -24.921875 6.9921875 C-15.2993607 6.78468445 -8.36131536 5.17831463 0 0 Z " fill="#E5F4FC" transform="translate(258,93)"></path><path d="M0 0 C0.66 0 1.32 0 2 0 C2 4.62 2 9.24 2 14 C0.35 14.66 -1.3 15.32 -3 16 C-2.67 15.34 -2.34 14.68 -2 14 C-1.34 14 -0.68 14 0 14 C-0.08378906 13.07316406 -0.16757812 12.14632812 -0.25390625 11.19140625 C-0.35574219 9.99386719 -0.45757812 8.79632813 -0.5625 7.5625 C-0.71912109 5.77005859 -0.71912109 5.77005859 -0.87890625 3.94140625 C-0.91886719 2.97074219 -0.95882813 2.00007813 -1 1 C-0.67 0.67 -0.34 0.34 0 0 Z " fill="#292928" transform="translate(384,81)"></path></svg> 