<?xml version="1.0" encoding="UTF-8"?> <svg xmlns="http://www.w3.org/2000/svg" version="1.1" width="490" height="103"><path d="M0 0 C161.7 0 323.4 0 490 0 C490 33.99 490 67.98 490 103 C328.3 103 166.6 103 0 103 C0 69.01 0 35.02 0 0 Z " fill="#FCFCFD" transform="translate(0,0)"></path><path d="M0 0 C1.71110962 0.00132935 1.71110962 0.00132935 3.45678711 0.00268555 C14.99941987 0.16253782 25.41128733 2.295046 36.30639648 5.94799805 C37.10649643 6.21589645 37.90659637 6.48379486 38.73094177 6.7598114 C39.33535599 6.96282364 39.9397702 7.16583588 40.5625 7.375 C40.65556871 15.17288084 40.72645047 22.97062926 40.76974869 30.76892757 C40.79053981 34.39083037 40.81869947 38.01235055 40.86425781 41.6340332 C40.90802219 45.135394 40.93170069 48.63638898 40.94200897 52.1380024 C40.9528937 54.11042992 40.98407019 56.08271222 41.01568604 58.05491638 C41.01786062 66.840264 39.4361534 72.62241937 34.9375 80.0625 C32.70479324 82.23645132 30.7580215 83.54899394 28.08984375 85.1171875 C27.1968457 85.6443335 26.30384766 86.17147949 25.38378906 86.71459961 C24.45276367 87.26253174 23.52173828 87.81046387 22.5625 88.375 C21.67014648 88.9119751 20.77779297 89.4489502 19.85839844 90.00219727 C17.16534717 91.62267122 14.45909809 93.21902762 11.75 94.8125 C10.83541016 95.36615234 9.92082031 95.91980469 8.97851562 96.49023438 C8.09228516 97.00779297 7.20605469 97.52535156 6.29296875 98.05859375 C5.50301514 98.52837646 4.71306152 98.99815918 3.89916992 99.48217773 C0.96048962 100.60502319 -0.46363098 100.32199114 -3.4375 99.375 C-5.60644531 98.34692383 -5.60644531 98.34692383 -7.765625 97.08203125 C-8.56613281 96.61603516 -9.36664063 96.15003906 -10.19140625 95.66992188 C-11.42697266 94.93612305 -11.42697266 94.93612305 -12.6875 94.1875 C-13.49574219 93.71763672 -14.30398437 93.24777344 -15.13671875 92.76367188 C-26.73213808 85.96411798 -34.15185839 81.00594638 -39.4375 68.375 C-39.7675 67.715 -40.0975 67.055 -40.4375 66.375 C-40.52851612 64.5264292 -40.55503146 62.67453621 -40.55102539 60.82373047 C-40.55094986 59.66267792 -40.55087433 58.50162537 -40.55079651 57.3053894 C-40.54563522 56.04703278 -40.54047394 54.78867615 -40.53515625 53.4921875 C-40.5337413 52.20764679 -40.53232635 50.92310608 -40.53086853 49.59963989 C-40.52704911 46.18343158 -40.51722373 42.76726574 -40.50616455 39.35107422 C-40.49593807 35.86556574 -40.49136826 32.3800504 -40.48632812 28.89453125 C-40.47560096 22.05467005 -40.45853142 15.21483706 -40.4375 8.375 C-39.34421387 7.89812744 -38.25092773 7.42125488 -37.12451172 6.92993164 C-36.20205154 6.52757042 -36.20205154 6.52757042 -35.26095581 6.11708069 C-32.74551813 5.09338836 -30.20261542 4.43854363 -27.5625 3.8125 C-26.61632813 3.58433594 -25.67015625 3.35617187 -24.6953125 3.12109375 C-23.62023437 2.87488281 -22.54515625 2.62867188 -21.4375 2.375 C-20.79385498 2.20291016 -20.15020996 2.03082031 -19.48706055 1.85351562 C-12.98791873 0.21013911 -6.68455048 -0.00935591 0 0 Z " fill="#051B48" transform="translate(46.4375,1.625)"></path><path d="M0 0 C6.34493944 3.68989065 10.81865698 9.8796586 13 16.875 C15.03555943 28.24211276 14.28682724 40.62587803 8.01953125 50.57421875 C3.38524253 56.31140456 -1.39410819 59.67100513 -8.77734375 60.5 C-17.17517404 60.7867989 -23.15061468 60.12551443 -29.3671875 54.32421875 C-37.28376143 45.86563872 -38.83137453 36.87603768 -38.71484375 25.5078125 C-38.02003474 17.03309977 -34.48787652 9.13458746 -28.4375 3.125 C-20.45270284 -3.62503472 -9.45201714 -4.03439756 0 0 Z " fill="#051947" transform="translate(314.4375,22.875)"></path><path d="M0 0 C4.29 0 8.58 0 13 0 C16.57450089 8.9616033 19.70990842 17.9737723 22.375 27.25 C22.76872803 28.60677856 22.76872803 28.60677856 23.17041016 29.9909668 C23.53078369 31.27161011 23.53078369 31.27161011 23.8984375 32.578125 C24.11161621 33.33512695 24.32479492 34.09212891 24.54443359 34.87207031 C25 37 25 37 25 41 C25.66 41 26.32 41 27 41 C27.10828125 40.04222656 27.2165625 39.08445313 27.328125 38.09765625 C28.00217693 33.4040394 29.35972825 28.96174473 30.75 24.4375 C31.01441895 23.56577148 31.27883789 22.69404297 31.55126953 21.79589844 C33.80845187 14.43945618 36.33277409 7.21719952 39 0 C43.62 0 48.24 0 53 0 C53.43272067 6.45513368 53.8597377 12.9106117 54.28173828 19.36645508 C54.42572307 21.55731091 54.57119839 23.74806937 54.71826172 25.9387207 C56.51907656 52.79781277 56.51907656 52.79781277 56 60 C55 61 55 61 52.71484375 61.09765625 C51.79832031 61.08605469 50.88179687 61.07445312 49.9375 61.0625 C49.01839844 61.05347656 48.09929687 61.04445312 47.15234375 61.03515625 C46.44207031 61.02355469 45.73179687 61.01195312 45 61 C44.94465088 60.05680908 44.88930176 59.11361816 44.83227539 58.1418457 C44.62444634 54.62864799 44.41349055 51.11566661 44.20043945 47.6027832 C44.10902346 46.08495413 44.01883921 44.56705034 43.92993164 43.04907227 C43.80161365 40.86193162 43.66880737 38.67510169 43.53515625 36.48828125 C43.41732788 34.51661987 43.41732788 34.51661987 43.29711914 32.50512695 C43.04319885 28.72809796 43.04319885 28.72809796 42 24 C38.04 35.88 34.08 47.76 30 60 C27.03 60 24.06 60 21 60 C10 25.85919056 10 25.85919056 10 20 C9.34 20 8.68 20 8 20 C8.00523682 20.5669458 8.01047363 21.1338916 8.01586914 21.71801758 C8.12027061 34.8527802 7.84763645 47.89190773 7 61 C5.35425434 61.02688151 3.70838587 61.04634123 2.0625 61.0625 C1.14597656 61.07410156 0.22945312 61.08570313 -0.71484375 61.09765625 C-3 61 -3 61 -4 60 C-3.96983405 57.60958847 -3.87418225 55.25556822 -3.73046875 52.87109375 C-3.69003952 52.13744095 -3.64961029 51.40378815 -3.60795593 50.64790344 C-3.47348956 48.24407421 -3.33083335 45.84081562 -3.1875 43.4375 C-3.09317639 41.79655438 -2.99893834 40.15560384 -2.90478516 38.51464844 C-2.15378727 25.65666882 -1.18200166 12.82597544 0 0 Z " fill="#061A48" transform="translate(171,22)"></path><path d="M0 0 C1.94834717 -0.05396947 3.89711912 -0.09277831 5.84594727 -0.125 C6.93110123 -0.14820312 8.01625519 -0.17140625 9.1342926 -0.1953125 C12 0 12 0 14.46484375 2 C14.95082031 2.99 15.43679688 3.98 15.9375 5 C16.5459375 6.16144531 17.154375 7.32289062 17.78125 8.51953125 C18.28398437 9.54747803 18.28398437 9.54747803 18.796875 10.59619141 C20.24216075 13.48383011 21.78822535 16.30696017 23.34375 19.13671875 C31.3955743 33.79114859 31.3955743 33.79114859 34 39 C34 26.13 34 13.26 34 0 C37.63 0 41.26 0 45 0 C45 19.8 45 39.6 45 60 C41.37 60 37.74 60 34 60 C31.23915885 56.86904609 29.80515867 54.64860478 28 51 C26.80862192 48.85733272 25.61583423 46.71544881 24.421875 44.57421875 C23.19328837 42.28111956 21.96939871 39.98549821 20.75 37.6875 C20.12020019 36.50954711 19.48999401 35.3318114 18.859375 34.15429688 C14.04816755 25.14883637 14.04816755 25.14883637 12 21 C11.97494385 22.17618896 11.9498877 23.35237793 11.92407227 24.56420898 C11.83017194 28.91214622 11.72990952 33.25991716 11.62768555 37.60766602 C11.58427067 39.49239218 11.54260057 41.37715936 11.50268555 43.26196289 C11.44514107 45.96513249 11.38140196 48.66809436 11.31640625 51.37109375 C11.29133751 52.64296791 11.29133751 52.64296791 11.26576233 53.9405365 C11.11387171 59.88612829 11.11387171 59.88612829 10 61 C8.50261876 61.0979057 7.00057108 61.12974864 5.5 61.125 C4.6853125 61.12757812 3.870625 61.13015625 3.03125 61.1328125 C1 61 1 61 0 60 C-0.09386381 58.1281906 -0.11743804 56.2528194 -0.11352539 54.37866211 C-0.11344986 53.17749252 -0.11337433 51.97632294 -0.11329651 50.73875427 C-0.10813522 49.4314888 -0.10297394 48.12422333 -0.09765625 46.77734375 C-0.09579198 45.43355868 -0.09436812 44.08977293 -0.09336853 42.74598694 C-0.08954402 39.20317723 -0.07971432 35.6604083 -0.06866455 32.11761475 C-0.05844899 28.50484773 -0.0538706 24.89207416 -0.04882812 21.27929688 C-0.03809198 14.1861812 -0.02101636 7.09309326 0 0 Z " fill="#061B49" transform="translate(415,22)"></path><path d="M0 0 C7.5476897 8.06351446 12.02750656 18.73510404 11.6875 29.6875 C11.54535124 32.48092618 11.30844439 35.21776932 11 38 C5.95749572 38 4.22094347 36.59750368 0 34 C-0.33 36.31 -0.66 38.62 -1 41 C-5.75481646 40.42365861 -8.97048212 38.44931479 -13 36 C-13 37.98 -13 39.96 -13 42 C-17.11319724 42 -18.12915352 41.62880673 -21.51171875 39.62890625 C-22.77145508 38.89124023 -22.77145508 38.89124023 -24.05664062 38.13867188 C-24.92482422 37.61853516 -25.79300781 37.09839844 -26.6875 36.5625 C-27.56728516 36.04623047 -28.44707031 35.52996094 -29.35351562 34.99804688 C-35.8103266 31.1896734 -35.8103266 31.1896734 -37 30 C-37.94794748 23.54290484 -38.3386173 16.40943376 -37 10 C-34.27303447 6.37614276 -31.48873874 4.69460775 -27 4 C-25.32836805 4.65411685 -23.66119171 5.31980568 -22 6 C-20.03466419 5.36052406 -20.03466419 5.36052406 -18.375 4.0625 C-17.26125 3.381875 -16.1475 2.70125 -15 2 C-14.01 2.33 -13.02 2.66 -12 3 C-12 3.66 -12 4.32 -12 5 C-11.38511719 4.6390625 -10.77023438 4.278125 -10.13671875 3.90625 C-8.92435547 3.21015625 -8.92435547 3.21015625 -7.6875 2.5 C-6.88699219 2.0359375 -6.08648437 1.571875 -5.26171875 1.09375 C-3 0 -3 0 0 0 Z " fill="#01D3E2" transform="translate(60,19)"></path><path d="M0 0 C-0.66 2.97 -1.32 5.94 -2 9 C-3.00740234 8.76216797 -3.00740234 8.76216797 -4.03515625 8.51953125 C-7.53295899 7.90660929 -10.88669588 7.75544086 -14.4375 7.6875 C-15.71496094 7.65011719 -16.99242187 7.61273438 -18.30859375 7.57421875 C-23.7308763 8.19964605 -26.72120363 10.58295537 -30.3125 14.5625 C-34.5766074 20.72176624 -33.79583645 29.75895896 -33 37 C-31.49625984 41.96093716 -28.76909439 44.85088548 -24.375 47.5 C-19.33794592 49.70009259 -14.4056211 49.27028105 -9 49 C-9 44.05 -9 39.1 -9 34 C-12.3 34 -15.6 34 -19 34 C-19 31.03 -19 28.06 -19 25 C-12.4 25 -5.8 25 1 25 C1 35.23 1 45.46 1 56 C-10.29357514 59.38807254 -20.8970309 61.43686091 -31.91796875 56.19140625 C-39.38503309 51.91850827 -42.14414245 46.63964387 -45.25 38.875 C-47.12602535 29.18220234 -47.0934568 19.66490432 -42 11 C-37.51123031 4.40639271 -31.77291531 -0.04666443 -24.1875 -2.61328125 C-16.17925671 -4.02902426 -7.12788794 -4.17242221 0 0 Z " fill="#051947" transform="translate(380,24)"></path><path d="M0 0 C18.48 0 36.96 0 56 0 C56 0.66 56 1.32 56 2 C55.41210693 2.01458252 54.82421387 2.02916504 54.21850586 2.04418945 C39.8018854 2.44203476 26.53873251 3.44161949 12.77001953 8.06323242 C11.14919968 8.60641365 11.14919968 8.60641365 9.49563599 9.16056824 C8.67207611 9.43758072 7.84851624 9.7145932 7 10 C6.90689822 17.4067109 6.83603315 24.8132935 6.79275131 32.22047329 C6.77196723 35.66078449 6.74382111 39.10069235 6.69824219 42.54077148 C6.64605354 46.50499472 6.62697879 50.46906048 6.609375 54.43359375 C6.58872986 55.65582138 6.56808472 56.87804901 6.54681396 58.13731384 C6.54492984 65.37464141 7.40905514 70.68967966 11 77 C11.556875 78.051875 12.11375 79.10375 12.6875 80.1875 C19.05531282 87.93213722 29.5738904 92.22212104 38.2434082 97.00610352 C39.78982248 97.88107954 41.30246816 98.81517479 42.80859375 99.7578125 C45.39232411 101.22238693 47.07616122 101.25061475 50 101 C49.67 101.66 49.34 102.32 49 103 C32.83 103 16.66 103 0 103 C0 69.01 0 35.02 0 0 Z " fill="#FCFCFC" transform="translate(0,0)"></path><path d="M0 0 C3.63 0 7.26 0 11 0 C13.65433768 6.6967235 15.6450309 13.49749892 17.5625 20.4375 C17.86607422 21.51837891 18.16964844 22.59925781 18.48242188 23.71289062 C19.82318616 28.52971047 21.10659997 33.33252227 22.15234375 38.22265625 C22.59537405 41.77374737 22.59537405 41.77374737 24 43 C24.1959375 42.13503906 24.391875 41.27007812 24.59375 40.37890625 C31.63352827 10.73294347 31.63352827 10.73294347 37 0 C40.63 0 44.26 0 48 0 C46.52797432 7.27686904 44.41997936 14.21052746 42.0859375 21.25390625 C41.71143463 22.39536606 41.33693176 23.53682587 40.95108032 24.71287537 C39.76307077 28.33075231 38.56913188 31.94663978 37.375 35.5625 C36.56471066 38.02656334 35.75481074 40.49075478 34.9453125 42.95507812 C32.9680446 48.97154363 30.98545942 54.98623301 29 61 C25.04 61 21.08 61 17 61 C7.5446771 29.54922833 7.5446771 29.54922833 4.54345703 19.25537109 C3.24721993 14.81162517 1.8926719 10.3887272 0.48046875 5.98046875 C0 4 0 4 0 0 Z " fill="#051948" transform="translate(114,22)"></path><path d="M0 0 C5.57561403 2.94494854 8.32198237 7.53807855 10.34375 13.359375 C12.45670627 21.86150858 11.09908184 30.53687496 6.78125 38.1484375 C4.12146604 41.768699 1.91798524 43.41677022 -2.5625 44.125 C-6.55666986 44.25903255 -8.89669686 43.65997412 -12 41 C-17.29201745 35.40558155 -18.37389794 29.64669204 -18.3125 22.125 C-18.30758545 21.41754639 -18.3026709 20.71009277 -18.29760742 19.98120117 C-18.13987112 12.963958 -17.12405468 8.49576425 -12.5 3.0625 C-8.48643201 -0.24869359 -5.09442307 -0.59434936 0 0 Z " fill="#FAFAFB" transform="translate(306,30)"></path><path d="M0 0 C3.63 0 7.26 0 11 0 C11 16.83 11 33.66 11 51 C18.26 51 25.52 51 33 51 C33 53.97 33 56.94 33 60 C22.11 60 11.22 60 0 60 C0 40.2 0 20.4 0 0 Z " fill="#041747" transform="translate(238,22)"></path><path d="M0 0 C3.63 0 7.26 0 11 0 C11.02255497 7.80575587 11.04091738 15.61149407 11.05181217 23.41727352 C11.05704002 27.0414596 11.06413587 30.6656223 11.07543945 34.28979492 C11.08627184 37.78459975 11.09227758 41.27938204 11.09487724 44.77420235 C11.09763551 46.76239389 11.10544688 48.75057631 11.11329651 50.73875427 C11.11337204 51.93992386 11.11344757 53.14109344 11.11352539 54.37866211 C11.115746 55.44233505 11.11796661 56.506008 11.12025452 57.60191345 C11 60 11 60 10 61 C8.50261876 61.0979057 7.00057108 61.12974864 5.5 61.125 C4.6853125 61.12757812 3.870625 61.13015625 3.03125 61.1328125 C1 61 1 61 0 60 C-0.09386381 58.1281906 -0.11743804 56.2528194 -0.11352539 54.37866211 C-0.11344986 53.17749252 -0.11337433 51.97632294 -0.11329651 50.73875427 C-0.10813522 49.4314888 -0.10297394 48.12422333 -0.09765625 46.77734375 C-0.09579198 45.43355868 -0.09436812 44.08977293 -0.09336853 42.74598694 C-0.08954402 39.20317723 -0.07971432 35.6604083 -0.06866455 32.11761475 C-0.05844899 28.50484773 -0.0538706 24.89207416 -0.04882812 21.27929688 C-0.03809198 14.18617961 -0.02049572 7.09309675 0 0 Z " fill="#011747" transform="translate(392,22)"></path><path d="M0 0 C7.5476897 8.06351446 12.02750656 18.73510404 11.6875 29.6875 C11.54535124 32.48092618 11.30844439 35.21776932 11 38 C6.45009902 38 4.39855082 37.2294312 0.671875 34.78125 C-1.48886216 32.47915621 -1.41870328 31.30775576 -1.4375 28.1875 C-1.50714924 19.71350933 -6.66416451 12.9811331 -11 6 C-5.15853659 0 -5.15853659 0 0 0 Z " fill="#6643F8" transform="translate(60,19)"></path><path d="M0 0 C8.19186636 9.44041876 12.18893814 19.8325691 11.55932617 32.20654297 C11.41445817 34.14125826 11.21377766 36.07168231 11 38 C1.7881703 36.28469378 1.7881703 36.28469378 -1 33 C-1.52517401 29.77713726 -1.56713229 26.6577698 -1.63671875 23.39453125 C-2.21606251 17.98109331 -4.96930494 14.38030145 -8 10 C-9.075819 8.02634676 -10.03751093 6.03192138 -11 4 C-9.73760288 3.13341385 -8.46472499 2.28207941 -7.1875 1.4375 C-6.47980469 0.96183594 -5.77210937 0.48617188 -5.04296875 -0.00390625 C-3 -1 -3 -1 0 0 Z " fill="#018AFA" transform="translate(48,22)"></path><path d="M0 0 C0.99 0.495 0.99 0.495 2 1 C2 20.14 2 39.28 2 59 C4.64 59 7.28 59 10 59 C10 59.66 10 60.32 10 61 C8.52093108 61.02689216 7.04172517 61.04634621 5.5625 61.0625 C4.73878906 61.07410156 3.91507812 61.08570313 3.06640625 61.09765625 C1 61 1 61 0 60 C-0.09386381 58.1281906 -0.11743804 56.2528194 -0.11352539 54.37866211 C-0.11344986 53.17749252 -0.11337433 51.97632294 -0.11329651 50.73875427 C-0.10813522 49.4314888 -0.10297394 48.12422333 -0.09765625 46.77734375 C-0.09579198 45.43355868 -0.09436812 44.08977293 -0.09336853 42.74598694 C-0.08954402 39.20317723 -0.07971432 35.6604083 -0.06866455 32.11761475 C-0.05844899 28.50484773 -0.0538706 24.89207416 -0.04882812 21.27929688 C-0.03809198 14.1861812 -0.02101636 7.09309326 0 0 Z " fill="#333C64" transform="translate(415,22)"></path><path d="M0 0 C2.55064335 0.25506433 3.83195977 0.86093222 5.8125 2.5 C7.40444219 5.85145725 6.87482435 8.20360267 6.328125 11.8046875 C5.96655167 14.22378523 5.92120625 16.55739375 6 19 C1.25 17.125 1.25 17.125 -1 16 C-0.91621094 15.41992188 -0.83242188 14.83984375 -0.74609375 14.2421875 C-0.13343186 9.54252791 -0.06179932 5.6910034 -1 1 C-0.67 0.67 -0.34 0.34 0 0 Z " fill="#E7F8F9" transform="translate(30,37)"></path><path d="M0 0 C0.66 0 1.32 0 2 0 C2.33 0.66 2.66 1.32 3 2 C3.33 1.34 3.66 0.68 4 0 C5.65 0 7.3 0 9 0 C9 0.66 9 1.32 9 2 C9.66 2 10.32 2 11 2 C11 1.34 11 0.68 11 0 C12.65 0 14.3 0 16 0 C16 1.98 16 3.96 16 6 C17.32 6.33 18.64 6.66 20 7 C17.77090129 7.02714735 15.54170633 7.04646254 13.3125 7.0625 C12.07113281 7.07410156 10.82976563 7.08570312 9.55078125 7.09765625 C6.53764546 7.01478673 3.91724661 6.70839449 1 6 C0.67 4.02 0.34 2.04 0 0 Z " fill="#D4D7DE" transform="translate(17,70)"></path><path d="M0 0 C1.00467582 1.32981362 2.00313019 2.66432476 3 4 C3.74636719 4.98871094 4.49273437 5.97742188 5.26171875 6.99609375 C11.03249115 15.02998302 13.37129113 20.80842889 12 31 C11.01 30.67 10.02 30.34 9 30 C8.99613281 28.76636719 8.99613281 28.76636719 8.9921875 27.5078125 C8.69650689 18.97249881 6.80317313 13.94208616 2 7 C0.924181 5.02634676 -0.03751093 3.03192138 -1 1 C-0.67 0.67 -0.34 0.34 0 0 Z " fill="#0165C6" transform="translate(38,25)"></path><path d="M0 0 C0.66 0 1.32 0 2 0 C3.38490744 1.8436029 4.68388849 3.75222264 5.9375 5.6875 C6.62714844 6.74324219 7.31679688 7.79898437 8.02734375 8.88671875 C8.67832031 9.91410156 9.32929687 10.94148438 10 12 C10.57492188 12.825 11.14984375 13.65 11.7421875 14.5 C13.31230723 17.62073486 13.30196758 19.84031665 13.1875 23.3125 C13.16042969 24.38113281 13.13335937 25.44976562 13.10546875 26.55078125 C13.07066406 27.35902344 13.03585938 28.16726562 13 29 C12.01 28.67 11.02 28.34 10 28 C10.03222656 27.3915625 10.06445312 26.783125 10.09765625 26.15625 C9.98225869 17.43732304 6.32388172 11.46085737 1.93359375 4.2109375 C0 1 0 1 0 0 Z " fill="#422FC6" transform="translate(49,24)"></path><path d="M0 0 C2.05078125 0.03255208 4.1015625 0.06510417 6.15234375 0.09765625 C6.15234375 2.40765625 6.15234375 4.71765625 6.15234375 7.09765625 C0 7.1953125 0 7.1953125 -1.84765625 7.09765625 C-2.84765625 6.09765625 -2.84765625 6.09765625 -2.97265625 3.59765625 C-2.80017347 0.14800071 -2.80017347 0.14800071 0 0 Z " fill="#6E7385" transform="translate(47.84765625,69.90234375)"></path><path d="M0 0 C1.67542976 0.28604898 3.34385343 0.61781233 5 1 C5 2.65 5 4.3 5 6 C2.625 6.625 2.625 6.625 0 7 C-0.66 6.34 -1.32 5.68 -2 5 C-1.46428571 1.46428571 -1.46428571 1.46428571 0 0 Z " fill="#9A9EAD" transform="translate(39,70)"></path><path d="M0 0 C0.33 0 0.66 0 1 0 C1 2.64 1 5.28 1 8 C-0.64574566 8.02688151 -2.29161413 8.04634123 -3.9375 8.0625 C-4.85402344 8.07410156 -5.77054688 8.08570312 -6.71484375 8.09765625 C-9 8 -9 8 -10 7 C-10.04080783 5.00041636 -10.04254356 2.99954746 -10 1 C-9.34 1 -8.68 1 -8 1 C-8 2.65 -8 4.3 -8 6 C-5.69 6 -3.38 6 -1 6 C-0.67 4.02 -0.34 2.04 0 0 Z " fill="#3D4369" transform="translate(177,75)"></path><path d="M0 0 C0.66 0 1.32 0 2 0 C2.33 0.66 2.66 1.32 3 2 C3.33 1.34 3.66 0.68 4 0 C4.99 0 5.98 0 7 0 C7 2.31 7 4.62 7 7 C4 7 4 7 1 6 C0.67 4.02 0.34 2.04 0 0 Z " fill="#B1B4C0" transform="translate(17,70)"></path><path d="M0 0 C3 1 3 1 4 3 C4.66 2.01 5.32 1.02 6 0 C6 2.31 6 4.62 6 7 C5.34 7 4.68 7 4 7 C3.67 6.34 3.34 5.68 3 5 C2.67 5.66 2.34 6.32 2 7 C1.34 7 0.68 7 0 7 C0 4.69 0 2.38 0 0 Z " fill="#CED0D7" transform="translate(55,70)"></path><path d="M0 0 C1.2065625 0.0309375 1.2065625 0.0309375 2.4375 0.0625 C2.4375 0.7225 2.4375 1.3825 2.4375 2.0625 C1.1175 1.7325 -0.2025 1.4025 -1.5625 1.0625 C-1.21463292 3.03786745 -1.21463292 3.03786745 -0.5625 5.0625 C0.0975 5.3925 0.7575 5.7225 1.4375 6.0625 C1.1075 5.0725 0.7775 4.0825 0.4375 3.0625 C1.0975 3.0625 1.7575 3.0625 2.4375 3.0625 C2.4375 4.3825 2.4375 5.7025 2.4375 7.0625 C0.77138095 7.105221 -0.89632885 7.10313832 -2.5625 7.0625 C-3.5625 6.0625 -3.5625 6.0625 -3.6875 3.5625 C-3.51717518 0.15600356 -3.41884482 0.08338646 0 0 Z " fill="#D1D4DB" transform="translate(48.5625,69.9375)"></path><path d="M0 0 C0.99 0 1.98 0 3 0 C3 1.98 3 3.96 3 6 C4.32 6.33 5.64 6.66 7 7 C4.69 7 2.38 7 0 7 C0 4.69 0 2.38 0 0 Z " fill="#A2A4B0" transform="translate(30,70)"></path><path d="M0 0 C0.66 0 1.32 0 2 0 C2.38133299 1.9914056 2.71325582 3.99279077 3 6 C2.67 6.33 2.34 6.66 2 7 C1.63239269 9.32817964 1.29758419 11.6618385 1 14 C0.67 14 0.34 14 0 14 C0 9.38 0 4.76 0 0 Z " fill="#C2C6D0" transform="translate(179,42)"></path></svg> 