<?xml version="1.0" encoding="UTF-8"?> <svg xmlns="http://www.w3.org/2000/svg" width="497" height="340" viewBox="0 0 497 340" fill="none"><g clip-path="url(#clip0_1719_5487)"><rect width="497.418" height="340" fill="#0A0A0A"></rect><g filter="url(#filter0_f_1719_5487)"><ellipse cx="90.2558" cy="240.509" rx="158.453" ry="71.7078" fill="url(#paint0_linear_1719_5487)" fill-opacity="0.39"></ellipse></g><g filter="url(#filter1_f_1719_5487)"><ellipse cx="419.854" cy="82.3541" rx="119.132" ry="123.266" fill="url(#paint1_linear_1719_5487)" fill-opacity="0.37"></ellipse></g><rect x="82.5918" y="49.2566" width="333" height="242" rx="12" fill="url(#paint2_linear_1719_5487)" fill-opacity="0.09"></rect><rect x="83.0918" y="49.7566" width="332" height="241" rx="11.5" stroke="url(#paint3_linear_1719_5487)" stroke-opacity="0.3"></rect><rect x="172.092" y="93.2566" width="154" height="154" rx="29" fill="url(#paint4_linear_1719_5487)" fill-opacity="0.08"></rect><rect x="173.092" y="94.2566" width="152" height="152" rx="28" stroke="url(#paint5_linear_1719_5487)" stroke-opacity="0.14" stroke-width="2"></rect><g clip-path="url(#clip1_1719_5487)"><path d="M257.014 178.235C253.594 177.697 251.19 174.533 251.572 171.18C251.624 170.726 251.727 170.279 251.88 169.848C252.274 168.709 251.868 167.391 250.891 166.57C248.824 164.786 246.481 163.35 243.954 162.318C243.401 162.084 242.787 162.042 242.208 162.197C241.629 162.352 241.118 162.696 240.757 163.175C240.277 163.809 239.675 164.34 238.987 164.738C238.299 165.136 237.538 165.391 236.749 165.49C235.96 165.588 235.159 165.528 234.394 165.311C233.629 165.095 232.915 164.728 232.294 164.231C231.911 163.923 231.568 163.568 231.274 163.175C230.913 162.697 230.403 162.354 229.825 162.198C229.246 162.043 228.633 162.085 228.081 162.318C225.748 163.267 223.571 164.562 221.622 166.159C220.596 166.993 220.167 168.359 220.584 169.535C221.749 172.627 220.177 176.25 216.98 177.571C216.41 177.808 215.81 177.962 215.196 178.03C214.571 178.104 213.984 178.368 213.515 178.788C213.046 179.207 212.717 179.761 212.573 180.374C211.988 182.972 211.936 185.662 212.42 188.281C212.545 188.913 212.867 189.489 213.341 189.925C213.814 190.362 214.415 190.636 215.055 190.709C218.476 191.069 221.02 194.093 220.801 197.457C220.757 198.135 220.598 198.799 220.33 199.423C219.824 200.591 220.216 202.009 221.261 202.872C223.315 204.627 225.636 206.042 228.138 207.063C228.448 207.183 228.776 207.25 229.109 207.262C229.559 207.271 230.005 207.165 230.403 206.956C230.802 206.746 231.141 206.439 231.39 206.063C231.922 205.263 232.64 204.604 233.483 204.144C234.326 203.683 235.268 203.433 236.229 203.417C237.19 203.401 238.14 203.618 238.998 204.05C239.856 204.482 240.596 205.115 241.156 205.897C241.516 206.409 242.045 206.778 242.65 206.941C243.255 207.104 243.898 207.05 244.467 206.788C246.755 205.776 248.884 204.435 250.786 202.808C251.782 201.967 252.183 200.621 251.761 199.468C250.559 196.394 252.091 192.756 255.273 191.403C255.812 191.174 256.379 191.017 256.959 190.939C257.575 190.849 258.148 190.573 258.603 190.147C259.057 189.721 259.369 189.166 259.498 188.557C259.772 187.279 259.921 185.978 259.942 184.671C259.94 183.293 259.795 181.919 259.508 180.572C259.378 179.976 259.069 179.433 258.624 179.016C258.178 178.599 257.617 178.326 257.014 178.235ZM243.99 184.671C243.99 186.248 243.523 187.79 242.646 189.102C241.77 190.414 240.525 191.436 239.068 192.04C237.61 192.644 236.007 192.802 234.46 192.494C232.912 192.187 231.491 191.427 230.376 190.312C229.26 189.197 228.501 187.776 228.193 186.229C227.885 184.682 228.043 183.078 228.646 181.621C229.25 180.163 230.272 178.918 231.584 178.041C232.895 177.165 234.437 176.697 236.015 176.697C238.126 176.708 240.148 177.552 241.641 179.044C243.135 180.537 243.978 182.559 243.99 184.671Z" fill="#DCADF8"></path><path d="M283.735 146.254C280.979 145.821 279.041 143.271 279.35 140.568C279.39 140.202 279.473 139.842 279.597 139.495C279.915 138.577 279.588 137.517 278.801 136.853C277.134 135.414 275.244 134.256 273.204 133.426C272.759 133.238 272.263 133.205 271.796 133.331C271.329 133.458 270.917 133.737 270.627 134.124C270.241 134.635 269.756 135.063 269.201 135.383C268.646 135.703 268.033 135.909 267.397 135.989C266.761 136.068 266.116 136.019 265.499 135.845C264.883 135.671 264.307 135.375 263.807 134.975C263.5 134.726 263.225 134.44 262.989 134.124C262.698 133.739 262.287 133.462 261.821 133.337C261.355 133.212 260.861 133.245 260.416 133.433C258.536 134.198 256.782 135.242 255.213 136.529C254.386 137.201 254.04 138.302 254.376 139.25C255.316 141.741 254.048 144.662 251.471 145.727C251.012 145.917 250.527 146.042 250.033 146.097C249.531 146.156 249.059 146.368 248.681 146.704C248.303 147.04 248.037 147.484 247.92 147.976C247.448 150.07 247.405 152.238 247.796 154.35C247.898 154.858 248.158 155.322 248.54 155.673C248.922 156.025 249.405 156.246 249.92 156.306C252.677 156.596 254.727 159.035 254.545 161.748C254.511 162.296 254.384 162.833 254.17 163.338C253.762 164.28 254.079 165.422 254.921 166.117C256.576 167.531 258.447 168.67 260.462 169.492C260.713 169.588 260.978 169.642 261.246 169.652C261.609 169.659 261.968 169.574 262.289 169.405C262.61 169.236 262.884 168.988 263.084 168.686C263.513 168.041 264.092 167.51 264.772 167.138C265.451 166.767 266.21 166.566 266.985 166.553C267.759 166.539 268.525 166.714 269.216 167.062C269.908 167.411 270.505 167.921 270.955 168.551C271.246 168.962 271.671 169.258 272.156 169.39C272.642 169.522 273.158 169.481 273.616 169.274C275.462 168.457 277.178 167.376 278.712 166.065C279.515 165.387 279.838 164.302 279.497 163.373C278.529 160.897 279.763 157.964 282.329 156.869C282.763 156.684 283.22 156.558 283.687 156.494C284.184 156.422 284.646 156.199 285.012 155.856C285.378 155.513 285.631 155.066 285.735 154.575C285.956 153.545 286.076 152.495 286.092 151.442C286.091 150.333 285.975 149.228 285.745 148.143C285.639 147.664 285.39 147.228 285.031 146.893C284.672 146.557 284.22 146.338 283.735 146.264V146.254ZM273.238 151.442C273.238 152.713 272.861 153.955 272.154 155.012C271.448 156.069 270.444 156.893 269.27 157.38C268.095 157.866 266.803 157.993 265.556 157.745C264.31 157.497 263.164 156.885 262.266 155.986C261.367 155.087 260.754 153.942 260.506 152.695C260.258 151.449 260.386 150.156 260.872 148.982C261.359 147.808 262.183 146.804 263.239 146.097C264.296 145.391 265.539 145.014 266.81 145.014C268.512 145.023 270.142 145.703 271.345 146.906C272.549 148.11 273.229 149.74 273.238 151.442Z" fill="#DCADF8"></path><path d="M285.521 187.152C284.854 186.581 284.432 185.776 284.341 184.904C284.249 184.031 284.496 183.156 285.029 182.459C285.179 182.269 285.35 182.096 285.539 181.945C285.784 181.733 285.959 181.452 286.042 181.14C286.125 180.827 286.112 180.497 286.005 180.192C285.569 178.812 284.912 177.512 284.058 176.344C283.874 176.086 283.609 175.896 283.305 175.806C283.001 175.715 282.676 175.728 282.38 175.843C281.988 175.995 281.568 176.068 281.147 176.056C280.726 176.043 280.312 175.947 279.929 175.772C279.546 175.597 279.202 175.346 278.917 175.036C278.633 174.725 278.414 174.361 278.272 173.964C278.185 173.719 278.13 173.464 278.106 173.205C278.076 172.889 277.942 172.592 277.724 172.362C277.507 172.131 277.219 171.979 276.905 171.93C275.589 171.71 274.247 171.688 272.925 171.865C272.592 171.902 272.279 172.041 272.028 172.261C271.776 172.482 271.599 172.775 271.519 173.099C271.185 174.817 269.468 176.013 267.658 175.718C267.335 175.668 267.022 175.57 266.727 175.429C266.425 175.289 266.087 175.245 265.759 175.304C265.431 175.362 265.128 175.52 264.893 175.756C263.907 176.765 263.135 177.963 262.626 179.278C262.506 179.598 262.491 179.947 262.584 180.275C262.676 180.604 262.87 180.894 263.139 181.105C263.829 181.64 264.288 182.42 264.42 183.283C264.553 184.147 264.349 185.028 263.851 185.746C263.644 186.039 263.388 186.295 263.094 186.502C262.82 186.707 262.62 186.995 262.522 187.323C262.425 187.651 262.437 188.002 262.555 188.323C262.994 189.685 263.647 190.967 264.491 192.123C264.598 192.263 264.727 192.384 264.873 192.483C265.074 192.612 265.304 192.688 265.542 192.704C265.78 192.721 266.018 192.677 266.234 192.577C266.697 192.364 267.204 192.267 267.712 192.294C268.22 192.321 268.714 192.47 269.152 192.73C269.59 192.989 269.958 193.351 270.225 193.785C270.492 194.218 270.649 194.709 270.685 195.217C270.704 195.547 270.839 195.86 271.065 196.101C271.291 196.343 271.594 196.498 271.922 196.54C273.235 196.72 274.568 196.707 275.878 196.503C276.205 196.461 276.512 196.319 276.757 196.096C277.001 195.874 277.172 195.583 277.246 195.26C277.558 193.542 279.261 192.326 281.072 192.603C281.379 192.648 281.678 192.736 281.961 192.863C282.264 192.994 282.6 193.028 282.923 192.963C283.246 192.897 283.541 192.733 283.769 192.494C284.248 191.995 284.677 191.45 285.05 190.867C285.432 190.246 285.749 189.587 285.995 188.901C286.102 188.596 286.114 188.265 286.029 187.953C285.945 187.641 285.767 187.362 285.521 187.152ZM277.861 186.43C277.422 187.141 276.782 187.706 276.022 188.054C275.263 188.401 274.417 188.516 273.592 188.383C272.767 188.249 272 187.875 271.388 187.306C270.776 186.737 270.347 185.999 270.154 185.186C269.961 184.373 270.014 183.521 270.306 182.738C270.597 181.955 271.114 181.276 271.792 180.787C272.469 180.298 273.277 180.02 274.112 179.99C274.947 179.96 275.772 180.178 276.483 180.617C277.433 181.209 278.11 182.152 278.368 183.241C278.626 184.33 278.443 185.477 277.861 186.432V186.43Z" fill="#DCADF8"></path></g></g><defs><filter id="filter0_f_1719_5487" x="-232.967" y="4.03131" width="646.446" height="472.955" filterUnits="userSpaceOnUse" color-interpolation-filters="sRGB"><feGaussianBlur stdDeviation="82.3849"></feGaussianBlur></filter><filter id="filter1_f_1719_5487" x="114.191" y="-227.443" width="611.327" height="619.595" filterUnits="userSpaceOnUse" color-interpolation-filters="sRGB"><feGaussianBlur stdDeviation="93.2659"></feGaussianBlur></filter><linearGradient id="paint0_linear_1719_5487" x1="90.2558" y1="168.801" x2="90.2558" y2="312.217" gradientUnits="userSpaceOnUse"><stop stop-color="#FF1C96"></stop><stop offset="1" stop-color="#00E0FF"></stop></linearGradient><linearGradient id="paint1_linear_1719_5487" x1="419.854" y1="-40.9116" x2="419.854" y2="205.62" gradientUnits="userSpaceOnUse"><stop stop-color="#D85B00"></stop><stop offset="1" stop-color="#2B00D8"></stop></linearGradient><linearGradient id="paint2_linear_1719_5487" x1="249.092" y1="-26.3688" x2="249.092" y2="306.382" gradientUnits="userSpaceOnUse"><stop stop-color="white"></stop><stop offset="1" stop-color="white" stop-opacity="0"></stop></linearGradient><linearGradient id="paint3_linear_1719_5487" x1="249.092" y1="49.2566" x2="249.092" y2="291.257" gradientUnits="userSpaceOnUse"><stop stop-color="white" stop-opacity="0.32"></stop><stop offset="1" stop-color="white" stop-opacity="0"></stop></linearGradient><linearGradient id="paint4_linear_1719_5487" x1="249.092" y1="93.2566" x2="249.092" y2="247.257" gradientUnits="userSpaceOnUse"><stop stop-color="white"></stop><stop offset="1" stop-color="white" stop-opacity="0"></stop></linearGradient><linearGradient id="paint5_linear_1719_5487" x1="249.092" y1="93.2566" x2="249.092" y2="247.257" gradientUnits="userSpaceOnUse"><stop stop-color="white"></stop><stop offset="1" stop-color="white" stop-opacity="0"></stop></linearGradient><clipPath id="clip0_1719_5487"><rect width="497" height="340" rx="16" fill="white"></rect></clipPath><clipPath id="clip1_1719_5487"><rect width="74" height="74" fill="white" transform="translate(212.092 133.257)"></rect></clipPath></defs></svg> 