<?xml version="1.0" encoding="UTF-8"?> <svg xmlns="http://www.w3.org/2000/svg" width="497" height="340" viewBox="0 0 497 340" fill="none"><g clip-path="url(#clip0_1719_5460)"><rect width="497.418" height="340" fill="#0A0A0A"></rect><g filter="url(#filter0_f_1719_5460)"><ellipse cx="90.2558" cy="240.509" rx="158.453" ry="71.7078" fill="url(#paint0_linear_1719_5460)" fill-opacity="0.39"></ellipse></g><g filter="url(#filter1_f_1719_5460)"><ellipse cx="419.854" cy="82.3541" rx="119.132" ry="123.266" fill="url(#paint1_linear_1719_5460)" fill-opacity="0.37"></ellipse></g><rect x="82.5918" y="49.2566" width="333" height="242" rx="12" fill="url(#paint2_linear_1719_5460)" fill-opacity="0.09"></rect><rect x="83.0918" y="49.7566" width="332" height="241" rx="11.5" stroke="url(#paint3_linear_1719_5460)" stroke-opacity="0.3"></rect><rect x="172.092" y="93.2566" width="154" height="154" rx="29" fill="url(#paint4_linear_1719_5460)" fill-opacity="0.08"></rect><rect x="173.092" y="94.2566" width="152" height="152" rx="28" stroke="url(#paint5_linear_1719_5460)" stroke-opacity="0.14" stroke-width="2"></rect><path d="M268.729 134.257C261.499 134.257 255.638 140.118 255.638 147.348C255.638 148.581 255.809 149.775 256.128 150.907L238.757 161.044C236.385 158.649 233.094 157.166 229.456 157.166C222.226 157.166 216.365 163.027 216.365 170.257C216.365 177.486 222.226 183.348 229.456 183.348C233.094 183.348 236.386 181.863 238.758 179.467L256.132 189.592C255.81 190.728 255.638 191.927 255.638 193.166C255.638 200.395 261.499 206.257 268.729 206.257C275.959 206.257 281.82 200.395 281.82 193.166C281.82 185.936 275.959 180.075 268.729 180.075C265.097 180.075 261.81 181.554 259.439 183.943L242.058 173.814C242.377 172.683 242.547 171.49 242.547 170.257C242.547 169.023 242.376 167.829 242.057 166.697L259.428 156.56C261.801 158.955 265.091 160.438 268.729 160.438C275.959 160.438 281.82 154.577 281.82 147.348C281.82 140.118 275.959 134.257 268.729 134.257Z" fill="#F8F5A9"></path></g><defs><filter id="filter0_f_1719_5460" x="-232.967" y="4.03131" width="646.446" height="472.955" filterUnits="userSpaceOnUse" color-interpolation-filters="sRGB"><feGaussianBlur stdDeviation="82.3849"></feGaussianBlur></filter><filter id="filter1_f_1719_5460" x="114.191" y="-227.443" width="611.327" height="619.595" filterUnits="userSpaceOnUse" color-interpolation-filters="sRGB"><feGaussianBlur stdDeviation="93.2659"></feGaussianBlur></filter><linearGradient id="paint0_linear_1719_5460" x1="90.2558" y1="168.801" x2="90.2558" y2="312.217" gradientUnits="userSpaceOnUse"><stop stop-color="#A9FF1C"></stop><stop offset="1" stop-color="#8FFF00"></stop></linearGradient><linearGradient id="paint1_linear_1719_5460" x1="419.854" y1="-40.9116" x2="419.854" y2="205.62" gradientUnits="userSpaceOnUse"><stop stop-color="#D8B500"></stop><stop offset="1" stop-color="#D8C200"></stop></linearGradient><linearGradient id="paint2_linear_1719_5460" x1="249.092" y1="-26.3688" x2="249.092" y2="306.382" gradientUnits="userSpaceOnUse"><stop stop-color="white"></stop><stop offset="1" stop-color="white" stop-opacity="0"></stop></linearGradient><linearGradient id="paint3_linear_1719_5460" x1="249.092" y1="49.2566" x2="249.092" y2="291.257" gradientUnits="userSpaceOnUse"><stop stop-color="white" stop-opacity="0.32"></stop><stop offset="1" stop-color="white" stop-opacity="0"></stop></linearGradient><linearGradient id="paint4_linear_1719_5460" x1="249.092" y1="93.2566" x2="249.092" y2="247.257" gradientUnits="userSpaceOnUse"><stop stop-color="white"></stop><stop offset="1" stop-color="white" stop-opacity="0"></stop></linearGradient><linearGradient id="paint5_linear_1719_5460" x1="249.092" y1="93.2566" x2="249.092" y2="247.257" gradientUnits="userSpaceOnUse"><stop stop-color="white"></stop><stop offset="1" stop-color="white" stop-opacity="0"></stop></linearGradient><clipPath id="clip0_1719_5460"><rect width="497" height="340" rx="16" fill="white"></rect></clipPath></defs></svg> 