<svg xmlns="http://www.w3.org/2000/svg" width="35" height="24" viewBox="0 0 35 24" fill="none"><rect y="-0.00390625" width="35" height="24" rx="6" fill="#1F72CD"></rect><path fill-rule="evenodd" clip-rule="evenodd" d="M6.27467 8.49609L3 15.7428H6.92024L7.40624 14.5874H8.51712L9.00312 15.7428H13.3182V14.861L13.7027 15.7428H15.9348L16.3193 14.8423V15.7428H25.2935L26.3847 14.6174L27.4065 15.7428L32.0159 15.7522L28.7308 12.1397L32.0159 8.49609H27.478L26.4158 9.60072L25.4262 8.49609H15.6634L14.8251 10.3665L13.9671 8.49609H10.055V9.34795L9.61982 8.49609H6.27467ZM19.6758 9.52514H24.8292L26.4054 11.2277L28.0324 9.52514H29.6086L27.2137 12.1387L29.6086 14.7221H27.9609L26.3847 12.9997L24.7494 14.7221H19.6758V9.52514ZM20.9484 11.5511V10.6018V10.6009H24.164L25.5671 12.119L24.1018 13.6454H20.9484V12.6091H23.7598V11.5511H20.9484ZM7.03322 9.52514H8.94413L11.1162 14.4392V9.52514H13.2095L14.8872 13.0485L16.4334 9.52514H18.5163V14.7252H17.2489L17.2386 10.6505L15.3908 14.7252H14.2571L12.3991 10.6505V14.7252H9.79178L9.29749 13.5594H6.62701L6.13374 14.7241H4.73679L7.03322 9.52514ZM7.08299 12.4817L7.96281 10.405L8.8416 12.4817H7.08299Z" fill="white"></path></svg>