<?xml version="1.0" encoding="UTF-8"?> <svg xmlns="http://www.w3.org/2000/svg" width="497" height="340" viewBox="0 0 497 340" fill="none"><g clip-path="url(#clip0_1719_5447)"><rect width="497.418" height="340" fill="#0A0A0A"></rect><g filter="url(#filter0_f_1719_5447)"><ellipse cx="90.2558" cy="240.509" rx="158.453" ry="71.7078" fill="url(#paint0_linear_1719_5447)" fill-opacity="0.39"></ellipse></g><g filter="url(#filter1_f_1719_5447)"><ellipse cx="419.854" cy="82.3541" rx="119.132" ry="123.266" fill="url(#paint1_linear_1719_5447)" fill-opacity="0.37"></ellipse></g><rect x="82.5918" y="49.2566" width="333" height="242" rx="12" fill="url(#paint2_linear_1719_5447)" fill-opacity="0.09"></rect><rect x="83.0918" y="49.7566" width="332" height="241" rx="11.5" stroke="url(#paint3_linear_1719_5447)" stroke-opacity="0.3"></rect><path d="M298.596 114.195C285.159 112.153 271.506 106.616 257.907 97.6403C252.532 94.0926 245.652 94.0926 240.277 97.6403C226.679 106.616 213.026 112.153 199.588 114.195C191.419 115.431 185.506 122.258 185.506 130.428V202.668C185.506 208.634 188.731 214.116 193.945 217.019L241.137 243.41C243.663 244.808 246.405 245.507 249.146 245.507C251.834 245.507 254.575 244.862 257.047 243.518L304.132 217.771C309.4 214.923 312.679 209.386 312.679 203.366V130.428C312.679 122.258 306.766 115.431 298.596 114.195Z" fill="url(#paint4_linear_1719_5447)" fill-opacity="0.08"></path><path fill-rule="evenodd" clip-rule="evenodd" d="M276.389 151.345C274.683 149.639 271.876 149.639 270.17 151.345L268.756 149.931C271.243 147.444 275.316 147.444 277.803 149.931L276.389 151.345ZM298.297 116.173L298.296 116.173C284.523 114.079 270.601 108.415 256.806 99.3094C252.099 96.2029 246.086 96.2028 241.379 99.3094C227.584 108.415 213.662 114.079 199.889 116.173L199.888 116.173C192.682 117.263 187.506 123.261 187.506 130.428V202.668C187.506 207.908 190.337 212.722 194.918 215.272L194.921 215.274L242.106 241.66C242.106 241.661 242.107 241.661 242.108 241.662C244.342 242.897 246.749 243.507 249.146 243.507C251.517 243.507 253.927 242.937 256.09 241.762C256.091 241.761 256.091 241.761 256.092 241.761L303.181 216.012C307.796 213.516 310.679 208.659 310.679 203.366V130.428C310.679 123.261 305.503 117.263 298.297 116.173ZM257.047 243.518C254.575 244.862 251.834 245.507 249.146 245.507C246.405 245.507 243.663 244.808 241.137 243.41L193.945 217.019C188.731 214.116 185.506 208.634 185.506 202.668V130.428C185.506 122.258 191.419 115.431 199.588 114.195C213.026 112.153 226.679 106.616 240.277 97.6403C245.652 94.0926 252.532 94.0926 257.907 97.6403C271.506 106.616 285.159 112.153 298.596 114.195C306.766 115.431 312.679 122.258 312.679 130.428V203.366C312.679 209.386 309.4 214.923 304.132 217.771L257.047 243.518Z" fill="url(#paint5_linear_1719_5447)" fill-opacity="0.14"></path><path d="M277.095 158.27L246.243 189.069C245.222 190.144 243.824 190.681 242.427 190.681C241.083 190.681 239.685 190.144 238.664 189.069L221.088 171.547C218.992 169.45 218.992 166.064 221.088 163.968C223.184 161.872 226.624 161.872 228.72 163.968L242.427 177.674L269.463 150.638C271.559 148.541 274.999 148.541 277.095 150.638C279.191 152.788 279.191 156.174 277.095 158.27Z" fill="#A9F8B5"></path></g><defs><filter id="filter0_f_1719_5447" x="-232.967" y="4.03131" width="646.446" height="472.955" filterUnits="userSpaceOnUse" color-interpolation-filters="sRGB"><feGaussianBlur stdDeviation="82.3849"></feGaussianBlur></filter><filter id="filter1_f_1719_5447" x="114.191" y="-227.443" width="611.327" height="619.595" filterUnits="userSpaceOnUse" color-interpolation-filters="sRGB"><feGaussianBlur stdDeviation="93.2659"></feGaussianBlur></filter><linearGradient id="paint0_linear_1719_5447" x1="90.2558" y1="168.801" x2="90.2558" y2="312.217" gradientUnits="userSpaceOnUse"><stop stop-color="#57FF1C"></stop><stop offset="1" stop-color="#00F0FF"></stop></linearGradient><linearGradient id="paint1_linear_1719_5447" x1="419.854" y1="-40.9116" x2="419.854" y2="205.62" gradientUnits="userSpaceOnUse"><stop stop-color="#00D816"></stop><stop offset="1" stop-color="#00D83C"></stop></linearGradient><linearGradient id="paint2_linear_1719_5447" x1="249.092" y1="-26.3688" x2="249.092" y2="306.382" gradientUnits="userSpaceOnUse"><stop stop-color="white"></stop><stop offset="1" stop-color="white" stop-opacity="0"></stop></linearGradient><linearGradient id="paint3_linear_1719_5447" x1="249.092" y1="49.2566" x2="249.092" y2="291.257" gradientUnits="userSpaceOnUse"><stop stop-color="white" stop-opacity="0.32"></stop><stop offset="1" stop-color="white" stop-opacity="0"></stop></linearGradient><linearGradient id="paint4_linear_1719_5447" x1="249.092" y1="94.9795" x2="249.092" y2="245.507" gradientUnits="userSpaceOnUse"><stop stop-color="white"></stop><stop offset="1" stop-color="white" stop-opacity="0"></stop></linearGradient><linearGradient id="paint5_linear_1719_5447" x1="249.092" y1="94.9795" x2="249.092" y2="245.507" gradientUnits="userSpaceOnUse"><stop stop-color="white"></stop><stop offset="1" stop-color="white" stop-opacity="0"></stop></linearGradient><clipPath id="clip0_1719_5447"><rect width="497" height="340" rx="16" fill="white"></rect></clipPath></defs></svg> 