<svg xmlns="http://www.w3.org/2000/svg" width="100" height="50" viewBox="0 0 100 50" fill="none"><path fill-rule="evenodd" clip-rule="evenodd" d="M2.67367 1.75358C2.67367 3.50269 2.67128 3.51448 1.75968 6.24687L0.845703 8.98627L1.75968 9.90761L2.67367 10.829V13.5139V16.1987L4.46637 17.9851L6.25908 19.7715V20.6351C6.25908 21.49 6.27686 21.5251 8.05178 24.1791L9.84449 26.8597V27.7667V28.6739L12.5335 32.2185L15.2226 35.763V38.4039V41.0448H17.8438H20.4651L24.9026 43.6806C27.3432 45.1305 29.3896 46.3897 29.45 46.4791C29.5103 46.5687 29.5607 47.3975 29.562 48.3209C29.5632 49.2445 29.5859 50 29.6124 50C29.7166 50 41.1725 48.3609 41.6277 48.2808L42.1132 48.1954V43.6816V39.1679L37.6583 34.7333L33.2034 30.2985H31.9814C31.3093 30.2985 30.7594 30.3493 30.7594 30.4113C30.7594 30.4734 32.877 32.6391 35.4652 35.2239L40.1711 39.9236V43.2454C40.1711 45.0724 40.1476 46.5672 40.119 46.5672C40.0903 46.5672 38.1978 46.8358 35.9134 47.1642C33.6291 47.4925 31.6693 47.7612 31.5585 47.7612C31.4057 47.7612 31.357 47.4636 31.357 46.5297V45.2982L26.1548 42.2013L20.9528 39.1045H18.984H17.0153V37.0633V35.0222L14.3263 31.4475L11.6372 27.8728L11.637 27.0334C11.6369 26.2097 11.6033 26.1437 9.84449 23.5075L8.05208 20.8209L8.05193 19.8484L8.05178 18.876L6.25908 17.0896L4.46637 15.3031V12.6087V9.91418L3.7354 9.19478L3.00442 8.47552L3.7354 6.29552C4.34402 4.48075 4.46637 3.93358 4.46637 3.02791V1.9403H10.7408H17.0153V7.76119V13.5821H17.9117H18.808V6.79104V0H10.7408H2.67367V1.75358ZM15.2226 43.6567V44.6269H17.9117H20.6007V43.6567V42.6866H17.9117H15.2226V43.6567ZM22.3934 45.3731V46.2687H21.4971H20.6007V47.2388V48.209H21.4971H22.3934V47.3134V46.4179H23.2898H24.1861V45.4478V44.4776H23.2898H22.3934V45.3731Z" fill="#4F5C65"></path><path fill-rule="evenodd" clip-rule="evenodd" d="M24.9434 5.81551C23.2493 6.44193 22.0823 7.51552 21.2354 9.22641L20.6766 10.3551L20.6264 12.7843L20.5764 15.2136L18.8397 15.2555L17.103 15.2975L17.1484 21.9388C17.1734 25.5915 17.2252 28.6307 17.2635 28.6925C17.3017 28.7543 21.665 28.8049 26.9599 28.8049H36.5869V22.0188V15.2327L34.9062 15.1904L33.2256 15.1482L33.1428 12.7601C33.0499 10.0806 32.8687 9.40298 31.8888 8.0691C31.2067 7.14074 30.4411 6.5282 29.3169 6.01104C28.122 5.46164 26.1402 5.37298 24.9434 5.81551ZM27.7381 9.03596C29.19 9.64193 29.5578 10.4606 29.5622 13.096L29.5655 15.0736H26.6523H23.7392L23.7425 13.1706C23.7452 11.6139 23.7982 11.1521 24.0342 10.6327C24.7313 9.09835 26.2841 8.42895 27.7381 9.03596ZM31.4886 18.5778C31.8277 18.9452 32.1044 19.2979 32.1033 19.3613C32.1023 19.4246 30.8083 20.8051 29.2275 22.4288L26.3535 25.381L25.6993 25.3766C25.0807 25.3724 24.9726 25.3012 23.7068 24.0661C22.9707 23.3479 22.3041 22.6416 22.2257 22.4967C22.1153 22.293 22.1945 22.0987 22.575 21.6401C23.3373 20.721 23.4919 20.7316 24.545 21.7743C25.0511 22.2755 25.573 22.6855 25.7047 22.6855C25.8363 22.6855 26.9775 21.6109 28.2407 20.2975C29.5039 18.984 30.6126 17.9094 30.7046 17.9094C30.7966 17.9094 31.1495 18.2101 31.4886 18.5778Z" fill="#4F5C65"></path><path fill-rule="evenodd" clip-rule="evenodd" d="M52.2418 6.90557C50.3745 7.31936 49.4908 7.83192 48.2844 9.20117C45.7701 12.0549 45.9785 16.5724 48.7489 19.2758C50.1899 20.6816 51.7141 21.2415 54.0918 21.2382C56.0154 21.2357 57.9157 20.5475 58.8277 19.5236L59.3118 18.98L58.1508 17.82L56.9897 16.6602L56.3611 17.2502C55.5089 18.0501 53.4669 18.2158 52.2418 17.5843C51.2073 17.0514 50.2495 15.34 50.2495 14.025C50.2495 12.7899 51.2073 11.0195 52.1758 10.4644C53.2749 9.83441 55.0105 9.86526 56.1469 10.5351L57.0505 11.0676L58.1328 10.0063C58.7281 9.42262 59.2152 8.85382 59.2152 8.7426C59.2152 8.26661 56.851 7.08771 55.3851 6.83292C54.5241 6.68313 53.773 6.56992 53.7157 6.58136C53.6584 6.59281 52.9952 6.73862 52.2418 6.90557ZM65.6905 6.90557C63.8231 7.31936 62.9395 7.83192 61.7331 9.20117C59.2187 12.0549 59.4271 16.5724 62.1976 19.2758C63.6386 20.6816 65.1627 21.2415 67.5404 21.2382C69.4641 21.2357 71.3643 20.5475 72.2763 19.5236L72.7605 18.98L71.5994 17.82L70.4383 16.6602L69.8097 17.2502C68.9575 18.0501 66.9155 18.2158 65.6905 17.5843C64.6559 17.0514 63.6981 15.34 63.6981 14.025C63.6981 12.7899 64.6559 11.0195 65.6245 10.4644C66.7235 9.83441 68.4591 9.86526 69.5956 10.5351L70.4991 11.0676L71.5815 10.0063C72.1767 9.42262 72.6638 8.85382 72.6638 8.7426C72.6638 8.26661 70.2996 7.08771 68.8337 6.83292C67.9728 6.68313 67.2216 6.56992 67.1643 6.58136C67.1071 6.59281 66.4438 6.73862 65.6905 6.90557ZM74.2794 7.35021C74.2079 7.53608 74.1795 10.6533 74.2162 14.2778L74.2826 20.8675L75.9637 20.9411L77.6448 21.0146V18.3908V15.7667H79.2322C82.8141 15.7667 84.8602 14.1006 84.8657 11.18C84.8682 9.9302 83.9736 8.45248 82.8126 7.78813C81.8473 7.23576 81.4306 7.17504 78.0816 7.09741C75.159 7.02973 74.3825 7.08149 74.2794 7.35021ZM90.7719 7.23377C90.5555 7.6045 85.1163 20.6926 85.1163 20.8424C85.1163 20.9247 85.9429 20.9919 86.953 20.9919H88.7895L89.2592 19.6856L89.7287 18.3793L92.383 18.3089L95.0374 18.2385L95.5272 19.553L96.0174 20.8675L97.9136 20.9402C98.9566 20.9802 99.8079 20.9242 99.8052 20.8157C99.8024 20.7073 98.5405 17.5955 97.0009 13.9006L94.2013 7.18251L92.5444 7.10935C91.6329 7.06929 90.8354 7.12528 90.7719 7.23377ZM80.925 10.4557C81.4978 10.9735 81.5046 11.5796 80.9447 12.2611C80.6102 12.6682 80.1906 12.8048 79.1391 12.8483L77.7693 12.9053L77.6946 11.4746L77.6199 10.0439H79.0447C80.0212 10.0439 80.613 10.1735 80.925 10.4557ZM93.2031 13.1111C93.5496 14.0305 93.833 14.8921 93.833 15.026C93.833 15.1596 93.162 15.2691 92.3422 15.2691H90.8514L91.3816 13.8384C91.673 13.0516 92.0109 12.1402 92.1322 11.8133C92.4119 11.0593 92.4455 11.1001 93.2031 13.1111ZM47.6967 28.3482C47.5938 28.4535 47.5099 30.872 47.5099 33.7232V38.9068H48.6306H49.7514V36.9163V34.9257H51.486C53.4447 34.9257 53.5596 35.0225 53.8499 36.9163C54.1538 38.8981 54.1605 38.9068 55.3886 38.9068C56.336 38.9068 56.4906 38.8394 56.3882 38.4714C56.3217 38.232 56.194 37.391 56.1043 36.6027C55.9903 35.6005 55.7527 34.9456 55.3146 34.4256C54.9699 34.0163 54.8118 33.6816 54.9629 33.6816C55.3998 33.6816 56.2249 32.1362 56.2249 31.3179C56.2249 30.4082 55.4613 29.0977 54.6835 28.6719C54.0405 28.3199 47.9978 28.0402 47.6967 28.3482ZM58.3851 28.3736C58.2937 28.4647 58.219 30.872 58.219 33.7232V38.9068H62.218H66.2172L66.1405 37.8493L66.064 36.7919L63.2622 36.7214L60.4604 36.651V35.5483V34.4455L63.0132 34.3746L65.5659 34.3037V33.4328V32.5619L63.0132 32.491L60.4604 32.4201V31.4336V30.447H63.1833C65.7189 30.447 65.9171 30.4117 66.0698 29.9314C66.1599 29.6478 66.1652 29.1439 66.0817 28.8118L65.9301 28.2076H62.2406C60.2114 28.2076 58.4763 28.2823 58.3851 28.3736ZM70.3101 28.4368C70.0707 28.8237 66.4376 38.4303 66.4376 38.6762C66.4376 38.803 66.9327 38.9068 67.5377 38.9068C68.6121 38.9068 68.6479 38.8807 69.0658 37.7871L69.4939 36.6674H71.4318H73.3694L73.721 37.7249C74.0615 38.7488 74.1096 38.7849 75.236 38.8583C76.0115 38.9088 76.3996 38.8354 76.3996 38.6383C76.3996 38.4116 74.1484 32.1979 72.7784 28.6431C72.6544 28.3211 72.3291 28.2076 71.5312 28.2076C70.9374 28.2076 70.388 28.3109 70.3101 28.4368ZM77.8316 28.3452C77.7287 28.452 77.6448 30.8837 77.6448 33.7486V38.9581L80.7141 38.8702C83.544 38.7894 83.8616 38.7306 84.7845 38.1203C86.0676 37.2718 86.6848 35.9775 86.8135 33.8662C86.9007 32.4345 86.8203 31.9889 86.2709 30.8672C85.3053 28.8954 84.3011 28.4196 80.7875 28.2696C79.2644 28.2044 77.9344 28.2385 77.8316 28.3452ZM87.4937 28.4378C87.4155 28.5644 88.1933 30.0638 89.2223 31.77L91.0934 34.8717V36.8891V38.9068H92.2142H93.3349V36.9295V34.9523L95.2027 31.8558C96.2301 30.1529 97.0706 28.6353 97.0706 28.4836C97.0706 28.3221 96.6026 28.2076 95.9437 28.2076C94.8304 28.2076 94.8048 28.2268 93.8487 29.7627C92.0734 32.6149 92.3245 32.5721 90.9839 30.2502L89.8046 28.2076H88.7203C88.124 28.2076 87.5721 28.3111 87.4937 28.4378ZM53.2545 30.4557C53.8066 30.751 53.9239 32.1504 53.4373 32.6366C53.2634 32.8103 52.4301 32.9352 51.4449 32.9352H49.7514V31.7326C49.7514 31.071 49.8261 30.4552 49.9175 30.3641C50.1802 30.1014 52.7225 30.1713 53.2545 30.4557ZM83.5996 31.1327C84.4227 31.9553 84.7429 33.5391 84.3674 34.9322C84.0065 36.2708 83.3398 36.6674 81.4495 36.6674H79.8862V33.5572V30.447H81.3997C82.7194 30.447 83.0011 30.5348 83.5996 31.1327ZM72.0574 32.7486C72.294 33.4669 72.5391 34.1949 72.6023 34.3659C72.6847 34.5896 72.3538 34.6769 71.4246 34.6769C70.4881 34.6769 70.1671 34.5913 70.26 34.3659C70.3305 34.1949 70.5843 33.4669 70.8244 32.7486C71.0642 32.0302 71.3431 31.4423 71.444 31.4423C71.5451 31.4423 71.8211 32.0302 72.0574 32.7486Z" fill="#4F5C65"></path></svg>