<?xml version="1.0" encoding="UTF-8"?> <svg xmlns="http://www.w3.org/2000/svg" version="1.1" width="587" height="120"><path d="M0 0 C193.71 0 387.42 0 587 0 C587 39.6 587 79.2 587 120 C393.29 120 199.58 120 0 120 C0 80.4 0 40.8 0 0 Z " fill="#FCFCFC" transform="translate(0,0)"></path><path d="M0 0 C1.41345703 -0.03673828 1.41345703 -0.03673828 2.85546875 -0.07421875 C10.707561 -0.10680005 18.2755968 1.77991868 24.125 7.375 C24.125 8.035 24.125 8.695 24.125 9.375 C24.785 9.375 25.445 9.375 26.125 9.375 C26.94337442 10.78828129 27.75446219 12.20578346 28.5625 13.625 C29.01496094 14.41390625 29.46742188 15.2028125 29.93359375 16.015625 C33.56158851 23.20024413 33.1354646 32.83929065 30.87890625 40.4453125 C26.94315623 50.51920114 20.81369603 58.45429624 11.125 63.375 C9.97451172 63.96667969 9.97451172 63.96667969 8.80078125 64.5703125 C-0.71063087 68.73610709 -13.15970224 69.18215067 -23.125 66.125 C-30.96827465 62.80727953 -36.27078539 57.87603761 -39.91796875 50.171875 C-43.03394641 41.80408522 -42.67634245 32.81885687 -39.875 24.375 C-38.14871137 21.14146842 -36.10508065 18.27746678 -33.875 15.375 C-33.153125 14.34375 -32.43125 13.3125 -31.6875 12.25 C-23.35891499 2.60070086 -12.13436283 0.01646454 0 0 Z " fill="#070707" transform="translate(220.875,9.625)"></path><path d="M0 0 C1.78302269 0.00636726 1.78302269 0.00636726 3.60206604 0.01286316 C7.38208082 0.02959624 11.1615538 0.06723985 14.94140625 0.10546875 C17.51105998 0.12052247 20.08072211 0.13420967 22.65039062 0.14648438 C28.93510318 0.1794824 35.21941299 0.2312288 41.50390625 0.29296875 C40.84390625 4.58296875 40.18390625 8.87296875 39.50390625 13.29296875 C37.26335449 13.31484253 37.26335449 13.31484253 34.97753906 13.3371582 C29.43855788 13.39510643 23.8999847 13.47234007 18.36132812 13.55541992 C15.963609 13.58868552 13.56581126 13.6167123 11.16796875 13.6394043 C7.72231526 13.67291955 4.2773833 13.7252353 0.83203125 13.78125 C-0.77753448 13.79083488 -0.77753448 13.79083488 -2.4196167 13.8006134 C-3.42035217 13.82040756 -4.42108765 13.84020172 -5.45214844 13.8605957 C-6.33151062 13.87169876 -7.2108728 13.88280182 -8.11688232 13.89424133 C-11.0076073 14.37869231 -12.40419621 15.25950337 -14.49609375 17.29296875 C-15.00630103 21.37462702 -14.80971177 22.82254172 -12.49609375 26.29296875 C-9.54239846 26.58183824 -6.78718683 26.68573971 -3.83203125 26.6640625 C-2.05208155 26.68145942 -0.27213368 26.69904362 1.5078125 26.71679688 C4.31204812 26.72683123 7.11615742 26.73047655 9.92041016 26.72875977 C12.62830906 26.73235369 15.33524303 26.75980036 18.04296875 26.7890625 C18.87035553 26.78087997 19.69774231 26.77269745 20.55020142 26.76426697 C26.32492547 26.83727617 30.6552296 28.09783406 35.50390625 31.29296875 C39.92872903 36.00326396 39.85191695 41.03663151 39.77734375 47.21875 C39.22462219 53.43291953 36.69420406 57.46532063 32.12890625 61.60546875 C30.48046875 62.96875 30.48046875 62.96875 28.50390625 64.29296875 C27.7469043 64.80923828 26.98990234 65.32550781 26.20996094 65.85742188 C20.59843005 68.03105835 15.19402282 67.66054197 9.23046875 67.5859375 C7.95158783 67.58169266 6.67270691 67.57744781 5.35507202 67.57307434 C1.97155923 67.55915845 -1.41133602 67.53225199 -4.79467773 67.4989624 C-8.25368949 67.46815463 -11.71276529 67.45454625 -15.171875 67.43945312 C-21.94678402 67.40641629 -28.72140326 67.35624026 -35.49609375 67.29296875 C-35.57976843 62.43983743 -35.36814885 58.08583852 -34.49609375 53.29296875 C-33.78865524 53.28932312 -33.08121674 53.28567749 -32.3523407 53.28192139 C-25.68659086 53.24406054 -19.02130464 53.18723049 -12.35589886 53.10906601 C-8.92905952 53.06954967 -5.50247871 53.03738219 -2.07543945 53.02197266 C1.86410558 53.00393726 5.80293394 52.95400444 9.7421875 52.90234375 C10.97350906 52.90111511 12.20483063 52.89988647 13.47346497 52.89862061 C14.61442123 52.87890198 15.7553775 52.85918335 16.9309082 52.83886719 C18.43981377 52.82554352 18.43981377 52.82554352 19.97920227 52.81195068 C22.63044775 52.51273525 22.63044775 52.51273525 24.32878113 50.4229126 C25.77568333 47.80036596 25.96982465 46.24378528 25.50390625 43.29296875 C21.58927059 40.68321164 18.2801648 41.03220315 13.7421875 41.0546875 C11.96548722 41.03925989 10.18879438 41.02295568 8.41210938 41.00585938 C5.6187293 40.98945222 2.82589468 40.98044462 0.0324707 40.98754883 C-2.66907833 40.99018402 -5.36898398 40.96193278 -8.0703125 40.9296875 C-8.89456223 40.93989426 -9.71881195 40.95010101 -10.56803894 40.96061707 C-16.64457119 40.85924928 -20.80633069 39.19266225 -25.49609375 35.29296875 C-29.35326613 30.81047049 -30.09131718 26.55587227 -29.80859375 20.70703125 C-28.89516435 13.6507891 -24.83631323 7.84204461 -19.49609375 3.29296875 C-13.09348272 -0.28694454 -7.21800414 -0.09760451 0 0 Z " fill="#050505" transform="translate(545.49609375,9.70703125)"></path><path d="M0 0 C4.62 0 9.24 0 14 0 C13.34 3.3 12.68 6.6 12 10 C13.00788574 9.97381592 14.01577148 9.94763184 15.05419922 9.9206543 C18.83733419 9.82931759 22.62037434 9.77245239 26.40429688 9.7253418 C28.03369603 9.70038558 29.66298542 9.66640746 31.29199219 9.62280273 C42.48493428 9.33096222 50.6516245 9.73018606 59.62109375 17.17578125 C66.45700099 25.2171603 68.59240448 31.06289691 68.2734375 41.69921875 C67.36044818 52.72030409 63.22817374 61.420112 54.8984375 68.8828125 C43.88273745 76.85417362 31.86838163 77.67314867 18.76171875 77.57641602 C16.10813134 77.56241097 13.45798625 77.59689626 10.8046875 77.63476562 C9.10156165 77.63571584 7.39843141 77.63386325 5.6953125 77.62890625 C4.91084747 77.64216446 4.12638245 77.65542267 3.31814575 77.66908264 C-0.73268548 77.6006254 -3.27929137 77.18356621 -6.50244141 74.62451172 C-9 72 -9 72 -9.65625 69.37890625 C-9.6046875 68.44949219 -9.553125 67.52007812 -9.5 66.5625 C-9.4484375 65.52738281 -9.396875 64.49226563 -9.34375 63.42578125 C-8.75702101 57.57849351 -7.92856756 51.80354724 -7 46 C-2.38 46 2.24 46 7 46 C6.125 59.625 6.125 59.625 5 63 C9.28725976 62.93072101 13.57360895 62.8425654 17.86010742 62.73754883 C19.31572994 62.70447017 20.77147547 62.67638603 22.22729492 62.65356445 C24.33044436 62.61970079 26.43248375 62.5673764 28.53515625 62.51171875 C29.797229 62.48553467 31.05930176 62.45935059 32.35961914 62.43237305 C38.41731113 61.71289263 43.69636584 59.41688769 48 55 C52.53003126 48.31102822 54.17209569 42.03193993 53 34 C51.54846726 29.56798671 49.91323289 27.60882192 46 25 C42.30339608 23.71954985 38.48047532 23.77883037 34.609375 23.68359375 C33.90476135 23.66281265 33.20014771 23.64203156 32.47418213 23.62062073 C30.23288319 23.55546163 27.99147136 23.49639752 25.75 23.4375 C24.22655103 23.39428274 22.70311329 23.35066743 21.1796875 23.30664062 C17.45324409 23.19981509 13.72667506 23.09845361 10 23 C10 26.3 10 29.6 10 33 C5.38 33 0.76 33 -4 33 C-4 29.7 -4 26.4 -4 23 C-6.97 23 -9.94 23 -13 23 C-12.67 18.71 -12.34 14.42 -12 10 C-8.37 10 -4.74 10 -1 10 C-1.020625 8.72125 -1.04125 7.4425 -1.0625 6.125 C-1.125 2.25 -1.125 2.25 0 0 Z " fill="#0F5FE0" transform="translate(14,0)"></path><path d="M0 0 C4.62 0 9.24 0 14 0 C13.51850147 10.35221836 12.10416881 20.37189296 10.37207031 30.58349609 C8.3802096 41.85592026 8.3802096 41.85592026 10 53 C15.481548 52.95585535 20.96194322 52.88603141 26.44287109 52.79248047 C28.30703553 52.76426994 30.1713196 52.74305579 32.03564453 52.72900391 C34.71709441 52.70757516 37.39710586 52.66092702 40.078125 52.609375 C40.91055725 52.60814636 41.7429895 52.60691772 42.60064697 52.60565186 C46.26743438 52.51301464 48.38574604 52.41004574 51.48510742 50.34106445 C53.34734841 47.46321935 53.75584435 45.3353816 54.16015625 41.93359375 C54.31258789 40.73371826 54.46501953 39.53384277 54.62207031 38.29760742 C54.84008301 36.38685425 54.84008301 36.38685425 55.0625 34.4375 C55.39042534 31.81751993 55.71985666 29.19772793 56.05078125 26.578125 C56.20885254 25.29228516 56.36692383 24.00644531 56.52978516 22.68164062 C57.17029582 17.66663505 57.93821755 12.67724309 58.75 7.6875 C58.87769775 6.894646 59.00539551 6.10179199 59.13696289 5.28491211 C59.42193128 3.52283423 59.71046574 1.76133341 60 0 C64.62 0 69.24 0 74 0 C73.45835298 11.91623436 71.57333448 23.42289252 69.48339844 35.15185547 C69.05213726 37.69281148 68.68469743 40.22984751 68.3515625 42.78515625 C67.31101768 50.30487258 65.79905973 55.64072491 60.42578125 61.203125 C53.62923089 66.23760675 47.99001411 67.59824745 39.5859375 67.49609375 C38.6126651 67.49754898 37.6393927 67.49900421 36.6366272 67.50050354 C34.59105416 67.49885205 32.54546772 67.48737544 30.5 67.46655273 C27.37706609 67.43751921 24.25582438 67.44597592 21.1328125 67.45898438 C19.13801263 67.45274831 17.14321808 67.44435841 15.1484375 67.43359375 C13.75605362 67.43799721 13.75605362 67.43799721 12.33554077 67.44248962 C5.40943823 67.34204834 1.30389634 66.20124162 -3.84375 61.28295898 C-6.4532723 57.30987855 -6.61119418 55.1940653 -6.5 50.47265625 C-6.48300049 49.74272964 -6.46600098 49.01280304 -6.44848633 48.26075745 C-6.09417831 38.56950677 -4.51101096 29.00132046 -3 19.4375 C-2.70978298 17.53988975 -2.42071401 15.64210356 -2.1328125 13.74414062 C-1.43504269 9.16063195 -0.72195758 4.57975839 0 0 Z " fill="#070707" transform="translate(435,10)"></path><path d="M0 0 C4.62 0 9.24 0 14 0 C13.51850147 10.35221836 12.10416881 20.37189296 10.37207031 30.58349609 C8.3802096 41.85592026 8.3802096 41.85592026 10 53 C15.49957039 52.90649704 20.99869887 52.8004103 26.49780273 52.68261719 C28.36882868 52.64431706 30.23992853 52.609466 32.11108398 52.578125 C34.79958519 52.53249676 37.48757723 52.47449912 40.17578125 52.4140625 C41.43217155 52.39673569 41.43217155 52.39673569 42.71394348 52.37905884 C46.62373037 52.27953543 48.6770953 52.2152698 52 50 C52.94542673 46.81898936 52.94542673 46.81898936 53.51953125 43 C53.64165482 42.29230469 53.76377838 41.58460937 53.88960266 40.85546875 C54.27693166 38.57275278 54.64191979 36.28747729 55 34 C55.11728455 33.25492188 55.23456909 32.50984375 55.35540771 31.7421875 C56.17174141 26.50030063 56.93464541 21.25131634 57.6875 16 C57.91441074 14.4348519 58.14162305 12.8697475 58.36914062 11.3046875 C58.91676715 7.53701704 59.45827216 3.76854152 60 0 C64.62 0 69.24 0 74 0 C73.76802671 2.08775964 73.53591157 4.17550359 73.30322266 6.26318359 C73.10009226 8.09659083 72.89926757 9.93025491 72.70068359 11.76416016 C68.14564014 53.55296475 68.14564014 53.55296475 60.5859375 61.34375 C50.64566634 67.7103285 41.17258392 67.59360377 29.68579102 67.46655273 C26.80882523 67.43746284 23.93369218 67.44599709 21.05664062 67.45898438 C19.21092863 67.4527493 17.36522238 67.44436017 15.51953125 67.43359375 C14.66833206 67.43652939 13.81713287 67.43946503 12.94013977 67.44248962 C6.04905072 67.33432052 1.28939805 66.09455567 -3.9375 61.3125 C-10.43437246 50.87878098 -4.94855171 33.23856261 -3.0234375 22.06640625 C-1.76042372 14.73333442 -0.86099132 7.39017553 0 0 Z " fill="#060606" transform="translate(98,10)"></path><path d="M0 0 C1.46721245 -0.01925285 1.46721245 -0.01925285 2.96406555 -0.03889465 C4.01514999 -0.04628159 5.06623444 -0.05366852 6.14916992 -0.0612793 C7.78048103 -0.07338692 7.78048103 -0.07338692 9.44474792 -0.08573914 C11.74537571 -0.09956214 14.04602385 -0.11029226 16.34667969 -0.11816406 C19.85610961 -0.1353826 23.36459871 -0.17928677 26.8737793 -0.22338867 C29.1114026 -0.23351566 31.34903388 -0.24203174 33.58666992 -0.2487793 C34.63168167 -0.26628738 35.67669342 -0.28379547 36.75337219 -0.30183411 C44.41862016 -0.2791273 48.58651208 1.15435254 54.44213867 6.23950195 C57.67588589 10.09512363 57.4667467 14.37913534 57.40307617 19.19262695 C56.74099585 25.07436378 54.37448755 29.93012794 50.12963867 34.0637207 C44.21157425 38.69281276 39.38042867 40.4347245 31.79760742 40.37231445 C31.11660477 40.36948456 30.43560211 40.36665466 29.73396301 40.36373901 C27.57400412 40.3526072 25.41447073 40.32751652 23.25463867 40.30200195 C21.78394157 40.29196307 20.31323791 40.28283881 18.8425293 40.2746582 C15.25059582 40.25269109 11.65890883 40.21821015 8.06713867 40.17700195 C8.39713867 35.88700195 8.72713867 31.59700195 9.06713867 27.17700195 C12.0294043 27.10352539 12.0294043 27.10352539 15.05151367 27.02856445 C17.64006959 26.95353385 20.22861057 26.87798614 22.81713867 26.80200195 C24.1190918 26.77106445 25.42104492 26.74012695 26.76245117 26.70825195 C28.63803711 26.65024414 28.63803711 26.65024414 30.55151367 26.59106445 C32.27966309 26.54393311 32.27966309 26.54393311 34.04272461 26.49584961 C36.94079594 26.19032159 38.65818006 25.7765789 41.06713867 24.17700195 C42.46145371 21.38837188 42.32373962 19.25621327 42.06713867 16.17700195 C39.03330858 14.15444856 38.37955003 13.92123109 34.96289062 13.8581543 C34.14226639 13.83828461 33.32164215 13.81841492 32.47615051 13.79794312 C31.15413887 13.7806163 31.15413887 13.7806163 29.80541992 13.76293945 C28.44673042 13.73389023 28.44673042 13.73389023 27.06059265 13.70425415 C24.16703716 13.64446653 21.27344187 13.59807627 18.37963867 13.55200195 C16.41803277 13.51382142 14.45644361 13.47476964 12.49487305 13.43481445 C7.68576427 13.33876564 2.87657702 13.25473153 -1.93286133 13.17700195 C-1.98909668 14.05638428 -2.04533203 14.9357666 -2.10327148 15.84179688 C-2.61289778 23.43053065 -3.29255701 30.95228218 -4.30786133 38.48950195 C-4.43652588 39.46282471 -4.56519043 40.43614746 -4.69775391 41.43896484 C-5.86434287 50.06437455 -7.31446792 58.62591623 -8.93286133 67.17700195 C-13.55286133 67.17700195 -18.17286133 67.17700195 -22.93286133 67.17700195 C-21.92768532 56.70825784 -20.60669758 46.29329556 -19.19628906 35.87207031 C-18.8951207 33.61289998 -18.60348371 31.35243901 -18.32128906 29.09082031 C-17.90937354 25.79955091 -17.46545705 22.51395701 -17.01489258 19.2277832 C-16.89588089 18.22346756 -16.7768692 17.21915192 -16.6542511 16.18440247 C-15.74850669 9.89091427 -14.15114565 5.14820137 -8.93286133 1.17700195 C-5.95982283 0.12369716 -3.13731132 0.03598531 0 0 Z " fill="#050505" transform="translate(282.932861328125,9.822998046875)"></path><path d="M0 0 C4.62 0 9.24 0 14 0 C13.41225622 10.03171769 12.3047789 19.85507725 10.84326172 29.79003906 C10.4954236 32.15612995 10.15536723 34.52324758 9.81640625 36.890625 C9.59679764 38.40891838 9.37676175 39.92715003 9.15625 41.4453125 C9.00464417 42.49684006 9.00464417 42.49684006 8.84997559 43.5696106 C8.37582082 46.77913325 7.78839502 49.84641991 7 53 C26.47 53 45.94 53 66 53 C65 66 65 66 64 67 C62.02715884 67.10455465 60.05054954 67.13855591 58.07495117 67.14526367 C56.17243843 67.15483345 56.17243843 67.15483345 54.23149109 67.16459656 C52.83531736 67.16612544 51.43914312 67.16723929 50.04296875 67.16796875 C48.61908433 67.17118029 47.19520024 67.17454428 45.77131653 67.17805481 C42.78104894 67.18405369 39.79081029 67.18589402 36.80053711 67.18530273 C32.9704163 67.18520127 29.14048154 67.19883351 25.31040478 67.21607494 C22.36700084 67.22720158 19.4236417 67.22922171 16.48021889 67.22869301 C15.06843743 67.22987289 13.65665481 67.23429516 12.24489403 67.24202538 C10.2676978 67.2518345 8.29044725 67.24768058 6.31323242 67.24291992 C4.62565071 67.24505745 4.62565071 67.24505745 2.90397644 67.24723816 C0.01676444 67.00142729 -1.59684411 66.5748227 -4 65 C-7.05903643 61.1275659 -7.29396639 58.52205298 -6.80859375 53.6875 C-6.68983887 52.45128906 -6.57108398 51.21507812 -6.44873047 49.94140625 C-6.22660889 47.99041016 -6.22660889 47.99041016 -6 46 C-5.85578613 44.70964844 -5.71157227 43.41929688 -5.56298828 42.08984375 C-5.16951583 38.73727683 -4.75675404 35.38881926 -4.32543945 32.04101562 C-4.0627281 30.00177056 -3.80529986 27.96191332 -3.54882812 25.921875 C-2.45416771 17.26754514 -1.25331277 8.63268348 0 0 Z " fill="#070707" transform="translate(352,10)"></path><path d="M0 0 C4.51873417 2.63592827 8.00284708 4.80550686 10 9.75 C10.98785156 17.04402025 10.0967444 23.56873566 6 29.75 C1.16686258 35.21718762 -4.24606088 38.4510137 -11.53125 39.03125 C-24.43540466 39.33607255 -24.43540466 39.33607255 -30 35.75 C-34.36495928 31.26706885 -36.08772046 27.12008974 -36.4375 20.9375 C-36.29406731 14.05273086 -32.95390731 10.13810894 -28.75 5 C-20.70842018 -1.57947439 -9.943978 -3.92982537 0 0 Z " fill="#FBFBFB" transform="translate(229,24.25)"></path><path d="M0 0 C4.62 0 9.24 0 14 0 C13.34 3.3 12.68 6.6 12 10 C13.00788574 9.97381592 14.01577148 9.94763184 15.05419922 9.9206543 C18.83733419 9.82931759 22.62037434 9.77245239 26.40429688 9.7253418 C28.03369603 9.70038558 29.66298542 9.66640746 31.29199219 9.62280273 C42.48493428 9.33096222 50.6516245 9.73018606 59.62109375 17.17578125 C67.33769605 26.25316073 68.79452367 33.06686568 68 45 C67.70191682 46.6733306 67.38106538 48.34359484 67 50 C66.67 50 66.34 50 66 50 C65.90203125 49.11957031 65.8040625 48.23914062 65.703125 47.33203125 C65.55359375 46.17058594 65.4040625 45.00914063 65.25 43.8125 C65.11078125 42.66394531 64.9715625 41.51539063 64.828125 40.33203125 C63.90871849 36.63272109 62.47736277 34.83486837 60 32 C60 31.34 60 30.68 60 30 C56.62902617 28.50178941 54.79557881 28 51 28 C49.31503702 27.03114628 47.64821244 26.03013277 46 25 C42.29447075 23.73616891 38.48433895 23.77892542 34.609375 23.68359375 C33.90476135 23.66281265 33.20014771 23.64203156 32.47418213 23.62062073 C30.23288319 23.55546163 27.99147136 23.49639752 25.75 23.4375 C24.22655103 23.39428274 22.70311329 23.35066743 21.1796875 23.30664062 C17.45324409 23.19981509 13.72667506 23.09845361 10 23 C10 26.3 10 29.6 10 33 C5.38 33 0.76 33 -4 33 C-4 29.7 -4 26.4 -4 23 C-6.97 23 -9.94 23 -13 23 C-12.67 18.71 -12.34 14.42 -12 10 C-8.37 10 -4.74 10 -1 10 C-1.020625 8.72125 -1.04125 7.4425 -1.0625 6.125 C-1.125 2.25 -1.125 2.25 0 0 Z " fill="#1262E3" transform="translate(14,0)"></path><path d="M0 0 C0.33 0 0.66 0 1 0 C1.07588365 6.79924392 1.12852926 13.59837922 1.16479492 20.39794922 C1.17990853 22.71244385 1.20039996 25.02690974 1.22631836 27.34130859 C1.26258841 30.66250696 1.27970044 33.98332768 1.29296875 37.3046875 C1.30845261 38.34430634 1.32393646 39.38392517 1.33988953 40.45504761 C1.34011612 41.41589264 1.34034271 42.37673767 1.34057617 43.36669922 C1.34723801 44.21497284 1.35389984 45.06324646 1.36076355 45.93722534 C1.24171158 46.61794098 1.12265961 47.29865662 1 48 C0.01 48.66 -0.98 49.32 -2 50 C-1.96519531 49.05898438 -1.93039062 48.11796875 -1.89453125 47.1484375 C-1.85392578 45.28058594 -1.85392578 45.28058594 -1.8125 43.375 C-1.77769531 42.14523438 -1.74289062 40.91546875 -1.70703125 39.6484375 C-2.03874409 35.51750694 -2.5918773 33.37799531 -5 30 C-10.5622637 26.09974254 -15.79190757 25.44014574 -22.42578125 25.53125 C-23.29518845 25.52420044 -24.16459564 25.51715088 -25.06034851 25.5098877 C-27.81137188 25.48799491 -30.56141577 25.49083213 -33.3125 25.5 C-36.95495155 25.51202234 -40.59595755 25.49844706 -44.23828125 25.46875 C-45.07265213 25.48006958 -45.90702301 25.49138916 -46.76667786 25.50305176 C-52.50446557 25.45263491 -52.50446557 25.45263491 -55.01635742 23.15820312 C-56.38532749 20.15455571 -56.54359578 18.2615747 -56 15 C-53.80969926 12.39270932 -52.01557111 11.14720267 -48.61410522 10.6541748 C-45.59281381 10.53614287 -42.59727657 10.55093088 -39.57421875 10.609375 C-38.47149124 10.61503479 -37.36876373 10.62069458 -36.23262024 10.62652588 C-32.71713508 10.6488825 -29.20267613 10.69907979 -25.6875 10.75 C-23.30144703 10.77006582 -20.91537806 10.78831645 -18.52929688 10.8046875 C-12.68580365 10.84874533 -6.84307571 10.91776998 -1 11 C-0.67 7.37 -0.34 3.74 0 0 Z " fill="#F3F3F3" transform="translate(586,12)"></path><path d="M0 0 C3.27255284 3.01419341 4.30894438 4.51593453 4.75 9 C4.62137049 13.38144258 3.26875351 15.83683804 0.375 19.1875 C-4.25115194 22.93769417 -7.92570677 23.81716887 -13.75 23.6875 C-14.80380859 23.71070313 -14.80380859 23.71070313 -15.87890625 23.734375 C-19.31374548 23.70840268 -21.25167864 23.47827175 -23.9921875 21.34375 C-26.87447803 17.5374716 -28.14389348 15.19979128 -28 10.31640625 C-27.32107362 6.46208462 -25.4060758 3.86925166 -22.625 1.1875 C-16.34882141 -2.7831436 -6.54058222 -4.17825891 0 0 Z " fill="#131313" transform="translate(181.625,95.8125)"></path><path d="M0 0 C3.69108452 2.74465259 5.13368084 5.10351722 5.9375 9.625 C5.24401921 14.04594003 3.46668927 17.50857031 0.4375 20.8125 C-4.11638849 23.68414397 -7.78047844 24.26935553 -13.125 24.3125 C-15.04505859 24.35890625 -15.04505859 24.35890625 -17.00390625 24.40625 C-21.39699477 23.67326487 -22.80372331 22.2237248 -25.5625 18.8125 C-27.16975691 15.59798618 -27.03647924 12.29916924 -26.5625 8.8125 C-21.02689991 -1.66560017 -10.87711531 -3.6257051 0 0 Z " fill="#101010" transform="translate(423.5625,95.1875)"></path><path d="M0 0 C3.70806596 -0.11674705 7.4156554 -0.18743274 11.125 -0.25 C12.17171875 -0.28351563 13.2184375 -0.31703125 14.296875 -0.3515625 C20.53205705 -0.43048886 24.31104102 -0.2738708 29 4 C31.51475368 7.77213052 31.44796416 9.52035842 31 14 C29.02497429 19.37521202 26.15285565 22.37549394 21 25 C17.2141933 25.49822851 13.49857951 25.42364619 9.6875 25.3125 C8.16672852 25.29799805 8.16672852 25.29799805 6.61523438 25.28320312 C-0.83151573 25.16848427 -0.83151573 25.16848427 -2 24 C-2.07258946 21.81360547 -2.08373783 19.62499611 -2.0625 17.4375 C-2.05347656 16.23996094 -2.04445312 15.04242188 -2.03515625 13.80859375 C-2.02355469 12.88175781 -2.01195312 11.95492187 -2 11 C-0.02 11 1.96 11 4 11 C3.67 13.97 3.34 16.94 3 20 C5.58366245 19.85879984 8.16682885 19.71221667 10.75 19.5625 C11.47960937 19.52318359 12.20921875 19.48386719 12.9609375 19.44335938 C16.4272973 19.23852902 19.65333026 18.9147998 23 18 C23.19491452 16.54263913 23.38069358 15.08405407 23.5625 13.625 C23.66691406 12.81289062 23.77132813 12.00078125 23.87890625 11.1640625 C24.18237328 8.95100814 24.18237328 8.95100814 23 7 C11.615 6.505 11.615 6.505 0 6 C0 4.02 0 2.04 0 0 Z " fill="#0E0E0E" transform="translate(241,94)"></path><path d="M0 0 C1.44644897 -0.00676758 1.44644897 -0.00676758 2.92211914 -0.01367188 C4.50476563 -0.02140625 4.50476563 -0.02140625 6.11938477 -0.02929688 C7.22088867 -0.01382813 8.32239258 0.00164062 9.45727539 0.01757812 C10.55491211 0.00210938 11.65254883 -0.01335937 12.78344727 -0.02929688 C13.83983398 -0.02414063 14.8962207 -0.01898438 15.98461914 -0.01367188 C16.95004639 -0.00916016 17.91547363 -0.00464844 18.91015625 0 C22.24874159 0.66215744 23.44078467 1.87098898 25.51977539 4.51757812 C26.08227539 7.45507812 26.08227539 7.45507812 25.51977539 10.51757812 C23.08227539 13.33007812 23.08227539 13.33007812 20.51977539 15.51757812 C20.18977539 15.84757812 19.85977539 16.17757812 19.51977539 16.51757812 C16.65709972 16.59082981 13.8190564 16.60996018 10.95727539 16.58007812 C10.1509668 16.57556641 9.3446582 16.57105469 8.51391602 16.56640625 C6.51583783 16.5545833 4.51779756 16.53664727 2.51977539 16.51757812 C2.51977539 14.53757812 2.51977539 12.55757812 2.51977539 10.51757812 C8.12977539 10.51757812 13.73977539 10.51757812 19.51977539 10.51757812 C19.51977539 9.19757813 19.51977539 7.87757812 19.51977539 6.51757812 C12.91977539 6.51757812 6.31977539 6.51757812 -0.48022461 6.51757812 C-1.14022461 13.11757812 -1.80022461 19.71757813 -2.48022461 26.51757812 C-4.46022461 26.51757812 -6.44022461 26.51757812 -8.48022461 26.51757812 C-8.01946324 21.03694286 -7.40741899 15.58412999 -6.60522461 10.14257812 C-6.46342773 9.16546875 -6.32163086 8.18835938 -6.17553711 7.18164062 C-5.17092884 3.33252354 -4.08807245 0.85310696 0 0 Z " fill="#181818" transform="translate(318.480224609375,93.482421875)"></path><path d="M0 0 C2.28125 2.1953125 2.28125 2.1953125 4.5 5.125 C5.27472656 6.1253125 6.04945313 7.125625 6.84765625 8.15625 C7.55792969 9.0946875 8.26820313 10.033125 9 11 C12.01771212 15.05812939 12.01771212 15.05812939 16 18 C16.66 12.06 17.32 6.12 18 0 C19.98 0 21.96 0 24 0 C23.33742578 7.72422049 22.23535374 15.34800303 21 23 C20.34 23 19.68 23 19 23 C19 23.66 19 24.32 19 25 C17.02 25 15.04 25 13 25 C13 24.34 13 23.68 13 23 C12.34 23 11.68 23 11 23 C9.46148234 21.28048026 7.99268241 19.49812503 6.5625 17.6875 C3.54764431 13.83532998 3.54764431 13.83532998 0.21484375 10.26953125 C-1 9 -1 9 -1 7 C-1.66 7 -2.32 7 -3 7 C-2.95875 7.928125 -2.9175 8.85625 -2.875 9.8125 C-2.8537627 14.9731635 -3.97956982 19.96162598 -5 25 C-6.65 25 -8.3 25 -10 25 C-10.71762345 6.97967769 -10.71762345 6.97967769 -6.73828125 1.15234375 C-4.24167038 -0.50271289 -2.93859355 -0.57532705 0 0 Z " fill="#0F0F0F" transform="translate(448,94)"></path><path d="M0 0 C1.06992187 0.00644531 2.13984375 0.01289062 3.2421875 0.01953125 C4.35335938 0.03628906 5.46453125 0.05304688 6.609375 0.0703125 C7.73601562 0.07933594 8.86265625 0.08835937 10.0234375 0.09765625 C12.80229865 0.12120592 15.5807289 0.1540957 18.359375 0.1953125 C18.359375 2.1753125 18.359375 4.1553125 18.359375 6.1953125 C17.61776123 6.2046582 16.87614746 6.21400391 16.11206055 6.22363281 C12.75631786 6.27727001 9.40197938 6.36093043 6.046875 6.4453125 C4.87962891 6.45949219 3.71238281 6.47367187 2.50976562 6.48828125 C1.39150391 6.52050781 0.27324219 6.55273438 -0.87890625 6.5859375 C-2.4263855 6.6173584 -2.4263855 6.6173584 -4.00512695 6.64941406 C-6.74106876 6.96933123 -6.74106876 6.96933123 -8.48901367 8.99902344 C-10.11525395 12.10049843 -9.83912806 14.75459282 -9.640625 18.1953125 C-6.7211207 19.1684806 -4.58617549 19.3882671 -1.53515625 19.51171875 C-0.55224609 19.55361328 0.43066406 19.59550781 1.44335938 19.63867188 C2.97959961 19.69764648 2.97959961 19.69764648 4.546875 19.7578125 C5.58263672 19.80099609 6.61839844 19.84417969 7.68554688 19.88867188 C10.2433569 19.99475616 12.80126345 20.09681396 15.359375 20.1953125 C15.359375 21.8453125 15.359375 23.4953125 15.359375 25.1953125 C11.46368365 25.28263976 7.56824518 25.33581435 3.671875 25.3828125 C2.56908203 25.40794922 1.46628906 25.43308594 0.33007812 25.45898438 C-0.73662109 25.46865234 -1.80332031 25.47832031 -2.90234375 25.48828125 C-3.88162842 25.5039917 -4.86091309 25.51970215 -5.86987305 25.53588867 C-9.16313957 25.13108589 -10.98177896 24.1535728 -13.640625 22.1953125 C-16.48096227 17.9348066 -16.5192209 14.1942202 -15.640625 9.1953125 C-12.01568237 2.74573925 -7.34404775 -0.07812817 0 0 Z " fill="#030303" transform="translate(495.640625,93.8046875)"></path><path d="M0 0 C1.98 0 3.96 0 6 0 C5.85780436 2.20857055 5.71108153 4.41684987 5.5625 6.625 C5.48128906 7.85476562 5.40007812 9.08453125 5.31640625 10.3515625 C5.03595855 13.58536682 4.53362962 16.79822226 4 20 C10.27 19.67 16.54 19.34 23 19 C24.64920633 15.70158734 24.66486707 12.0037687 25.0625 8.375 C25.15337891 7.57320313 25.24425781 6.77140625 25.33789062 5.9453125 C25.56197653 3.96392132 25.7814275 1.98200695 26 0 C27.98 0 29.96 0 32 0 C31.22885388 18.93296669 31.22885388 18.93296669 26.22680664 23.68432617 C23.51166389 25.28852574 21.82282696 25.37341399 18.68359375 25.36328125 C17.16668945 25.36231445 17.16668945 25.36231445 15.61914062 25.36132812 C14.56919922 25.34521484 13.51925781 25.32910156 12.4375 25.3125 C10.85678711 25.31733398 10.85678711 25.31733398 9.24414062 25.32226562 C1.40081073 25.26720715 1.40081073 25.26720715 -2 23 C-3.39948995 15.58119842 -1.28364949 7.31221762 0 0 Z " fill="#101010" transform="translate(197,94)"></path><path d="M0 0 C1.40185547 0.00966797 1.40185547 0.00966797 2.83203125 0.01953125 C4.28416016 0.04466797 4.28416016 0.04466797 5.765625 0.0703125 C6.74917969 0.07933594 7.73273438 0.08835937 8.74609375 0.09765625 C11.16951907 0.12118465 13.59244722 0.15405882 16.015625 0.1953125 C15.685625 2.1753125 15.355625 4.1553125 15.015625 6.1953125 C14.39518311 6.2046582 13.77474121 6.21400391 13.13549805 6.22363281 C10.32389823 6.27732245 7.5139652 6.36096896 4.703125 6.4453125 C3.72666016 6.45949219 2.75019531 6.47367187 1.74414062 6.48828125 C0.80634766 6.52050781 -0.13144531 6.55273438 -1.09765625 6.5859375 C-2.39376831 6.6173584 -2.39376831 6.6173584 -3.71606445 6.64941406 C-6.12417772 7.02143771 -6.12417772 7.02143771 -7.80541992 9.00292969 C-9.56079782 12.26722737 -8.7809497 14.67710756 -7.984375 18.1953125 C-6.40033976 19.77934774 -4.7072112 19.41506185 -2.51171875 19.51171875 C-1.61259766 19.55361328 -0.71347656 19.59550781 0.21289062 19.63867188 C1.15841797 19.67798828 2.10394531 19.71730469 3.078125 19.7578125 C4.5022168 19.82258789 4.5022168 19.82258789 5.95507812 19.88867188 C8.30843853 19.99510526 10.66190854 20.09712258 13.015625 20.1953125 C13.015625 21.8453125 13.015625 23.4953125 13.015625 25.1953125 C9.4534019 25.31185686 5.89167158 25.3826764 2.328125 25.4453125 C1.32072266 25.47882813 0.31332031 25.51234375 -0.72460938 25.546875 C-8.20969072 25.64568796 -8.20969072 25.64568796 -12.12890625 23.3671875 C-15.21542905 19.75433134 -15.43971356 16.13232002 -15.40234375 11.55078125 C-14.67273533 7.43906277 -12.1321094 4.80157883 -8.984375 2.1953125 C-5.87281937 0.33015667 -3.60889155 -0.04401087 0 0 Z " fill="#030303" transform="translate(88.984375,93.8046875)"></path><path d="M0 0 C6.16887867 0.38555492 10.78887689 4.55561555 14.77734375 8.96484375 C19.39997939 14.85333561 21.28588046 19.98720478 21.1875 27.5625 C21.18105469 28.65691406 21.17460938 29.75132813 21.16796875 30.87890625 C21.01649324 33.69353265 20.63784164 36.2598323 20 39 C19.67 39 19.34 39 19 39 C18.90203125 38.11957031 18.8040625 37.23914062 18.703125 36.33203125 C18.55359375 35.17058594 18.4040625 34.00914063 18.25 32.8125 C18.11078125 31.66394531 17.9715625 30.51539062 17.828125 29.33203125 C16.90871849 25.63272109 15.47736277 23.83486837 13 21 C13 20.34 13 19.68 13 19 C9.62902617 17.50178941 7.79557881 17 4 17 C2.31503702 16.03114628 0.64821244 15.03013277 -1 14 C-2.32 13.67 -3.64 13.34 -5 13 C-5 10.03 -5 7.06 -5 4 C-3.68 3.34 -2.36 2.68 -1 2 C-0.67 1.34 -0.34 0.68 0 0 Z " fill="#2473ED" transform="translate(61,11)"></path><path d="M0 0 C1.65 0 3.3 0 5 0 C5.05583292 1.4578597 5.09358421 2.91640983 5.125 4.375 C5.14820312 5.18710938 5.17140625 5.99921875 5.1953125 6.8359375 C4.92122805 11.27610564 3.87244606 15.63776969 3 20 C11.25 20 19.5 20 28 20 C28 21.65 28 23.3 28 25 C23.90661348 25.04939115 19.81334202 25.08571501 15.71972656 25.10986328 C14.32679219 25.11992877 12.93387898 25.13358234 11.54101562 25.15087891 C9.5404564 25.1751022 7.53974385 25.18540814 5.5390625 25.1953125 C4.33459473 25.20578613 3.13012695 25.21625977 1.88916016 25.22705078 C-1 25 -1 25 -3 23 C-3.13502978 15.25829281 -1.7480268 7.51821235 0 0 Z " fill="#010101" transform="translate(119,94)"></path><path d="M0 0 C1.22589844 0.02191406 2.45179688 0.04382813 3.71484375 0.06640625 C4.94332031 0.06511719 6.17179687 0.06382813 7.4375 0.0625 C10.65234375 0.62890625 10.65234375 0.62890625 12.5859375 2.4765625 C14.14617757 5.62561846 13.75168969 7.33086843 12.65234375 10.62890625 C10.37316466 13.51586643 8.65369811 14.48352443 5.015625 15.01171875 C0.69962028 15.18458943 -2.3247412 15.27120175 -6.03515625 12.94140625 C-7.64093217 10.11218201 -7.97235251 8.83047457 -7.34765625 5.62890625 C-5.17733414 2.04547514 -4.18957717 0.78707342 0 0 Z " fill="#F9F9F9" transform="translate(409.34765625,99.37109375)"></path><path d="M0 0 C1.70349609 0.00193359 1.70349609 0.00193359 3.44140625 0.00390625 C6.4375 0.4375 6.4375 0.4375 8.3125 1.78125 C10.10506369 4.42030209 9.8801296 6.33909283 9.4375 9.4375 C7.5704009 11.74025556 6.08102259 13.11573871 3.4375 14.4375 C1.62906337 14.58466542 -0.18581566 14.6585887 -2 14.6875 C-3.45212891 14.72617188 -3.45212891 14.72617188 -4.93359375 14.765625 C-7.5625 14.4375 -7.5625 14.4375 -9.3828125 13.13671875 C-11.38670062 10.25032362 -10.97831859 7.82345141 -10.5625 4.4375 C-7.4842326 0.25878918 -5.06060363 -0.08635842 0 0 Z " fill="#F7F7F7" transform="translate(170.5625,99.5625)"></path><path d="M0 0 C1.65 0 3.3 0 5 0 C5.55048791 8.66508753 3.88081125 16.60352122 2 25 C0.35 25 -1.3 25 -3 25 C-3.125 18.25 -3.125 18.25 -2 16 C-7.28 16 -12.56 16 -18 16 C-18 14.02 -18 12.04 -18 10 C-12.39 10 -6.78 10 -1 10 C-0.67 6.7 -0.34 3.4 0 0 Z " fill="#121212" transform="translate(382,94)"></path><path d="M0 0 C0.66 0 1.32 0 2 0 C3.53851766 1.71951974 5.00731759 3.50187497 6.4375 5.3125 C9.45235569 9.16467002 9.45235569 9.16467002 12.78515625 12.73046875 C14 14 14 14 14 16 C14.66 16 15.32 16 16 16 C16 16.66 16 17.32 16 18 C17.98 18 19.96 18 22 18 C22 18.33 22 18.66 22 19 C12.1 19 2.2 19 -8 19 C-8 17.35 -8 15.7 -8 14 C-7.67 15.32 -7.34 16.64 -7 18 C-5.35 18 -3.7 18 -2 18 C-2.04125 17.071875 -2.0825 16.14375 -2.125 15.1875 C-2.1462373 10.0268365 -1.02043018 5.03837402 0 0 Z " fill="#EFEFEF" transform="translate(445,101)"></path><path d="M0 0 C1.61455078 0.00483398 1.61455078 0.00483398 3.26171875 0.00976562 C4.38964844 0.01814453 5.51757812 0.02652344 6.6796875 0.03515625 C7.81535156 0.03966797 8.95101563 0.04417969 10.12109375 0.04882812 C12.93234388 0.0606401 15.7434898 0.07711118 18.5546875 0.09765625 C18.5546875 2.07765625 18.5546875 4.05765625 18.5546875 6.09765625 C14.2630448 6.264944 9.97136956 6.43138166 5.6796875 6.59765625 C4.45636719 6.64535156 3.23304688 6.69304687 1.97265625 6.7421875 C0.22275391 6.80986328 0.22275391 6.80986328 -1.5625 6.87890625 C-2.64128418 6.92080078 -3.72006836 6.96269531 -4.83154297 7.00585938 C-6.36882273 7.0598494 -7.90708495 7.09765625 -9.4453125 7.09765625 C-9.9403125 7.59265625 -10.4353125 8.08765625 -10.9453125 8.59765625 C-11.4403125 9.09265625 -11.9353125 9.58765625 -12.4453125 10.09765625 C-13.1053125 10.09765625 -13.7653125 10.09765625 -14.4453125 10.09765625 C-14.1869241 6.60941284 -13.18064514 5.85551378 -10.5078125 3.41015625 C-6.50519684 0.387773 -4.92386958 -0.0259151 0 0 Z " fill="#171717" transform="translate(495.4453125,93.90234375)"></path><path d="M0 0 C0.94101563 0.00322266 1.88203125 0.00644531 2.8515625 0.00976562 C3.83640625 0.01814453 4.82125 0.02652344 5.8359375 0.03515625 C6.82851562 0.03966797 7.82109375 0.04417969 8.84375 0.04882812 C11.2995391 0.0606348 13.75520854 0.07710225 16.2109375 0.09765625 C15.8809375 2.07765625 15.5509375 4.05765625 15.2109375 6.09765625 C14.59049561 6.11747559 13.97005371 6.13729492 13.33081055 6.15771484 C10.51959213 6.2529747 7.70911584 6.36264927 4.8984375 6.47265625 C3.43374023 6.5190625 3.43374023 6.5190625 1.93945312 6.56640625 C0.53276367 6.62441406 0.53276367 6.62441406 -0.90234375 6.68359375 C-1.76641846 6.71501465 -2.63049316 6.74643555 -3.52075195 6.77880859 C-6.06648695 6.96953662 -6.06648695 6.96953662 -8.7890625 9.09765625 C-9.1190625 8.10765625 -9.4490625 7.11765625 -9.7890625 6.09765625 C-11.1090625 7.08765625 -12.4290625 8.07765625 -13.7890625 9.09765625 C-11.33592851 2.85331518 -6.4405309 -0.03879838 0 0 Z " fill="#161616" transform="translate(88.7890625,93.90234375)"></path><path d="M0 0 C0.1953125 2.01822917 0.390625 4.03645833 0.5859375 6.0546875 C0.86374749 8.22668245 0.86374749 8.22668245 3 10 C6.35744112 10.24377883 6.35744112 10.24377883 10.125 10.125 C11.40632813 10.10695313 12.68765625 10.08890625 14.0078125 10.0703125 C14.99523437 10.04710938 15.98265625 10.02390625 17 10 C16.34 11.98 15.68 13.96 15 16 C12.5821288 16.10826289 10.16912444 16.18739789 7.75 16.25 C6.72712891 16.30027344 6.72712891 16.30027344 5.68359375 16.3515625 C2.24699652 16.41829254 0.39573263 16.30662727 -2.359375 14.171875 C-6.09805694 9.22257224 -6.19789947 7.0359339 -6 1 C-5.01 1.495 -5.01 1.495 -4 2 C-1 0 -1 0 0 0 Z " fill="#0D0D0D" transform="translate(160,103)"></path><path d="M0 0 C1.65 0 3.3 0 5 0 C4.60271115 8.52080037 4.21772491 16.72049367 2 25 C0.35 25 -1.3 25 -3 25 C-2.56891497 16.49174287 -2.01290353 8.30566989 0 0 Z " fill="#1B1B1B" transform="translate(356,94)"></path><path d="M0 0 C3.97927427 3.2931925 5.93336262 7.01190168 7 12 C7.41324959 18.11019038 7.37678748 24.01541573 6 30 C5.67 30 5.34 30 5 30 C4.90203125 29.11957031 4.8040625 28.23914063 4.703125 27.33203125 C4.55359375 26.17058594 4.4040625 25.00914063 4.25 23.8125 C4.11078125 22.66394531 3.9715625 21.51539062 3.828125 20.33203125 C2.90871849 16.63272109 1.47736277 14.83486837 -1 12 C-1 11.34 -1 10.68 -1 10 C-1.66 10 -2.32 10 -3 10 C-3.6875 7.75 -3.6875 7.75 -4 5 C-2.81005711 3.05282073 -1.60235151 1.60235151 0 0 Z " fill="#4C94FB" transform="translate(75,20)"></path><path d="M0 0 C0.83265381 0.00523682 1.66530762 0.01047363 2.52319336 0.01586914 C3.42231445 0.0190918 4.32143555 0.02231445 5.24780273 0.02563477 C6.66609375 0.03820312 6.66609375 0.03820312 8.11303711 0.05102539 C9.06243164 0.05553711 10.01182617 0.06004883 10.98999023 0.06469727 C13.34356776 0.07652429 15.69702188 0.09300514 18.05053711 0.11352539 C18.09325811 1.77964444 18.09117543 3.44735424 18.05053711 5.11352539 C17.05053711 6.11352539 17.05053711 6.11352539 15.10107422 6.22705078 C14.26842041 6.22181396 13.4357666 6.21657715 12.57788086 6.21118164 C11.67875977 6.20795898 10.77963867 6.20473633 9.85327148 6.20141602 C8.90774414 6.19303711 7.9622168 6.1846582 6.98803711 6.17602539 C6.03864258 6.17151367 5.08924805 6.16700195 4.11108398 6.16235352 C1.75750646 6.15052649 -0.59594766 6.13404564 -2.94946289 6.11352539 C-2.99218389 4.44740634 -2.99010121 2.77969654 -2.94946289 1.11352539 C-1.94946289 0.11352539 -1.94946289 0.11352539 0 0 Z " fill="#1E1E1E" transform="translate(493.949462890625,103.886474609375)"></path><path d="M0 0 C1.98 0 3.96 0 6 0 C5.22095672 14.78132118 5.22095672 14.78132118 3 21 C2.67 20.34 2.34 19.68 2 19 C1.01 19.66 0.02 20.32 -1 21 C-1.66 21.33 -2.32 21.66 -3 22 C-2.01 14.74 -1.02 7.48 0 0 Z " fill="#171717" transform="translate(223,94)"></path><path d="M0 0 C1.65 0 3.3 0 5 0 C5.26618595 6.95041086 4.6120509 13.23514355 3 20 C2.01 19.67 1.02 19.34 0 19 C-0.99 20.32 -1.98 21.64 -3 23 C-2.53430878 15.1812896 -1.77541538 7.63600985 0 0 Z " fill="#151515" transform="translate(119,94)"></path><path d="M0 0 C1.65 0 3.3 0 5 0 C3.68 0.33 2.36 0.66 1 1 C1.33 1.66 1.66 2.32 2 3 C2.33 2.67 2.66 2.34 3 2 C4.68608966 1.92794489 6.37500659 1.91613932 8.0625 1.9375 C8.98160156 1.94652344 9.90070312 1.95554687 10.84765625 1.96484375 C11.55792969 1.97644531 12.26820312 1.98804688 13 2 C12.01 2.66 11.02 3.32 10 4 C9.95834635 5.66614608 9.95834635 7.33385392 10 9 C8 11 8 11 5.8359375 11.1953125 C4.61777344 11.16050781 4.61777344 11.16050781 3.375 11.125 C2.55773437 11.10695313 1.74046875 11.08890625 0.8984375 11.0703125 C0.27195313 11.04710937 -0.35453125 11.02390625 -1 11 C-1.0270043 9.54176788 -1.04639787 8.08339325 -1.0625 6.625 C-1.07410156 5.81289063 -1.08570312 5.00078125 -1.09765625 4.1640625 C-1 2 -1 2 0 0 Z " fill="#075BDF" transform="translate(3,11)"></path><path d="M0 0 C0.33 0.99 0.66 1.98 1 3 C0.01 4.485 0.01 4.485 -1 6 C-1.07905064 8.33199388 -1.08798769 10.66832622 -1 13 C-0.01 13.33 0.98 13.66 2 14 C1.34 15.32 0.68 16.64 0 18 C-4 18 -4 18 -5.73828125 16.328125 C-7.2360495 13.56444117 -7.31065988 11.87005042 -7.1875 8.75 C-7.16042969 7.85796875 -7.13335937 6.9659375 -7.10546875 6.046875 C-7.07066406 5.37140625 -7.03585937 4.6959375 -7 4 C-5.68 4 -4.36 4 -3 4 C-1.22590192 2.07977297 -1.22590192 2.07977297 0 0 Z " fill="#0C0C0C" transform="translate(487,99)"></path><path d="M0 0 C0.66 0.33 1.32 0.66 2 1 C1.814375 1.680625 1.62875 2.36125 1.4375 3.0625 C0.72703767 7.83274704 1.70918137 12.38993347 3 17 C2.34 17 1.68 17 1 17 C1 17.66 1 18.32 1 19 C-1.3940425 18.042383 -2.73452588 17.4315127 -4.10546875 15.203125 C-5.6042681 11.5117589 -5.73786572 7.90424095 -5 4 C-2.5 1.4375 -2.5 1.4375 0 0 Z " fill="#090909" transform="translate(79,99)"></path><path d="M0 0 C0.18451025 10.55808656 0.18451025 10.55808656 -1 15 C-2.65 15 -4.3 15 -6 15 C-6.3457886 9.35211947 -5.56064053 5.92430871 -3 1 C-1 0 -1 0 0 0 Z " fill="#070707" transform="translate(359,104)"></path><path d="M0 0 C2.0343459 1.41519715 2.90410393 2.54982123 3.421875 4.98046875 C3.66273952 6.98176954 3.83532741 8.9909944 4 11 C2.02 11.99 2.02 11.99 0 13 C-0.33 12.01 -0.66 11.02 -1 10 C-1.66 10 -2.32 10 -3 10 C-3.6875 7.75 -3.6875 7.75 -4 5 C-2.81005711 3.05282073 -1.60235151 1.60235151 0 0 Z " fill="#3484F7" transform="translate(75,20)"></path><path d="M0 0 C0.61875 0.185625 1.2375 0.37125 1.875 0.5625 C4.04160178 1.23686176 4.04160178 1.23686176 6 0 C7 2 7 2 7 9 C2.38 9 -2.24 9 -7 9 C-7 8.67 -7 8.34 -7 8 C-5.02 7.67 -3.04 7.34 -1 7 C-0.67 4.69 -0.34 2.38 0 0 Z " fill="#2972E7" transform="translate(17,24)"></path><path d="M0 0 C1.98 0 3.96 0 6 0 C5.67 3.3 5.34 6.6 5 10 C3.35 10 1.7 10 0 10 C0 6.7 0 3.4 0 0 Z " fill="#1A1A1A" transform="translate(466,94)"></path><path d="M0 0 C0.66 0.99 1.32 1.98 2 3 C1.21516341 4.48280196 0.42190666 5.9611498 -0.375 7.4375 C-0.81585938 8.26121094 -1.25671875 9.08492187 -1.7109375 9.93359375 C-3 12 -3 12 -5 13 C-4.64989059 4.80743982 -4.64989059 4.80743982 -1.9375 1.4375 C-1.298125 0.963125 -0.65875 0.48875 0 0 Z " fill="#1563E2" transform="translate(78,50)"></path><path d="M0 0 C0.66 0.33 1.32 0.66 2 1 C1.6875 3.375 1.6875 3.375 1 6 C0.01 6.66 -0.98 7.32 -2 8 C-2.33 7.01 -2.66 6.02 -3 5 C-4.32 5.99 -5.64 6.98 -7 8 C-5.50902342 4.2047869 -3.24299151 2.38957269 0 0 Z " fill="#1C1C1C" transform="translate(82,95)"></path><path d="M0 0 C1.98 0 3.96 0 6 0 C5.67 1.65 5.34 3.3 5 5 C4.01 5.33 3.02 5.66 2 6 C1.34 5.67 0.68 5.34 0 5 C0 3.35 0 1.7 0 0 Z " fill="#171717" transform="translate(239,105)"></path><path d="M0 0 C0.18451025 9.41002278 0.18451025 9.41002278 -1 14 C-1.33 14 -1.66 14 -2 14 C-2.33 9.71 -2.66 5.42 -3 1 C-1 0 -1 0 0 0 Z " fill="#408CF9" transform="translate(82,36)"></path><path d="M0 0 C0.33 0.66 0.66 1.32 1 2 C1.66 2.33 2.32 2.66 3 3 C-2.75 8 -2.75 8 -5 8 C-4.45773019 4.20411134 -2.79872437 2.52788007 0 0 Z " fill="#181818" transform="translate(486,96)"></path><path d="M0 0 C0 0.99 0 1.98 0 3 C-1 4 -1 4 -4.59765625 4.09765625 C-6.08596867 4.0909822 -7.57426432 4.07902183 -9.0625 4.0625 C-9.82111328 4.05798828 -10.57972656 4.05347656 -11.36132812 4.04882812 C-13.24091871 4.0370068 -15.12046899 4.01907078 -17 4 C-17 3.67 -17 3.34 -17 3 C-16.10796875 2.95101562 -15.2159375 2.90203125 -14.296875 2.8515625 C-12.54117187 2.73941406 -12.54117187 2.73941406 -10.75 2.625 C-9.00976562 2.52058594 -9.00976562 2.52058594 -7.234375 2.4140625 C-4.29305666 2.03751692 -2.50050989 1.5225877 0 0 Z " fill="#C6C6C6" transform="translate(422,116)"></path><path d="M0 0 C1.98 0.66 3.96 1.32 6 2 C4.68 3.65 3.36 5.3 2 7 C1.01 6.67 0.02 6.34 -1 6 C-0.67 4.02 -0.34 2.04 0 0 Z " fill="#090909" transform="translate(118,112)"></path><path d="M0 0 C0 0.66 0 1.32 0 2 C-2.07553648 2.5534764 -3.84365964 3 -6 3 C-7.34882408 3.63474075 -8.6846659 4.29848848 -10 5 C-6.58244111 0.23982869 -6.58244111 0.23982869 -3.875 -0.875 C-2 -1 -2 -1 0 0 Z " fill="#292929" transform="translate(280,11)"></path><path d="M0 0 C0.99 0.33 1.98 0.66 3 1 C2.21625 1.7425 1.4325 2.485 0.625 3.25 C-1.56504531 5.54433318 -2.82731386 7.12158858 -4 10 C-4.41176754 6.39703406 -4.1535853 5.21597933 -2 2.1875 C-1.34 1.465625 -0.68 0.74375 0 0 Z " fill="#BABABA" transform="translate(406,100)"></path><path d="M0 0 C0.66 0.33 1.32 0.66 2 1 C1 4 1 4 -0.875 5.0625 C-1.57625 5.371875 -2.2775 5.68125 -3 6 C-3.99 6.66 -4.98 7.32 -6 8 C-4.55746343 4.63408134 -2.66735273 2.48952921 0 0 Z " fill="#202020" transform="translate(161,96)"></path></svg> 