<svg xmlns="http://www.w3.org/2000/svg" width="35" height="24" viewBox="0 0 35 24" fill="none"><rect y="-0.00390625" width="35" height="24" rx="6" fill="black"></rect><path fill-rule="evenodd" clip-rule="evenodd" d="M17.75 17.153C16.5584 18.1813 15.0128 18.8021 13.3238 18.8021C9.55511 18.8021 6.5 15.7115 6.5 11.8991C6.5 8.08667 9.55511 4.99609 13.3238 4.99609C15.0128 4.99609 16.5584 5.61684 17.75 6.64512C18.9416 5.61684 20.4872 4.99609 22.1762 4.99609C25.9449 4.99609 29 8.08667 29 11.8991C29 15.7115 25.9449 18.8021 22.1762 18.8021C20.4872 18.8021 18.9416 18.1813 17.75 17.153Z" fill="#ED0006"></path><path fill-rule="evenodd" clip-rule="evenodd" d="M17.75 17.153C19.2172 15.8869 20.1475 14.0029 20.1475 11.8991C20.1475 9.79526 19.2172 7.91126 17.75 6.64512C18.9416 5.61684 20.4872 4.99609 22.1762 4.99609C25.9449 4.99609 29 8.08667 29 11.8991C29 15.7115 25.9449 18.8021 22.1762 18.8021C20.4872 18.8021 18.9416 18.1813 17.75 17.153Z" fill="#F9A000"></path><path fill-rule="evenodd" clip-rule="evenodd" d="M17.7491 17.1534C19.2163 15.8872 20.1466 14.0032 20.1466 11.8994C20.1466 9.79563 19.2163 7.91164 17.7491 6.64551C16.2819 7.91164 15.3516 9.79563 15.3516 11.8994C15.3516 14.0032 16.2819 15.8872 17.7491 17.1534Z" fill="#FF5E00"></path></svg>