<?xml version="1.0" encoding="UTF-8"?> <svg xmlns="http://www.w3.org/2000/svg" version="1.1" width="203" height="200"><path d="M0 0 C66.99 0 133.98 0 203 0 C203 66 203 132 203 200 C136.01 200 69.02 200 0 200 C0 134 0 68 0 0 Z " fill="#FEFEFE" transform="translate(0,0)"></path><path d="M0 0 C10.8815094 8.05231696 21.4520465 16.51788993 32 25 C37.06268768 23.44224994 40.52113862 20.34842822 44.5 17 C45.915499 15.82801537 47.33218432 14.6574622 48.75 13.48828125 C49.45769531 12.90385254 50.16539063 12.31942383 50.89453125 11.71728516 C54.04866781 9.14467424 57.26553255 6.65792002 60.5 4.1875 C61.05751953 3.76146484 61.61503906 3.33542969 62.18945312 2.89648438 C63.45821039 1.92911772 64.72886216 0.96423641 66 0 C72.92170545 4.31867092 79.34900296 9.2545806 85.79467773 14.2409668 C86.49407471 14.78148682 87.19347168 15.32200684 87.9140625 15.87890625 C88.5323291 16.3591626 89.1505957 16.83941895 89.78759766 17.33422852 C91.85848415 18.97295803 91.85848415 18.97295803 93.71936703 19.95569801 C95.73828765 21.15867554 97.36019446 22.3111278 99 24 C99.68899626 27.19552036 99.89541829 29.36950127 99.79467773 32.55395508 C99.79569992 33.40324585 99.79672211 34.25253662 99.79777527 35.12756348 C99.79291013 37.9261736 99.73852419 40.72149356 99.68359375 43.51953125 C99.67053363 45.46292844 99.66057141 47.40634872 99.65357971 49.34977722 C99.62688667 54.4582411 99.55815327 59.56530575 99.48065186 64.67321777 C99.40896966 69.88807242 99.37705756 75.10315378 99.34179688 80.31835938 C99.26678377 90.54618679 99.14735437 100.77297692 99 111 C94.98643043 108.64057177 91.32504678 106.02246011 87.6875 103.125 C87.08429932 102.64812744 86.48109863 102.17125488 85.85961914 101.67993164 C80.49716873 97.42719052 75.19687078 93.09869597 69.89550781 88.77026367 C64.77440505 84.60024053 59.57015946 80.55832119 54.3125 76.5625 C51.8386105 74.66786268 49.41331857 72.72118387 47 70.75 C46.32396729 70.19965088 45.64793457 69.64930176 44.95141602 69.08227539 C43.63732261 68.00904867 42.32768077 66.93034132 41.02319336 65.84545898 C36.95746001 62.42594153 36.95746001 62.42594153 32 61 C30.19757578 61.88801188 30.19757578 61.88801188 28.56640625 63.39453125 C27.60347656 64.20180664 27.60347656 64.20180664 26.62109375 65.02539062 C25.94175781 65.61513672 25.26242188 66.20488281 24.5625 66.8125 C23.11709732 68.02878541 21.67046814 69.24361466 20.22265625 70.45703125 C19.50609863 71.06240723 18.78954102 71.6677832 18.05126953 72.29150391 C15.2615558 74.6150479 12.39462166 76.80820262 9.5 79 C4.58945574 82.74368226 -0.22020087 86.59100988 -5 90.5 C-11.89758501 96.13971211 -18.89710258 101.62090517 -26 107 C-27.10601562 107.87785156 -27.10601562 107.87785156 -28.234375 108.7734375 C-30 110 -30 110 -32 110 C-32.23207592 98.92561086 -32.40956985 87.85180337 -32.51812172 76.77547455 C-32.57023273 71.63166704 -32.64086363 66.48952728 -32.75439453 61.34667969 C-32.86334905 56.37984439 -32.92290198 51.41460892 -32.94877243 46.44667053 C-32.96719819 44.55508742 -33.0031835 42.66358842 -33.05730057 40.77268982 C-33.46385228 25.97383864 -33.46385228 25.97383864 -29.87503052 21.13471985 C-27.33779907 19.07686848 -24.87297603 17.54090662 -22 16 C-20.39364661 14.84773341 -18.80000472 13.67728499 -17.2265625 12.48046875 C-15.69463514 11.38012498 -14.16079422 10.28244017 -12.625 9.1875 C-11.07531701 8.07710732 -9.52583088 6.96643984 -7.9765625 5.85546875 C-6.97230225 5.13846802 -6.97230225 5.13846802 -5.94775391 4.40698242 C-3.94681164 2.96157878 -1.97038519 1.48671523 0 0 Z " fill="#02D7C0" transform="translate(68,45)"></path><path d="M0 0 C6.92170545 4.31867092 13.34900296 9.2545806 19.79467773 14.2409668 C20.49407471 14.78148682 21.19347168 15.32200684 21.9140625 15.87890625 C22.5323291 16.3591626 23.1505957 16.83941895 23.78759766 17.33422852 C25.85056596 18.99685867 25.85056596 18.99685867 27.78913879 19.87513733 C29.97203094 21.06801441 31.40599946 22.07825465 33 24 C33.98799996 28.10101573 33.81483849 32.1036752 33.68359375 36.30078125 C33.67368912 37.49229294 33.66378448 38.68380463 33.65357971 39.91142273 C33.61442826 43.71303948 33.52659303 47.5117576 33.4375 51.3125 C33.40238766 53.89123432 33.37044855 56.47001393 33.34179688 59.04882812 C33.26466313 65.36687259 33.14756197 71.68322924 33 78 C29.99241224 76.2491945 27.18584833 74.46749776 24.50390625 72.25 C23.55330322 71.46955322 23.55330322 71.46955322 22.58349609 70.67333984 C21.91656738 70.1211377 21.24963867 69.56893555 20.5625 69 C19.12964542 67.82461917 17.69603822 66.65015528 16.26171875 65.4765625 C15.5454834 64.89036133 14.82924805 64.30416016 14.09130859 63.70019531 C11.04580159 61.22425429 7.96583101 58.79398774 4.875 56.375 C4.30450928 55.92817871 3.73401855 55.48135742 3.14624023 55.02099609 C1.43169044 53.67955447 -0.28393923 52.33950801 -2 51 C-6.67845454 47.34813205 -11.34688471 43.68411357 -16 40 C-16.71671875 39.43361816 -17.4334375 38.86723633 -18.171875 38.28369141 C-20.41189006 36.50857603 -22.64431825 34.72432414 -24.875 32.9375 C-25.58382324 32.37691895 -26.29264648 31.81633789 -27.02294922 31.23876953 C-27.67279785 30.71524902 -28.32264648 30.19172852 -28.9921875 29.65234375 C-29.57339355 29.18820068 -30.15459961 28.72405762 -30.75341797 28.24584961 C-31.16479004 27.83471924 -31.57616211 27.42358887 -32 27 C-32 26.34 -32 25.68 -32 25 C-29.99486241 23.27216868 -27.98104269 21.65961467 -25.875 20.0625 C-24.59359838 19.07441535 -23.31235301 18.08612803 -22.03125 17.09765625 C-21.36738281 16.5886377 -20.70351562 16.07961914 -20.01953125 15.55517578 C-16.78373381 13.06339269 -13.58089999 10.53005004 -10.375 8 C-6.94401909 5.29618078 -3.50931008 2.60202504 0 0 Z " fill="#5B7BFC" transform="translate(134,45)"></path><path d="M0 0 C2.23335198 0.83790867 3.64597926 1.82251737 5.46972656 3.35375977 C6.11296875 3.88630371 6.75621094 4.41884766 7.41894531 4.9675293 C8.43601562 5.82580322 8.43601562 5.82580322 9.47363281 6.70141602 C15.63697867 11.83432273 15.63697867 11.83432273 21.97753906 16.74438477 C22.88064819 17.41836304 22.88064819 17.41836304 23.80200195 18.10595703 C25.44823176 19.32388433 27.1013731 20.53245322 28.75488281 21.74047852 C29.50769531 22.40821289 30.26050781 23.07594727 31.03613281 23.76391602 C31.03613281 26.76391602 31.03613281 26.76391602 29.77368164 28.13916016 C28.89232544 28.83706665 28.89232544 28.83706665 27.99316406 29.54907227 C27.33832031 30.07436523 26.68347656 30.5996582 26.00878906 31.14086914 C25.2959375 31.69709961 24.58308594 32.25333008 23.84863281 32.82641602 C23.11902344 33.40713867 22.38941406 33.98786133 21.63769531 34.58618164 C16.26807084 38.84533404 10.83017389 43.01499361 5.37988281 47.17016602 C1.53726212 50.12602809 -2.21133818 53.19504253 -5.96386719 56.26391602 C-12.8614522 61.90362812 -19.86096977 67.38482119 -26.96386719 72.76391602 C-28.06988281 73.64176758 -28.06988281 73.64176758 -29.19824219 74.53735352 C-30.96386719 75.76391602 -30.96386719 75.76391602 -32.96386719 75.76391602 C-33.39822698 68.45616155 -33.69386047 61.15176595 -33.89770508 53.83398438 C-33.98272616 51.35094936 -34.09840317 48.86875388 -34.24633789 46.38867188 C-35.4091649 26.37919542 -35.4091649 26.37919542 -31.36630249 20.40197754 C-27.48449819 16.41903213 -23.04428588 13.64006846 -18.17216492 11.01763916 C-14.57942649 8.97792356 -11.39792855 6.43059564 -8.15136719 3.88891602 C-2.68434653 -0.32269556 -2.68434653 -0.32269556 0 0 Z " fill="#566AF5" transform="translate(68.9638671875,79.236083984375)"></path><path d="M0 0 C2.02702537 1.30638625 4.02260317 2.63398235 6 4.015625 C8.29569584 5.53413214 10.51818753 6.82324624 12.9375 8.109375 C17.18283961 10.54288763 21.22694577 12.86796555 24 17 C25.79498325 23.83765819 24.94048981 31.07317197 24 38 C19.16929964 35.35732275 15.09795584 31.9335536 10.875 28.4375 C9.45669594 27.26835746 8.03746161 26.10034229 6.6171875 24.93359375 C5.99440918 24.41853271 5.37163086 23.90347168 4.72998047 23.37280273 C3.21309706 22.1691003 1.61122298 21.07414866 0 20 C-0.34057617 17.93701172 -0.34057617 17.93701172 -0.29296875 15.4296875 C-0.28330078 14.53378906 -0.27363281 13.63789062 -0.26367188 12.71484375 C-0.23853516 11.77769531 -0.21339844 10.84054688 -0.1875 9.875 C-0.17396484 8.93011719 -0.16042969 7.98523438 -0.14648438 7.01171875 C-0.11106306 4.67391221 -0.06167271 2.33723763 0 0 Z " fill="#4142FE" transform="translate(143,85)"></path><path d="M0 0 C2.52108589 15.45606907 2.52108589 15.45606907 -1.57177734 21.20947266 C-6.16365008 25.86180897 -11.51255335 29.48921424 -17 33 C-18.186347 33.79079603 -19.37144638 34.5834705 -20.5546875 35.37890625 C-21.36164062 35.91386719 -22.16859375 36.44882813 -23 37 C-25.69907546 19.77721169 -25.69907546 19.77721169 -21.41210938 13.77783203 C-16.85026748 9.35152312 -11.5133038 6.1055186 -6 3 C-5.01386719 2.39414063 -4.02773438 1.78828125 -3.01171875 1.1640625 C-1 0 -1 0 0 0 Z " fill="#4142FE" transform="translate(59,86)"></path><path d="M0 0 C3.28267181 1.5202041 5.9931772 3.03554799 8.1171875 5.98046875 C8.84067946 9.28480832 8.68775344 12.43073892 8.4921875 15.79296875 C8.46511719 16.67662109 8.43804687 17.56027344 8.41015625 18.47070312 C8.33974619 20.64167989 8.23213356 22.81139404 8.1171875 24.98046875 C3.45225636 21.96620555 -0.91261189 18.68667216 -5.2578125 15.23046875 C-6.21880859 14.47056641 -6.21880859 14.47056641 -7.19921875 13.6953125 C-8.76202552 12.45906237 -10.32264786 11.22005162 -11.8828125 9.98046875 C-10.47589766 6.65173725 -8.87589669 4.84879503 -6.0078125 2.66796875 C-5.32976562 2.13558594 -4.65171875 1.60320312 -3.953125 1.0546875 C-1.8828125 -0.01953125 -1.8828125 -0.01953125 0 0 Z " fill="#FCFDFE" transform="translate(134.8828125,79.01953125)"></path><path d="M0 0 C2.359375 1.55859375 2.359375 1.55859375 4.75 3.4375 C5.54921875 4.05496094 6.3484375 4.67242187 7.171875 5.30859375 C7.77515625 5.86675781 8.3784375 6.42492187 9 7 C9 7.66 9 8.32 9 9 C7.013609 10.68768559 5.02544708 12.25968941 2.9375 13.8125 C2.37611328 14.23853516 1.81472656 14.66457031 1.23632812 15.10351562 C-2.78917482 18.14449556 -6.88568744 21.08067249 -11 24 C-11.20414775 20.77177349 -11.32787876 17.54520809 -11.4375 14.3125 C-11.49615234 13.40048828 -11.55480469 12.48847656 -11.61523438 11.54882812 C-11.78269561 4.96999385 -11.78269561 4.96999385 -9.55126953 2.20458984 C-6.14425776 -0.42549588 -4.19579397 -1.55463181 0 0 Z " fill="#FBFDFE" transform="translate(71,80)"></path><path d="M0 0 C0 2.31 0 4.62 0 7 C-1.9375 6.1875 -1.9375 6.1875 -4 5 C-4.33 4.01 -4.66 3.02 -5 2 C-2 0 -2 0 0 0 Z " fill="#505EEF" transform="translate(107,68)"></path></svg> 