<?xml version="1.0" encoding="UTF-8"?> <svg xmlns="http://www.w3.org/2000/svg" width="120" height="120" viewBox="0 0 120 120" fill="none"><g clip-path="url(#clip0_393_22)"><path d="M60.505 118.678C92.6861 118.678 118.774 92.5904 118.774 60.4092C118.774 28.2281 92.6861 2.14014 60.505 2.14014C28.3238 2.14014 2.23584 28.2281 2.23584 60.4092C2.23584 92.5904 28.3238 118.678 60.505 118.678Z" fill="white" stroke="black" stroke-opacity="0.0321285" stroke-width="1.18319" stroke-linecap="round"></path><path d="M60.4093 116.485C91.3792 116.485 116.485 91.3791 116.485 60.4093C116.485 29.4394 91.3792 4.33344 60.4093 4.33344C29.4395 4.33344 4.3335 29.4394 4.3335 60.4093C4.3335 91.3791 29.4395 116.485 60.4093 116.485Z" fill="black" stroke="black" stroke-opacity="0.0321285" stroke-width="1.13867" stroke-linecap="round"></path><path fill-rule="evenodd" clip-rule="evenodd" d="M17.7129 96.8979L48.5429 62.4537L69.7813 82.289L102.394 24.3848L66.9148 59.2046L44.6843 36.3221L17.7129 96.8979Z" fill="white"></path><path fill-rule="evenodd" clip-rule="evenodd" d="M60.2252 83.5184C51.7674 76.198 49.6662 74.4299 49.4572 74.4476C49.1985 74.4689 46.5411 77.1122 36.8431 86.9908C34.8554 89.0176 33.229 90.6404 33.229 90.605C33.229 90.5412 37.5801 84.7409 47.3241 71.8115L49.0922 69.4658L59.226 79.0433C66.6279 86.0342 69.4306 88.6278 69.629 88.6455C69.8842 88.6739 70.5467 87.6109 81.2333 69.9477C87.4694 59.6474 92.2032 50.7821 92.228 50.8069C92.267 50.8495 70.94 92.405 70.8054 92.5396C70.7664 92.5786 66.0043 88.5215 60.2252 83.5184Z" fill="white"></path></g><defs><clipPath id="clip0_393_22"><rect width="120" height="120" fill="white"></rect></clipPath></defs></svg> 