<?xml version="1.0" encoding="UTF-8"?> <svg xmlns="http://www.w3.org/2000/svg" version="1.1" width="200" height="200"><path d="M0 0 C7.64270125 0.13456263 12.8950121 3.25046269 19.2890625 7.1640625 C20.34351563 7.78152344 21.39796875 8.39898438 22.484375 9.03515625 C26.52126474 11.40832782 30.5290114 13.81732073 34.48071289 16.33007812 C35.34946045 16.87599609 36.21820801 17.42191406 37.11328125 17.984375 C37.86955811 18.47180176 38.62583496 18.95922852 39.4050293 19.46142578 C42.83899182 21.09954429 45.89420867 20.84164954 49.625 20.63671875 C70.01317904 19.98157161 89.55515445 29.35502406 104.6640625 42.5390625 C104.6640625 43.1990625 104.6640625 43.8590625 104.6640625 44.5390625 C105.3240625 44.5390625 105.9840625 44.5390625 106.6640625 44.5390625 C106.6640625 45.1990625 106.6640625 45.8590625 106.6640625 46.5390625 C107.3240625 46.5390625 107.9840625 46.5390625 108.6640625 46.5390625 C110.21484375 48.375 110.21484375 48.375 111.9765625 50.9140625 C112.61078125 51.82671875 113.245 52.739375 113.8984375 53.6796875 C115.52411349 56.31241942 116.60374424 58.79463805 117.7265625 61.6640625 C120.79937172 67.97604321 126.36731515 70.2674842 132.34619141 73.31689453 C137.083852 75.81497004 141.67577275 78.57040195 146.2890625 81.2890625 C147.2493335 81.84440674 148.20960449 82.39975098 149.19897461 82.97192383 C150.56227905 83.7708606 150.56227905 83.7708606 151.953125 84.5859375 C152.76475098 85.05870117 153.57637695 85.53146484 154.41259766 86.01855469 C157.60389673 88.17377163 160.27853418 90.10574863 161.30078125 93.90625 C161.43276222 100.42407952 161.43276222 100.42407952 159.44140625 103.3125 C153.25407672 108.84160298 145.2111497 112.77060794 137.90234375 116.58203125 C136.92845703 117.09958984 135.95457031 117.61714844 134.95117188 118.15039062 C132.9669278 119.20179245 130.97191835 120.23312221 128.96679688 121.24414062 C121.32084709 125.37447762 117.84885276 130.04550092 113.6640625 137.5390625 C100.92994832 154.97926235 83.31493943 167.61612223 61.71484375 171.2421875 C58.6640625 171.5390625 58.6640625 171.5390625 54.83203125 171.5234375 C42.19377456 171.47890524 34.18823576 175.8912967 23.6640625 182.5390625 C21.1454816 184.10092733 18.62039918 185.64885451 16.07958984 187.17431641 C14.47239783 188.14053174 12.87667569 189.12619127 11.29541016 190.13427734 C6.10110287 193.28044594 1.75090812 194.57394873 -4.3359375 193.5390625 C-7.64066887 191.71091323 -8.94518887 190.4206439 -10.47021484 186.97998047 C-11.57901882 182.57290679 -11.43605074 178.62373733 -11.25 174.109375 C-11.20516503 172.24223138 -11.1622607 170.37504059 -11.12109375 168.5078125 C-11.04751893 165.59990171 -10.96219225 162.69447605 -10.84228516 159.78808594 C-10.32357134 146.56428142 -11.64022188 137.66566678 -18.36984253 126.24954224 C-23.3419096 117.44645328 -24.0017865 108.22457222 -23.91235352 98.35864258 C-23.89851304 96.23813606 -23.93265508 94.12208848 -23.97070312 92.00195312 C-24.04877018 78.15618841 -20.38405918 65.99999527 -12.3359375 54.5390625 C-11.8409375 54.0440625 -11.8409375 54.0440625 -11.3359375 53.5390625 C-11.22931168 52.12315272 -11.18975311 50.70209861 -11.17822266 49.28222656 C-11.16282944 47.92511566 -11.16282944 47.92511566 -11.14712524 46.54058838 C-11.13982391 45.55524109 -11.13252258 44.5698938 -11.125 43.5546875 C-11.09692428 41.48436719 -11.06825977 39.4140548 -11.0390625 37.34375 C-10.99782567 34.06738565 -10.96095445 30.79116794 -10.93457031 27.51464844 C-10.90694863 24.36101383 -10.86106607 21.20805982 -10.8125 18.0546875 C-10.80924713 17.07743713 -10.80599426 16.10018677 -10.80264282 15.09332275 C-10.65829815 7.1004009 -9.10104507 0.34085749 0 0 Z M22.3515625 62.1015625 C20.02847818 66.83377129 19.84961739 71.32497013 19.6640625 76.5390625 C19.00019531 76.61382812 18.33632813 76.68859375 17.65234375 76.765625 C13.0950421 77.4442305 10.26377512 78.06174021 6.6015625 80.9765625 C3.59291867 85.330621 3.76809518 90.42065466 3.6640625 95.5390625 C3.61378906 96.44914062 3.56351563 97.35921875 3.51171875 98.296875 C3.32818502 103.21557895 3.33156434 106.63199569 6.6640625 110.5390625 C10.76897817 114.76126148 14.00974295 115.1557188 19.6640625 115.5390625 C19.73882812 116.39628906 19.81359375 117.25351563 19.890625 118.13671875 C20.64123935 124.66412 21.27316977 129.60807897 26.09765625 134.3046875 C29.86293543 137.27184017 33.47253156 138.01874364 38.25976562 137.97045898 C43.48735331 137.03248707 47.82596496 133.67726343 52.2265625 130.8515625 C54.44075611 129.46952362 56.65695133 128.0906871 58.875 126.71484375 C59.43577744 126.36463165 59.99655487 126.01441956 60.57432556 125.65359497 C67.29078224 121.48095599 74.24034667 117.7156296 81.22680664 114.0168457 C87.17631679 110.75928035 93.30880439 107.11898452 95.34106445 100.2512207 C96.30132123 94.89652725 95.637607 90.11691405 92.6640625 85.5390625 C86.36474073 80.33649765 78.6663173 76.64758463 71.5390625 72.7265625 C63.60171579 68.32774068 55.71238333 63.88659869 47.99169922 59.1159668 C38.63335282 53.36742826 29.86064279 53.78068975 22.3515625 62.1015625 Z " fill="#3D9DF6" transform="translate(31.3359375,3.4609375)"></path><path d="M0 0 C7.64270125 0.13456263 12.8950121 3.25046269 19.2890625 7.1640625 C20.34351563 7.78152344 21.39796875 8.39898438 22.484375 9.03515625 C26.52126474 11.40832782 30.5290114 13.81732073 34.48071289 16.33007812 C35.34946045 16.87599609 36.21820801 17.42191406 37.11328125 17.984375 C37.86955811 18.47180176 38.62583496 18.95922852 39.4050293 19.46142578 C42.83899182 21.09954429 45.89420867 20.84164954 49.625 20.63671875 C70.01317904 19.98157161 89.55515445 29.35502406 104.6640625 42.5390625 C104.6640625 43.1990625 104.6640625 43.8590625 104.6640625 44.5390625 C105.3240625 44.5390625 105.9840625 44.5390625 106.6640625 44.5390625 C106.6640625 45.1990625 106.6640625 45.8590625 106.6640625 46.5390625 C107.3240625 46.5390625 107.9840625 46.5390625 108.6640625 46.5390625 C110.21484375 48.375 110.21484375 48.375 111.9765625 50.9140625 C112.61078125 51.82671875 113.245 52.739375 113.8984375 53.6796875 C115.52411349 56.31241942 116.60374424 58.79463805 117.7265625 61.6640625 C120.79937172 67.97604321 126.36731515 70.2674842 132.34619141 73.31689453 C137.083852 75.81497004 141.67577275 78.57040195 146.2890625 81.2890625 C147.2493335 81.84440674 148.20960449 82.39975098 149.19897461 82.97192383 C150.56227905 83.7708606 150.56227905 83.7708606 151.953125 84.5859375 C152.76475098 85.05870117 153.57637695 85.53146484 154.41259766 86.01855469 C157.60389673 88.17377163 160.27853418 90.10574863 161.30078125 93.90625 C161.43276222 100.42407952 161.43276222 100.42407952 159.44140625 103.3125 C153.25407672 108.84160298 145.2111497 112.77060794 137.90234375 116.58203125 C136.92845703 117.09958984 135.95457031 117.61714844 134.95117188 118.15039062 C132.9669278 119.20179245 130.97191835 120.23312221 128.96679688 121.24414062 C121.32084709 125.37447762 117.84885276 130.04550092 113.6640625 137.5390625 C100.92994832 154.97926235 83.31493943 167.61612223 61.71484375 171.2421875 C58.6640625 171.5390625 58.6640625 171.5390625 54.83203125 171.5234375 C42.19377456 171.47890524 34.18823576 175.8912967 23.6640625 182.5390625 C21.1454816 184.10092733 18.62039918 185.64885451 16.07958984 187.17431641 C14.47239783 188.14053174 12.87667569 189.12619127 11.29541016 190.13427734 C6.10110287 193.28044594 1.75090812 194.57394873 -4.3359375 193.5390625 C-7.64066887 191.71091323 -8.94518887 190.4206439 -10.47021484 186.97998047 C-11.57901882 182.57290679 -11.43605074 178.62373733 -11.25 174.109375 C-11.20516503 172.24223138 -11.1622607 170.37504059 -11.12109375 168.5078125 C-11.04751893 165.59990171 -10.96219225 162.69447605 -10.84228516 159.78808594 C-10.32357134 146.56428142 -11.64022188 137.66566678 -18.36984253 126.24954224 C-23.3419096 117.44645328 -24.0017865 108.22457222 -23.91235352 98.35864258 C-23.89851304 96.23813606 -23.93265508 94.12208848 -23.97070312 92.00195312 C-24.04877018 78.15618841 -20.38405918 65.99999527 -12.3359375 54.5390625 C-11.8409375 54.0440625 -11.8409375 54.0440625 -11.3359375 53.5390625 C-11.22931168 52.12315272 -11.18975311 50.70209861 -11.17822266 49.28222656 C-11.16282944 47.92511566 -11.16282944 47.92511566 -11.14712524 46.54058838 C-11.13982391 45.55524109 -11.13252258 44.5698938 -11.125 43.5546875 C-11.09692428 41.48436719 -11.06825977 39.4140548 -11.0390625 37.34375 C-10.99782567 34.06738565 -10.96095445 30.79116794 -10.93457031 27.51464844 C-10.90694863 24.36101383 -10.86106607 21.20805982 -10.8125 18.0546875 C-10.80924713 17.07743713 -10.80599426 16.10018677 -10.80264282 15.09332275 C-10.65829815 7.1004009 -9.10104507 0.34085749 0 0 Z M37.6640625 21.5390625 C37.0040625 22.5290625 36.3440625 23.5190625 35.6640625 24.5390625 C33.640625 25.56640625 33.640625 25.56640625 31.2890625 26.4765625 C27.62829607 28.00774846 25.29500476 29.50335989 22.6640625 32.5390625 C21.6740625 33.1990625 20.6840625 33.8590625 19.6640625 34.5390625 C19.6640625 35.1990625 19.6640625 35.8590625 19.6640625 36.5390625 C19.34927804 37.87689643 19.01818594 39.21109959 18.6640625 40.5390625 C19.3240625 40.5390625 19.9840625 40.5390625 20.6640625 40.5390625 C20.58027344 41.57546875 20.49648438 42.611875 20.41015625 43.6796875 C20.30695468 45.04945382 20.20410876 46.41924697 20.1015625 47.7890625 C20.04548828 48.47097656 19.98941406 49.15289062 19.93164062 49.85546875 C19.68219996 53.2811206 19.52526505 56.26607427 20.6640625 59.5390625 C22.83280502 59.03302258 24.66373877 58.53922437 26.6640625 57.5390625 C25.39453125 59.03645833 24.125 60.53385417 22.85546875 62.03125 C20.51633419 64.99159734 20.40278187 67.46336737 20.1015625 71.1640625 C20.01777344 72.16695312 19.93398438 73.16984375 19.84765625 74.203125 C19.75677734 75.35941406 19.75677734 75.35941406 19.6640625 76.5390625 C19.00019531 76.61382812 18.33632813 76.68859375 17.65234375 76.765625 C13.0950421 77.4442305 10.26377512 78.06174021 6.6015625 80.9765625 C3.59291867 85.330621 3.76809518 90.42065466 3.6640625 95.5390625 C3.61378906 96.44914062 3.56351563 97.35921875 3.51171875 98.296875 C3.32818502 103.21557895 3.33156434 106.63199569 6.6640625 110.5390625 C10.82028645 114.81403571 13.98981596 114.95946633 19.6640625 115.5390625 C19.75042969 116.62445313 19.83679688 117.70984375 19.92578125 118.828125 C20.06656929 120.2735489 20.20856045 121.71885596 20.3515625 123.1640625 C20.40505859 123.87691406 20.45855469 124.58976562 20.51367188 125.32421875 C21.09950724 130.8769192 22.59897787 133.66924395 26.6640625 137.5390625 C28.78763095 138.57163443 28.78763095 138.57163443 30.9140625 138.7890625 C32.1515625 139.0365625 33.3890625 139.2840625 34.6640625 139.5390625 C34.9940625 140.1990625 35.3240625 140.8590625 35.6640625 141.5390625 C35.1071875 141.7865625 34.5503125 142.0340625 33.9765625 142.2890625 C31.26435123 143.75512265 29.02818885 145.56895721 26.6640625 147.5390625 C25.6740625 147.0440625 25.6740625 147.0440625 24.6640625 146.5390625 C24.0040625 147.8590625 23.3440625 149.1790625 22.6640625 150.5390625 C22.0040625 150.2090625 21.3440625 149.8790625 20.6640625 149.5390625 C18.10136753 150.58015733 16.63795907 151.56516593 14.6640625 153.5390625 C14.0040625 153.2090625 13.3440625 152.8790625 12.6640625 152.5390625 C12.6640625 153.1990625 12.6640625 153.8590625 12.6640625 154.5390625 C6.58205979 154.26875127 2.47753556 153.58675575 -2.3359375 149.5390625 C-4.08914286 147.59580778 -5.70512401 145.58922803 -7.3359375 143.5390625 C-7.6659375 143.5390625 -7.9959375 143.5390625 -8.3359375 143.5390625 C-8.46270423 149.87429441 -8.55027382 156.20919944 -8.6105957 162.54541016 C-8.63574147 164.70080792 -8.66986274 166.85612041 -8.71313477 169.01123047 C-8.77378258 172.10926342 -8.80214662 175.20616931 -8.82421875 178.3046875 C-8.85002518 179.26836243 -8.8758316 180.23203735 -8.90242004 181.22491455 C-8.98377949 186.73304707 -8.98377949 186.73304707 -5.93701172 191.15478516 C-1.75276631 193.38161747 1.20948774 192.87187127 5.6640625 191.5390625 C9.19570769 189.82906458 12.3964187 187.70346748 15.6640625 185.5390625 C17.80504279 184.19795032 19.95112332 182.86495458 22.1015625 181.5390625 C23.18824219 180.86746094 24.27492187 180.19585937 25.39453125 179.50390625 C29.40273813 177.0951511 33.48657733 174.85862472 37.6171875 172.66796875 C39.5949728 171.70071389 39.5949728 171.70071389 40.6640625 170.5390625 C42.18423354 170.4541378 43.70792982 170.43087263 45.23046875 170.43359375 C57.9611224 170.29259649 68.17923 169.09917982 79.6640625 163.5390625 C80.67726563 163.06082031 81.69046875 162.58257812 82.734375 162.08984375 C93.96766848 156.37932547 105.74067263 147.21714342 112.6640625 136.5390625 C112.6640625 135.5490625 112.6640625 134.5590625 112.6640625 133.5390625 C113.3240625 133.5390625 113.9840625 133.5390625 114.6640625 133.5390625 C115.34699068 132.37823534 115.97166417 131.1830163 116.5703125 129.9765625 C120.06109121 124.17901189 125.35135805 121.68629234 131.1640625 118.5390625 C133.32468395 117.32374334 135.48484391 116.10760335 137.64453125 114.890625 C138.6814209 114.31473633 139.71831055 113.73884766 140.78662109 113.14550781 C144.39091808 111.13326666 147.94906732 109.05756436 151.4765625 106.9140625 C152.43175781 106.34429687 153.38695312 105.77453125 154.37109375 105.1875 C156.73020443 103.49151242 158.15560708 102.01234168 159.6640625 99.5390625 C160.21588056 95.83399837 160.09674801 94.1770276 157.97875977 91.05419922 C155.5275141 88.3906898 153.36698959 86.94695899 150.19140625 85.234375 C149.12599609 84.65042969 148.06058594 84.06648438 146.96289062 83.46484375 C145.85365234 82.87058594 144.74441406 82.27632812 143.6015625 81.6640625 C119.08392977 68.37576841 119.08392977 68.37576841 116.0390625 61.2265625 C109.34432699 47.37702673 97.45517233 37.84236312 84.1015625 30.6640625 C83.41771484 30.29466553 82.73386719 29.92526855 82.02929688 29.54467773 C71.93416885 24.34012633 62.31460426 22.98443276 51.0390625 22.3515625 C49.74871094 22.26970703 48.45835938 22.18785156 47.12890625 22.10351562 C43.97444742 21.90490155 40.81974339 21.71700482 37.6640625 21.5390625 Z " fill="#41A7F4" transform="translate(31.3359375,3.4609375)"></path><path d="M0 0 C4.41845267 0.22300766 8.83397787 0.48343931 13.25 0.75 C14.48492187 0.811875 15.71984375 0.87375 16.9921875 0.9375 C35.97503493 2.13641668 52.04723608 10.31566916 66 23 C66.66644531 23.58523437 67.33289063 24.17046875 68.01953125 24.7734375 C73.56712687 29.92218638 77.52102123 36.29380173 80.3203125 43.30859375 C83.71899019 49.23362987 90.86173053 51.93855816 96.6875 55.0625 C99.17414763 56.42191875 101.65575353 57.7903994 104.13671875 59.16015625 C105.0318367 59.65257309 105.0318367 59.65257309 105.94503784 60.15493774 C118.87835545 67.31753317 118.87835545 67.31753317 122 72 C122.44967302 75.44749318 122.40357822 77.33073279 120.59375 80.33203125 C116.93148627 84.09908867 112.70995697 86.30682891 108.125 88.8125 C106.23826214 89.86585119 104.35154346 90.91923673 102.46484375 91.97265625 C101.53913574 92.4845752 100.61342773 92.99649414 99.65966797 93.52392578 C95.98231571 95.5647989 92.33390294 97.65450535 88.6875 99.75 C86.79166667 100.83333333 84.89583333 101.91666667 83 103 C82 100 82 100 82.9375 97.4375 C83.85190158 94.47914196 84.31684938 92.1822065 84.5 89.125 C84.57734375 87.95324219 84.57734375 87.95324219 84.65625 86.7578125 C83.18021876 80.55496692 78.88022175 76.27139176 73.57421875 72.98828125 C71.95515009 72.07861858 70.32595 71.18677174 68.6875 70.3125 C67.88376953 69.86583984 67.08003906 69.41917969 66.25195312 68.95898438 C64.63835107 68.06455814 63.01967664 67.17922002 61.39599609 66.30322266 C59.81072235 65.44096555 58.23515843 64.56058882 56.67041016 63.66162109 C53.2140869 61.67799854 49.8961635 59.87993207 46.12109375 58.5859375 C40.70362167 56.67420397 35.95236943 53.5970767 31.0625 50.625 C29.17906604 49.49105625 27.29495883 48.35822993 25.41015625 47.2265625 C24.50313965 46.6812085 23.59612305 46.13585449 22.66162109 45.57397461 C19.45774883 43.67933468 16.21349011 41.86894734 12.94604492 40.08666992 C11.01126815 39.00629213 9.13499884 37.85186492 7.25 36.6875 C1.92607724 34.04700605 -4.21655624 34.15084358 -10 35 C-12.1757759 36.46473768 -12.1757759 36.46473768 -14 38 C-14.99 38 -15.98 38 -17 38 C-18.31909709 31.5510809 -17.69508823 25.51244208 -17 19 C-17.66 19 -18.32 19 -19 19 C-18.67 17.68 -18.34 16.36 -18 15 C-17.67 15.33 -17.34 15.66 -17 16 C-17.33 14.68 -17.66 13.36 -18 12 C-17.236875 11.566875 -16.47375 11.13375 -15.6875 10.6875 C-13.07582241 9.20749477 -13.07582241 9.20749477 -11.62109375 7.5234375 C-9.67832908 5.69770685 -7.84106457 4.92954878 -5.375 3.9375 C-1.98732008 2.75347873 -1.98732008 2.75347873 0 0 Z " fill="#43B0F7" transform="translate(69,25)"></path><path d="M0 0 C3.83852904 1.79931049 7.50930738 3.88067405 11.19335938 5.9765625 C12.40852957 6.66494 13.62872797 7.34450848 14.85351562 8.015625 C16.66506696 9.01035224 18.45847674 10.03222383 20.25 11.0625 C21.32765625 11.67222656 22.4053125 12.28195313 23.515625 12.91015625 C26 15 26 15 27.171875 17.93359375 C27 21 27 21 25.08984375 23.5546875 C21.41901254 26.45979538 17.62647 28.81584589 13.5625 31.125 C12.82451172 31.55425781 12.08652344 31.98351562 11.32617188 32.42578125 C-1.28431613 39.71184099 -1.28431613 39.71184099 -8 38 C-9.4783226 35.04335481 -9.06032783 32.25770263 -9 29 C-10.60875 29.12375 -10.60875 29.12375 -12.25 29.25 C-16 29 -16 29 -18.4375 27.6875 C-20.98195007 23.31104589 -20.83712385 18.92083238 -20 14 C-17.875 10.8125 -17.875 10.8125 -15 9 C-11.6875 8.6875 -11.6875 8.6875 -9 9 C-9.0825 7.906875 -9.165 6.81375 -9.25 5.6875 C-9 2 -9 2 -7.3125 0 C-4.32725634 -1.29091618 -3.11896112 -0.86117238 0 0 Z " fill="#42ACF2" transform="translate(76,80)"></path><path d="M0 0 C3.30193597 1.26729233 6.40189221 2.67104072 9.5 4.375 C10.44875 4.890625 11.3975 5.40625 12.375 5.9375 C15.29879569 7.56938597 18.14788941 9.30866483 21 11.0625 C21.90298828 11.60600098 22.80597656 12.14950195 23.73632812 12.70947266 C25.54392217 13.79881953 27.34019374 14.9072374 29.12304688 16.03662109 C35.70052255 19.96256736 40.4570117 20.46771466 48 20 C67.62931259 21.32979165 85.22654034 29.10867394 100 42 C100 42.66 100 43.32 100 44 C100.66 44 101.32 44 102 44 C102 44.66 102 45.32 102 46 C102.66 46 103.32 46 104 46 C105.55078125 47.8359375 105.55078125 47.8359375 107.3125 50.375 C107.94671875 51.28765625 108.5809375 52.2003125 109.234375 53.140625 C110.86005099 55.77335692 111.93968174 58.25557555 113.0625 61.125 C116.13530922 67.43698071 121.70325265 69.7284217 127.68212891 72.77783203 C132.4197895 75.27590754 137.01171025 78.03133945 141.625 80.75 C142.585271 81.30534424 143.54554199 81.86068848 144.53491211 82.43286133 C145.89821655 83.2317981 145.89821655 83.2317981 147.2890625 84.046875 C148.10068848 84.51963867 148.91231445 84.99240234 149.74853516 85.47949219 C152.93983423 87.63470913 155.61447168 89.56668613 156.63671875 93.3671875 C156.76869972 99.88501702 156.76869972 99.88501702 154.77734375 102.7734375 C148.59001422 108.30254048 140.5470872 112.23154544 133.23828125 116.04296875 C132.26439453 116.56052734 131.29050781 117.07808594 130.28710938 117.61132812 C128.3028653 118.66272995 126.30785585 119.69405971 124.30273438 120.70507812 C116.65678459 124.83541512 113.18479026 129.50643842 109 137 C96.26588582 154.44019985 78.65087693 167.07705973 57.05078125 170.703125 C54 171 54 171 50.16796875 170.984375 C37.52971206 170.93984274 29.52417326 175.3522342 19 182 C16.4814191 183.56186483 13.95633668 185.10979201 11.41552734 186.63525391 C9.80833533 187.60146924 8.21261319 188.58712877 6.63134766 189.59521484 C1.43704037 192.74138344 -2.91315438 194.03488623 -9 193 C-12.29082413 191.1795441 -13.60426079 189.89578847 -15.11889648 186.46728516 C-16.26538052 181.95568465 -16.22968059 177.78209297 -16.16015625 173.1484375 C-16.15495468 172.21198395 -16.14975311 171.2755304 -16.14439392 170.31069946 C-16.12665028 167.33197172 -16.09548315 164.35359488 -16.0625 161.375 C-16.03484571 158.38929889 -16.01014328 155.40364737 -15.99131775 152.4178772 C-15.979099 150.56364528 -15.96153312 148.70943904 -15.93800354 146.85531616 C-15.93147263 146.0140921 -15.92494171 145.17286804 -15.91821289 144.30615234 C-15.90995987 143.56924164 -15.90170685 142.83233093 -15.89320374 142.0730896 C-16.00351151 139.93183591 -16.41179462 138.05724074 -17 136 C-16.01 136.66 -15.02 137.32 -14 138 C-13.62145996 139.99116516 -13.62145996 139.99116516 -13.61523438 142.4621582 C-13.60512329 143.38684402 -13.59501221 144.31152985 -13.58459473 145.26423645 C-13.58761597 146.26629623 -13.59063721 147.26835602 -13.59375 148.30078125 C-13.57749573 149.84357002 -13.57749573 149.84357002 -13.56091309 151.41752625 C-13.52653876 154.71591436 -13.51103914 158.01395602 -13.5 161.3125 C-13.4854398 165.64226111 -13.45173749 169.97124693 -13.40625 174.30078125 C-13.40927124 175.29676834 -13.41229248 176.29275543 -13.41540527 177.31892395 C-13.36642095 184.15875565 -13.36642095 184.15875565 -10 190 C-6.42426305 191.78786848 -2.78299606 190.92834259 1 190 C4.54128219 188.3114416 7.73319792 186.16384744 11 184 C13.14098029 182.65888782 15.28706082 181.32589208 17.4375 180 C18.52417969 179.32839844 19.61085937 178.65679687 20.73046875 177.96484375 C24.73867563 175.5560886 28.82251483 173.31956222 32.953125 171.12890625 C34.9309103 170.16165139 34.9309103 170.16165139 36 169 C37.52017104 168.9150753 39.04386732 168.89181013 40.56640625 168.89453125 C53.2970599 168.75353399 63.5151675 167.56011732 75 162 C76.01320313 161.52175781 77.02640625 161.04351562 78.0703125 160.55078125 C90.0223727 154.47487321 101.92526803 145.14946393 108 133 C108.66 133 109.32 133 110 133 C110.20625 132.113125 110.4125 131.22625 110.625 130.3125 C113.77122072 122.73296828 122.33675514 119.38028871 129.1875 115.625 C143.03501137 108.99638441 143.03501137 108.99638441 154 99 C154.5838196 96.0850745 154.5838196 96.0850745 154 93 C150.63908907 89.12196657 147.09690603 86.66718943 142.6328125 84.1875 C142.03499969 83.85129639 141.43718689 83.51509277 140.82125854 83.16870117 C138.92678572 82.104587 137.02645423 81.05158013 135.125 80 C114.06710088 68.28859742 114.06710088 68.28859742 110.625 60.8125 C103.75747624 47.26099431 92.67249761 38.28983547 79.5 31.1875 C78.81228516 30.81423584 78.12457031 30.44097168 77.41601562 30.05639648 C69.07328897 25.72482293 61.64341956 23.81824225 52.24560547 23.83862305 C35.33390601 23.69983245 24.33225549 17.10091994 10.77246094 7.87646484 C8.29278948 6.1981666 5.78266021 4.6089811 3.2265625 3.05078125 C2.16179688 2.37402344 1.09703125 1.69726562 0 1 C0 0.67 0 0.34 0 0 Z " fill="#111C24" transform="translate(36,4)"></path><path d="M0 0 C0.99 0.33 1.98 0.66 3 1 C1.6078125 1.8353125 1.6078125 1.8353125 0.1875 2.6875 C-3.16292369 5.11819954 -4.4654797 6.20408136 -6 10 C-6.38486778 12.89271591 -6.62547092 15.75838686 -6.7890625 18.671875 C-7 21 -7 21 -8 22 C-9.60120333 22.26832551 -11.20609641 22.51480182 -12.8125 22.75 C-16.14729633 23.42172326 -17.81126762 23.85729991 -20.5625 25.9375 C-22.7243388 30.54315658 -22.8382031 34.96407143 -23 40 C-23.0515625 40.91136719 -23.103125 41.82273438 -23.15625 42.76171875 C-23.33242951 47.6727227 -23.32125882 51.08565925 -20 55 C-16.49403193 58.63581874 -12.81573022 58.52632162 -8 59 C-6.12175109 60.87824891 -6.60897603 64.03935276 -6.4375 66.5625 C-6.31181641 68.35880859 -6.31181641 68.35880859 -6.18359375 70.19140625 C-6.12300781 71.11824219 -6.06242187 72.04507813 -6 73 C-8.49505962 70.50494038 -8.35948376 69.32671112 -8.625 65.875 C-8.69976562 64.96492188 -8.77453125 64.05484375 -8.8515625 63.1171875 C-8.92503906 62.06917969 -8.92503906 62.06917969 -9 61 C-10.216875 61.0825 -11.43375 61.165 -12.6875 61.25 C-15.87689165 61.23873006 -16.94599606 61.03120228 -19.8125 59.375 C-25.45185853 53.25226788 -25.49245279 47.37567966 -25.4375 39.4375 C-25.45748047 38.40947266 -25.47746094 37.38144531 -25.49804688 36.32226562 C-25.4931901 28.82826618 -25.4931901 28.82826618 -23.16015625 24.91015625 C-19.74192375 21.88752389 -17.82783448 20.74412074 -13.3125 20.875 C-12.10013672 20.90207031 -12.10013672 20.90207031 -10.86328125 20.9296875 C-10.24839844 20.95289062 -9.63351563 20.97609375 -9 21 C-9.12181641 19.83984375 -9.12181641 19.83984375 -9.24609375 18.65625 C-9.60519613 12.73472507 -9.66357508 8.90293006 -5.625 4.3125 C-3.77823337 2.47713316 -2.3257172 1.1628586 0 0 Z " fill="#09121C" transform="translate(59,59)"></path><path d="M0 0 C4.39458734 0.95202946 7.82989414 2.94487661 11.6875 5.1875 C12.37650391 5.56197266 13.06550781 5.93644531 13.77539062 6.32226562 C17.13523878 8.28135113 18.7145083 9.32799645 20.26953125 12.98828125 C20 16 20 16 18.08984375 18.5546875 C14.41901254 21.45979538 10.62647 23.81584589 6.5625 26.125 C5.82451172 26.55425781 5.08652344 26.98351562 4.32617188 27.42578125 C-8.28431613 34.71184099 -8.28431613 34.71184099 -15 33 C-16.4783226 30.04335481 -16.06032783 27.25770263 -16 24 C-17.60875 24.12375 -17.60875 24.12375 -19.25 24.25 C-23 24 -23 24 -25.4375 22.6875 C-27.94613556 18.37264684 -27.30250762 13.87373394 -27 9 C-26.67 9 -26.34 9 -26 9 C-25.93941406 9.68707031 -25.87882812 10.37414062 -25.81640625 11.08203125 C-25.73261719 11.98308594 -25.64882813 12.88414063 -25.5625 13.8125 C-25.48128906 14.70582031 -25.40007813 15.59914063 -25.31640625 16.51953125 C-25.06510233 19.12743559 -25.06510233 19.12743559 -24 22 C-21.03 22.33 -18.06 22.66 -15 23 C-14.34 25.64 -13.68 28.28 -13 31 C-8.13691667 32.21577083 -7.39462086 31.49145527 -3.17578125 29.0703125 C-2.06525391 28.43996094 -0.95472656 27.80960938 0.18945312 27.16015625 C1.35553869 26.48189106 2.52155348 25.80350419 3.6875 25.125 C4.8646122 24.45333554 6.04234055 23.78274964 7.22070312 23.11328125 C12.39876899 20.45814081 12.39876899 20.45814081 17 17 C17.75342517 14.67484501 17.75342517 14.67484501 17 12 C14.57797008 9.91293166 11.81124984 8.50025648 9 7 C7.33326475 6.06262193 5.66659613 5.1251254 4 4.1875 C2.66785254 3.45616905 1.33495612 2.72619141 0 2 C0 1.34 0 0.68 0 0 Z " fill="#0B181D" transform="translate(83,85)"></path><path d="M0 0 C0.33 0 0.66 0 1 0 C0.9278125 1.10214844 0.855625 2.20429687 0.78125 3.33984375 C0.47439749 8.22450129 0.22617486 13.11099667 0 18 C-0.03689941 18.74685059 -0.07379883 19.49370117 -0.11181641 20.26318359 C-0.72305911 34.0960762 1.01062813 46.92719925 8.14453125 59.08203125 C9 61 9 61 8 64 C7.07225847 62.25584593 6.1585894 60.50420725 5.25 58.75 C4.73953125 57.77546875 4.2290625 56.8009375 3.703125 55.796875 C-1.01630879 45.64143675 -2.60348484 36.48704419 -2.41162109 25.38012695 C-2.37475573 23.17287494 -2.37060563 20.96729597 -2.37109375 18.75976562 C-2.32549541 12.13811634 -2.03923526 6.31654392 0 0 Z " fill="#1A242F" transform="translate(10,76)"></path><path d="M0 0 C1.051875 1.1446875 1.051875 1.1446875 2.125 2.3125 C6.16906603 6.09282259 9.5528207 8.15695805 15.125 8.25 C17.96309816 8.06689689 20.32724832 7.89091723 23 7 C21.125 9.0625 21.125 9.0625 18 11 C12.99671278 11.23440279 8.33281725 10.59599498 4 8 C0 3.66666667 0 3.66666667 0 0 Z " fill="#0D1829" transform="translate(53,132)"></path><path d="M0 0 C0.66 0.33 1.32 0.66 2 1 C1.67 3.97 1.34 6.94 1 10 C-1.1346875 10.185625 -1.1346875 10.185625 -3.3125 10.375 C-6.80573798 10.67875982 -7.96474514 10.97649676 -11 13 C-9.25 9.125 -9.25 9.125 -7 8 C-5.00039988 7.960008 -2.99952758 7.95653201 -1 8 C-1.020625 6.865625 -1.04125 5.73125 -1.0625 4.5625 C-1 1 -1 1 0 0 Z " fill="#111F37" transform="translate(68,81)"></path><path d="M0 0 C0.5775 0.763125 1.155 1.52625 1.75 2.3125 C3.83357198 5.00891579 3.83357198 5.00891579 6.25 6.6875 C6.8275 7.120625 7.405 7.55375 8 8 C8 8.66 8 9.32 8 10 C10.31 10 12.62 10 15 10 C15 10.33 15 10.66 15 11 C7.776781 11.48970976 7.776781 11.48970976 4.125 9.1875 C0.94624752 5.9152548 0 4.67135357 0 0 Z " fill="#102642" transform="translate(35,109)"></path><path d="M0 0 C4.19360449 0.67097672 7.40334352 2.8558394 11 5 C11 5.66 11 6.32 11 7 C7.2089881 5.55049545 3.6125362 3.84827434 0 2 C0 1.34 0 0.68 0 0 Z " fill="#122736" transform="translate(83,85)"></path><path d="M0 0 C3.89081843 1.29693948 6.48181674 2.70699112 9 6 C8.75 8.25 8.75 8.25 8 10 C7.608125 9.236875 7.21625 8.47375 6.8125 7.6875 C4.82673 4.74308242 3.03986619 3.72532946 0 2 C0 1.34 0 0.68 0 0 Z " fill="#0B171C" transform="translate(94,91)"></path><path d="M0 0 C0.66 0.33 1.32 0.66 2 1 C-1.465 3.97 -1.465 3.97 -5 7 C-5 6.01 -5 5.02 -5 4 C-2.5 1.8125 -2.5 1.8125 0 0 Z " fill="#122B3D" transform="translate(41,80)"></path></svg> 