<svg xmlns="http://www.w3.org/2000/svg" width="589" height="124" viewBox="0 0 589 124" fill="none"><path d="M0.546875 5.1055C0.546875 2.29245 2.86188 0.00683594 5.71111 0.00683594H45.1018C47.951 0.00683594 50.266 2.29245 50.266 5.1055C50.266 7.91856 47.951 10.2042 45.1018 10.2042H5.71111C2.86188 10.2042 0.546875 7.91856 0.546875 5.1055Z" fill="white"></path><path d="M80.7167 0.00683594H80.3605C77.6181 0.00683594 75.3744 2.22212 75.3744 4.92969V25.2189H37.3727C34.5235 25.2189 32.2085 27.5045 32.2085 30.3175C32.2085 33.1306 34.5235 35.4162 37.3727 35.4162H75.3388V75.7836H44.2109C41.3617 75.7836 39.0467 78.0692 39.0467 80.8822C39.0467 83.6953 41.3617 85.9809 44.2109 85.9809H80.3249H80.503H80.6811C83.4235 85.9809 85.6672 83.7656 85.6672 81.058V30.3175V4.92969C85.7028 2.22212 83.4591 0.00683594 80.7167 0.00683594Z" fill="white"></path><path d="M57.5643 55.3183C57.5643 52.5053 55.2493 50.2197 52.4 50.2197H10.9081V25.7812C10.9081 23.1088 8.6999 20.9287 5.99313 20.9287H5.49452C2.78775 20.9287 0.57959 23.1088 0.57959 25.7812V81.1281C0.57959 83.8005 2.78775 85.9807 5.49452 85.9807H5.99313C8.6999 85.9807 10.9081 83.8005 10.9081 81.1281V60.4522H52.4C55.2493 60.417 57.5643 58.1314 57.5643 55.3183Z" fill="white"></path><path d="M20.2061 80.8819C20.2061 78.0688 22.5211 75.7832 25.3703 75.7832C28.2195 75.7832 30.5345 78.0688 30.5345 80.8819C30.5345 83.6949 28.2195 85.9805 25.3703 85.9805C22.5211 85.9805 20.2061 83.6949 20.2061 80.8819Z" fill="#5248F9"></path><path d="M57.5688 5.1055C57.5688 2.29245 59.8838 0.00683594 62.7331 0.00683594C65.5823 0.00683594 67.8973 2.29245 67.8973 5.1055C67.8973 7.91856 65.5823 10.2042 62.7331 10.2042C59.8838 10.2042 57.5688 7.91856 57.5688 5.1055Z" fill="#128CDF"></path><path d="M127.413 63.3696C124.457 62.0334 122.142 60.2401 120.397 57.9897C118.687 55.7392 117.725 53.2074 117.583 50.4647H129.158C129.372 52.1877 130.226 53.6294 131.722 54.7546C133.218 55.8799 135.106 56.4425 137.35 56.4425C139.522 56.4425 141.232 56.0205 142.478 55.1414C143.725 54.2623 144.33 53.1723 144.33 51.8361C144.33 50.3944 143.582 49.2692 142.086 48.5659C140.591 47.8275 138.204 47.0539 134.928 46.1748C131.544 45.366 128.766 44.5221 126.594 43.6782C124.421 42.7991 122.569 41.4981 121.038 39.7048C119.471 37.9115 118.687 35.5204 118.687 32.4963C118.687 29.9997 119.399 27.7493 120.86 25.7098C122.32 23.6703 124.386 22.0528 127.092 20.8573C129.799 19.6617 132.969 19.064 136.637 19.064C142.051 19.064 146.36 20.4002 149.601 23.0726C152.842 25.745 154.587 29.3316 154.944 33.8677H143.974C143.796 32.0743 143.048 30.6678 141.73 29.6129C140.377 28.558 138.596 28.0306 136.352 28.0306C134.287 28.0306 132.684 28.4174 131.544 29.1558C130.44 29.9294 129.87 30.9491 129.87 32.3205C129.87 33.8325 130.618 34.9929 132.15 35.7665C133.681 36.5401 136.067 37.3488 139.273 38.1576C142.549 38.9663 145.256 39.8103 147.393 40.6542C149.53 41.5333 151.382 42.8695 152.914 44.6628C154.481 46.4561 155.264 48.8472 155.335 51.8361C155.335 54.4382 154.623 56.7589 153.163 58.7984C151.703 60.8379 149.637 62.4554 146.93 63.6158C144.223 64.7762 141.054 65.3739 137.456 65.3739C133.717 65.3388 130.369 64.6707 127.413 63.3696Z" fill="white"></path><path d="M204.982 45.6122H171.789C172.074 48.8472 173.213 51.379 175.244 53.2074C177.274 55.0359 179.767 55.9502 182.687 55.9502C186.961 55.9502 189.988 54.1569 191.769 50.535H204.163C202.845 54.8601 200.352 58.4116 196.613 61.1895C192.909 63.9674 188.35 65.3739 182.936 65.3739C178.556 65.3739 174.638 64.4245 171.183 62.4905C167.729 60.5917 165.022 57.849 163.063 54.3678C161.14 50.8515 160.143 46.8077 160.143 42.2365C160.143 37.595 161.104 33.516 163.027 29.9997C164.951 26.4834 167.622 23.811 171.077 21.9122C174.531 20.0134 178.485 19.064 182.972 19.064C187.282 19.064 191.164 19.9782 194.583 21.8067C198.002 23.6352 200.637 26.2373 202.525 29.6129C204.413 32.9886 205.339 36.8566 205.339 41.2168C205.303 42.8343 205.196 44.3112 204.982 45.6122ZM193.407 37.9818C193.336 35.0632 192.303 32.7424 190.202 30.9843C188.136 29.2261 185.572 28.347 182.58 28.347C179.731 28.347 177.345 29.191 175.422 30.914C173.498 32.6018 172.287 34.9577 171.86 37.9818H193.407Z" fill="white"></path><path d="M211.894 30.176C213.782 26.6949 216.346 23.9873 219.551 22.0533C222.792 20.1193 226.318 19.1348 230.2 19.1348C233.441 19.1348 236.291 19.7325 238.784 20.9633C241.277 22.194 243.271 23.7411 244.803 25.6048V19.7677H256.342V85.9801H244.803V58.4473C243.271 60.3812 241.206 61.9987 238.641 63.2998C236.077 64.6008 233.192 65.2338 229.951 65.2338C226.14 65.2338 222.614 64.2492 219.409 62.28C216.204 60.3109 213.675 57.5682 211.823 54.0519C209.971 50.5355 209.045 46.5621 209.045 42.0612C209.081 37.6306 210.007 33.6572 211.894 30.176ZM243.093 35.0637C241.954 33.0594 240.458 31.5474 238.641 30.5276C236.825 29.5079 234.866 28.9805 232.765 28.9805C230.735 28.9805 228.811 29.5079 226.995 30.5276C225.179 31.5474 223.683 33.0594 222.543 35.0285C221.403 36.9977 220.834 39.3536 220.834 42.0964C220.834 44.8391 221.403 47.2302 222.543 49.2696C223.683 51.3091 225.179 52.8211 226.995 53.8409C228.811 54.8606 230.735 55.388 232.765 55.388C234.83 55.388 236.789 54.8606 238.641 53.8409C240.458 52.8211 241.954 51.3091 243.093 49.3048C244.233 47.3005 244.803 44.9446 244.803 42.1667C244.803 39.4591 244.233 37.068 243.093 35.0637Z" fill="white"></path><path d="M308.803 19.7671V64.6002H297.264V58.9389C295.803 60.8729 293.845 62.4201 291.494 63.5101C289.108 64.6002 286.543 65.1628 283.765 65.1628C280.204 65.1628 277.07 64.4244 274.327 62.9475C271.585 61.4707 269.448 59.2906 267.881 56.4072C266.314 53.5238 265.53 50.0778 265.53 46.1043V19.8022H276.998V44.4868C276.998 48.0383 277.889 50.7811 279.705 52.715C281.522 54.6138 283.979 55.5984 287.078 55.5984C290.247 55.5984 292.74 54.649 294.521 52.715C296.338 50.8162 297.228 48.0735 297.228 44.4868V19.8022H308.803V19.7671Z" fill="white"></path><path d="M360.373 45.6122H327.18C327.465 48.8472 328.605 51.379 330.635 53.2074C332.665 55.0359 335.158 55.9502 338.078 55.9502C342.352 55.9502 345.379 54.1569 347.16 50.535H359.554C358.237 54.8601 355.743 58.4116 352.004 61.1895C348.3 63.9674 343.741 65.3739 338.328 65.3739C333.947 65.3739 330.029 64.4245 326.574 62.4905C323.12 60.5917 320.413 57.849 318.454 54.3678C316.531 50.8515 315.534 46.8077 315.534 42.2365C315.534 37.595 316.495 33.516 318.419 29.9997C320.342 26.4834 323.013 23.811 326.468 21.9122C329.922 20.0134 333.876 19.064 338.363 19.064C342.673 19.064 346.555 19.9782 349.974 21.8067C353.393 23.6352 356.028 26.2373 357.916 29.6129C359.804 32.9886 360.73 36.8566 360.73 41.2168C360.694 42.8343 360.587 44.3112 360.373 45.6122ZM348.834 37.9818C348.763 35.0632 347.73 32.7424 345.629 30.9843C343.563 29.2261 340.999 28.347 338.007 28.347C335.158 28.347 332.772 29.191 330.848 30.914C328.925 32.6018 327.714 34.9577 327.287 37.9818H348.834Z" fill="white"></path><path d="M405.712 24.1983C409.06 27.5739 410.698 32.2858 410.698 38.3339V64.636H399.23V39.8811C399.23 36.3296 398.339 33.5868 396.523 31.6529C394.707 29.7541 392.249 28.7695 389.151 28.7695C385.981 28.7695 383.488 29.7189 381.636 31.6529C379.819 33.5517 378.893 36.2944 378.893 39.8811V64.636H367.425V19.7677H378.893V25.3587C380.425 23.4247 382.384 21.8775 384.77 20.7874C387.156 19.6974 389.756 19.1348 392.605 19.1348C397.983 19.1348 402.364 20.8226 405.712 24.1983Z" fill="white"></path><path d="M433.314 29.0856V50.7813C433.314 52.2933 433.67 53.3834 434.418 54.0515C435.166 54.7196 436.413 55.0712 438.158 55.0712H443.5V64.6356H436.27C426.583 64.6356 421.775 59.9941 421.775 50.711V29.0856H416.361V19.7673H421.775V8.69092H433.314V19.7673H443.465V29.0856H433.314Z" fill="white"></path><path d="M493.005 19.7671V64.6002H481.43V58.9389C479.97 60.8729 478.011 62.4201 475.66 63.5101C473.274 64.6002 470.71 65.1628 467.896 65.1628C464.335 65.1628 461.201 64.4244 458.458 62.9475C455.716 61.4707 453.579 59.2906 452.012 56.4072C450.445 53.5238 449.661 50.0778 449.661 46.1043V19.8022H461.129V44.4868C461.129 48.0383 462.02 50.7811 463.836 52.715C465.652 54.6138 468.11 55.5984 471.208 55.5984C474.378 55.5984 476.871 54.649 478.652 52.715C480.468 50.8162 481.359 48.0735 481.359 44.4868V19.8022H493.005V19.7671Z" fill="white"></path><path d="M572.532 24.1973C575.951 27.573 577.66 32.2848 577.66 38.3329V64.635H566.192V39.8801C566.192 36.3638 565.302 33.6914 563.485 31.8277C561.669 29.9641 559.212 29.0498 556.113 29.0498C553.015 29.0498 550.521 29.9641 548.705 31.8277C546.889 33.6914 545.963 36.3638 545.963 39.8801V64.635H534.459V39.8801C534.459 36.3638 533.569 33.6914 531.752 31.8277C529.936 29.9641 527.478 29.0498 524.38 29.0498C521.21 29.0498 518.717 29.9641 516.865 31.8277C515.048 33.6914 514.122 36.3638 514.122 39.8801V64.635H502.654V19.7667H514.122V25.1819C515.583 23.2831 517.506 21.8062 519.821 20.7161C522.136 19.6261 524.7 19.0986 527.478 19.0986C531.04 19.0986 534.21 19.8371 536.988 21.3139C539.766 22.7908 541.938 24.9006 543.47 27.6785C544.93 25.0764 547.102 23.0018 549.916 21.4546C552.73 19.9074 555.793 19.0986 559.069 19.0986C564.625 19.1338 569.113 20.8216 572.532 24.1973Z" fill="white"></path><path d="M281.824 85.8182V91.2727H266.057V85.8182H281.824ZM269.636 79.5455H276.898V103.955C276.898 104.625 277 105.148 277.205 105.523C277.409 105.886 277.693 106.142 278.057 106.29C278.432 106.437 278.864 106.511 279.352 106.511C279.693 106.511 280.034 106.483 280.375 106.426C280.716 106.358 280.977 106.307 281.159 106.273L282.301 111.676C281.938 111.79 281.426 111.92 280.767 112.068C280.108 112.227 279.307 112.324 278.364 112.358C276.614 112.426 275.08 112.193 273.761 111.659C272.455 111.125 271.438 110.295 270.71 109.17C269.983 108.045 269.625 106.625 269.636 104.909V79.5455ZM289.434 112V85.8182H296.474V90.3864H296.746C297.224 88.7614 298.025 87.5341 299.15 86.7045C300.275 85.8636 301.57 85.4432 303.036 85.4432C303.4 85.4432 303.792 85.4659 304.212 85.5114C304.633 85.5568 305.002 85.6193 305.32 85.6989V92.142C304.979 92.0398 304.508 91.9489 303.906 91.8693C303.303 91.7898 302.752 91.75 302.252 91.75C301.184 91.75 300.229 91.983 299.389 92.4489C298.559 92.9034 297.9 93.5398 297.411 94.358C296.934 95.1761 296.695 96.1193 296.695 97.1875V112H289.434ZM328.744 100.852V85.8182H336.006V112H329.034V107.244H328.761C328.171 108.778 327.188 110.011 325.813 110.943C324.449 111.875 322.784 112.341 320.818 112.341C319.068 112.341 317.528 111.943 316.199 111.148C314.869 110.352 313.83 109.222 313.08 107.756C312.341 106.29 311.966 104.534 311.955 102.489V85.8182H319.216V101.193C319.227 102.739 319.642 103.96 320.46 104.858C321.278 105.756 322.375 106.205 323.75 106.205C324.625 106.205 325.443 106.006 326.205 105.608C326.966 105.199 327.58 104.597 328.046 103.801C328.523 103.006 328.756 102.023 328.744 100.852ZM366.478 93.2841L359.83 93.6932C359.717 93.125 359.472 92.6136 359.097 92.1591C358.722 91.6932 358.228 91.3239 357.614 91.0511C357.012 90.767 356.291 90.625 355.45 90.625C354.325 90.625 353.376 90.8636 352.603 91.3409C351.83 91.8068 351.444 92.4318 351.444 93.2159C351.444 93.8409 351.694 94.3693 352.194 94.8011C352.694 95.233 353.552 95.5795 354.768 95.8409L359.506 96.7955C362.052 97.3182 363.95 98.1591 365.2 99.3182C366.45 100.477 367.075 102 367.075 103.886C367.075 105.602 366.569 107.108 365.558 108.403C364.558 109.699 363.183 110.71 361.433 111.438C359.694 112.153 357.688 112.511 355.416 112.511C351.95 112.511 349.188 111.79 347.131 110.347C345.086 108.892 343.887 106.915 343.535 104.415L350.677 104.04C350.893 105.097 351.416 105.903 352.245 106.46C353.075 107.006 354.137 107.278 355.433 107.278C356.705 107.278 357.728 107.034 358.501 106.545C359.285 106.045 359.683 105.403 359.694 104.619C359.683 103.96 359.404 103.42 358.859 103C358.313 102.568 357.472 102.239 356.336 102.011L351.802 101.108C349.245 100.597 347.342 99.7102 346.092 98.4489C344.853 97.1875 344.234 95.5795 344.234 93.625C344.234 91.9432 344.688 90.4943 345.597 89.2784C346.518 88.0625 347.808 87.125 349.467 86.4659C351.137 85.8068 353.092 85.4773 355.33 85.4773C358.637 85.4773 361.239 86.1761 363.137 87.5739C365.046 88.9716 366.16 90.875 366.478 93.2841ZM388.453 85.8182V91.2727H372.686V85.8182H388.453ZM376.266 79.5455H383.527V103.955C383.527 104.625 383.629 105.148 383.834 105.523C384.038 105.886 384.323 106.142 384.686 106.29C385.061 106.437 385.493 106.511 385.982 106.511C386.323 106.511 386.663 106.483 387.004 106.426C387.345 106.358 387.607 106.307 387.788 106.273L388.931 111.676C388.567 111.79 388.056 111.92 387.396 112.068C386.737 112.227 385.936 112.324 384.993 112.358C383.243 112.426 381.709 112.193 380.391 111.659C379.084 111.125 378.067 110.295 377.34 109.17C376.612 108.045 376.254 106.625 376.266 104.909V79.5455ZM410.053 112V85.8182H417.314V112H410.053ZM413.7 82.4432C412.621 82.4432 411.695 82.0852 410.922 81.3693C410.161 80.642 409.78 79.7727 409.78 78.7614C409.78 77.7614 410.161 76.9034 410.922 76.1875C411.695 75.4602 412.621 75.0966 413.7 75.0966C414.78 75.0966 415.7 75.4602 416.462 76.1875C417.235 76.9034 417.621 77.7614 417.621 78.7614C417.621 79.7727 417.235 80.642 416.462 81.3693C415.7 82.0852 414.78 82.4432 413.7 82.4432ZM433.272 96.8636V112H426.011V85.8182H432.931V90.4375H433.238C433.818 88.9148 434.789 87.7102 436.153 86.8239C437.517 85.9261 439.17 85.4773 441.113 85.4773C442.931 85.4773 444.517 85.875 445.869 86.6705C447.221 87.4659 448.272 88.6023 449.022 90.0795C449.772 91.5455 450.147 93.2955 450.147 95.3295V112H442.886V96.625C442.897 95.0227 442.488 93.7727 441.659 92.875C440.829 91.9659 439.687 91.5114 438.232 91.5114C437.255 91.5114 436.392 91.7216 435.642 92.142C434.903 92.5625 434.323 93.1761 433.903 93.983C433.494 94.7784 433.284 95.7386 433.272 96.8636ZM482.387 112.426C480.399 112.426 478.598 111.915 476.984 110.892C475.382 109.858 474.109 108.341 473.166 106.341C472.234 104.33 471.768 101.864 471.768 98.9432C471.768 95.9432 472.251 93.4489 473.217 91.4602C474.183 89.4602 475.467 87.9659 477.069 86.9773C478.683 85.9773 480.45 85.4773 482.37 85.4773C483.836 85.4773 485.058 85.7273 486.035 86.2273C487.024 86.7159 487.819 87.3295 488.421 88.0682C489.035 88.7955 489.501 89.5114 489.819 90.2159H490.041V77.0909H497.285V112H490.126V107.807H489.819C489.478 108.534 488.995 109.256 488.37 109.972C487.757 110.676 486.956 111.261 485.967 111.727C484.99 112.193 483.796 112.426 482.387 112.426ZM484.688 106.648C485.859 106.648 486.848 106.33 487.654 105.693C488.473 105.045 489.098 104.142 489.529 102.983C489.973 101.824 490.194 100.466 490.194 98.9091C490.194 97.3523 489.978 96 489.546 94.8523C489.115 93.7045 488.49 92.8182 487.671 92.1932C486.853 91.5682 485.859 91.2557 484.688 91.2557C483.495 91.2557 482.49 91.5795 481.671 92.2273C480.853 92.875 480.234 93.7727 479.813 94.9205C479.393 96.0682 479.183 97.3977 479.183 98.9091C479.183 100.432 479.393 101.778 479.813 102.949C480.245 104.108 480.865 105.017 481.671 105.676C482.49 106.324 483.495 106.648 484.688 106.648ZM513.601 112.494C511.931 112.494 510.442 112.205 509.135 111.625C507.828 111.034 506.794 110.165 506.033 109.017C505.283 107.858 504.908 106.415 504.908 104.688C504.908 103.233 505.175 102.011 505.709 101.023C506.243 100.034 506.97 99.2386 507.891 98.6364C508.811 98.0341 509.857 97.5795 511.027 97.2727C512.209 96.9659 513.448 96.75 514.743 96.625C516.266 96.4659 517.493 96.3182 518.425 96.1818C519.357 96.0341 520.033 95.8182 520.453 95.5341C520.874 95.25 521.084 94.8295 521.084 94.2727V94.1705C521.084 93.0909 520.743 92.2557 520.061 91.6648C519.391 91.0739 518.436 90.7784 517.198 90.7784C515.891 90.7784 514.851 91.0682 514.078 91.6477C513.306 92.2159 512.794 92.9318 512.544 93.7955L505.828 93.25C506.169 91.6591 506.84 90.2841 507.84 89.125C508.84 87.9545 510.13 87.0568 511.709 86.4318C513.3 85.7955 515.141 85.4773 517.232 85.4773C518.686 85.4773 520.078 85.6477 521.408 85.9886C522.749 86.3295 523.936 86.858 524.97 87.5739C526.016 88.2898 526.84 89.2102 527.442 90.3352C528.044 91.4489 528.345 92.7841 528.345 94.3409V112H521.459V108.369H521.255C520.834 109.188 520.272 109.909 519.567 110.534C518.863 111.148 518.016 111.631 517.027 111.983C516.039 112.324 514.897 112.494 513.601 112.494ZM515.681 107.483C516.749 107.483 517.692 107.273 518.51 106.852C519.328 106.42 519.97 105.841 520.436 105.114C520.902 104.386 521.135 103.562 521.135 102.642V99.8636C520.908 100.011 520.595 100.148 520.198 100.273C519.811 100.386 519.374 100.494 518.885 100.597C518.397 100.687 517.908 100.773 517.419 100.852C516.931 100.92 516.488 100.983 516.09 101.04C515.238 101.165 514.493 101.364 513.857 101.636C513.22 101.909 512.726 102.278 512.374 102.744C512.022 103.199 511.845 103.767 511.845 104.449C511.845 105.438 512.203 106.193 512.919 106.716C513.647 107.227 514.567 107.483 515.681 107.483ZM550.785 85.8182V91.2727H535.018V85.8182H550.785ZM538.598 79.5455H545.859V103.955C545.859 104.625 545.961 105.148 546.166 105.523C546.37 105.886 546.654 106.142 547.018 106.29C547.393 106.437 547.825 106.511 548.314 106.511C548.654 106.511 548.995 106.483 549.336 106.426C549.677 106.358 549.939 106.307 550.12 106.273L551.262 111.676C550.899 111.79 550.387 111.92 549.728 112.068C549.069 112.227 548.268 112.324 547.325 112.358C545.575 112.426 544.041 112.193 542.723 111.659C541.416 111.125 540.399 110.295 539.671 109.17C538.944 108.045 538.586 106.625 538.598 104.909V79.5455ZM565.861 112.494C564.191 112.494 562.702 112.205 561.395 111.625C560.088 111.034 559.054 110.165 558.293 109.017C557.543 107.858 557.168 106.415 557.168 104.688C557.168 103.233 557.435 102.011 557.969 101.023C558.503 100.034 559.23 99.2386 560.151 98.6364C561.071 98.0341 562.117 97.5795 563.287 97.2727C564.469 96.9659 565.708 96.75 567.003 96.625C568.526 96.4659 569.753 96.3182 570.685 96.1818C571.617 96.0341 572.293 95.8182 572.713 95.5341C573.134 95.25 573.344 94.8295 573.344 94.2727V94.1705C573.344 93.0909 573.003 92.2557 572.321 91.6648C571.651 91.0739 570.696 90.7784 569.458 90.7784C568.151 90.7784 567.111 91.0682 566.338 91.6477C565.566 92.2159 565.054 92.9318 564.804 93.7955L558.088 93.25C558.429 91.6591 559.1 90.2841 560.1 89.125C561.1 87.9545 562.39 87.0568 563.969 86.4318C565.56 85.7955 567.401 85.4773 569.492 85.4773C570.946 85.4773 572.338 85.6477 573.668 85.9886C575.009 86.3295 576.196 86.858 577.23 87.5739C578.276 88.2898 579.1 89.2102 579.702 90.3352C580.304 91.4489 580.605 92.7841 580.605 94.3409V112H573.719V108.369H573.515C573.094 109.188 572.532 109.909 571.827 110.534C571.122 111.148 570.276 111.631 569.287 111.983C568.299 112.324 567.157 112.494 565.861 112.494ZM567.941 107.483C569.009 107.483 569.952 107.273 570.77 106.852C571.588 106.42 572.23 105.841 572.696 105.114C573.162 104.386 573.395 103.562 573.395 102.642V99.8636C573.168 100.011 572.855 100.148 572.458 100.273C572.071 100.386 571.634 100.494 571.145 100.597C570.657 100.687 570.168 100.773 569.679 100.852C569.191 100.92 568.747 100.983 568.35 101.04C567.497 101.165 566.753 101.364 566.117 101.636C565.48 101.909 564.986 102.278 564.634 102.744C564.282 103.199 564.105 103.767 564.105 104.449C564.105 105.438 564.463 106.193 565.179 106.716C565.907 107.227 566.827 107.483 567.941 107.483Z" fill="#B1B5E6"></path></svg>