<svg xmlns="http://www.w3.org/2000/svg" width="35" height="24" viewBox="0 0 35 24" fill="none"><rect y="-0.00390625" width="35" height="24" rx="6" fill="#1434CB"></rect><g clip-path="url(#clip0_13551_10989)"><path d="M21.4924 7.72363C19.6199 7.72363 17.9464 8.69435 17.9464 10.4874C17.9464 12.5439 20.9143 12.686 20.9143 13.7193C20.9143 14.1543 20.4158 14.5437 19.5642 14.5437C18.3559 14.5437 17.4528 13.9996 17.4528 13.9996L17.0663 15.8093C17.0663 15.8093 18.1067 16.2689 19.4879 16.2689C21.5352 16.2689 23.1464 15.2507 23.1464 13.4267C23.1464 11.2535 20.1661 11.1157 20.1661 10.1569C20.1661 9.81607 20.5753 9.44278 21.4243 9.44278C22.3824 9.44278 23.1638 9.83851 23.1638 9.83851L23.5421 8.09085C23.5421 8.09085 22.6915 7.72363 21.4922 7.72363H21.4924ZM4.35986 7.85563L4.31445 8.11936C4.31445 8.11936 5.10222 8.26351 5.81184 8.55126C6.72553 8.88099 6.79047 9.07318 6.94438 9.66929L8.62102 16.1327H10.8687L14.3313 7.85563H12.0889L9.86392 13.4832L8.95604 8.71283C8.87288 8.16688 8.45101 7.85537 7.9349 7.85537H4.36012L4.35986 7.85563ZM15.2331 7.85563L13.4741 16.1327H15.6124L17.3651 7.85563H15.2331ZM27.1594 7.85563C26.6438 7.85563 26.3705 8.13177 26.1702 8.61409L23.0373 16.1327H25.2797L25.7135 14.8795H28.4453L28.709 16.1327H30.6877L28.9617 7.85563H27.1594ZM27.4511 10.0919L28.1158 13.1979H26.3352L27.4513 10.0919H27.4511Z" fill="white"></path></g><defs><clipPath id="clip0_13551_10989"><rect width="26.3996" height="8.57143" fill="white" transform="translate(4.30078 7.70996)"></rect></clipPath></defs></svg>